<svg width="106" height="89" viewBox="0 0 106 89" fill="none" xmlns="http://www.w3.org/2000/svg">
<path d="M21.9916 49.4821C1.95984 38.3259 0.604069 -2.85167 29.8241 0.76635C40.0475 2.03279 47.4806 11.2998 56.9973 14.4292C67.9932 18.0314 75.9702 12.1328 86.4249 12.7607C111.275 14.2531 112.132 45.2099 90.8916 53.2499C79.4516 57.5826 68.4084 56.7707 56.9185 55.1259C46.9289 53.6782 31.4268 54.7318 21.9916 49.4821Z" fill="#9B6BF3"/>
<path opacity="0.9" d="M21.9916 49.4821C1.95984 38.3259 0.604069 -2.85167 29.8241 0.76635C40.0475 2.03279 47.4806 11.2998 56.9973 14.4292C67.9932 18.0314 75.9702 12.1328 86.4249 12.7607C111.275 14.2531 112.132 45.2099 90.8916 53.2499C79.4516 57.5826 68.4084 56.7707 56.9185 55.1259C46.9289 53.6782 31.4268 54.7318 21.9916 49.4821Z" fill="#49525E"/>
<path d="M51.3955 88.5421C79.5311 88.5421 102.339 87.2104 102.339 85.5678C102.339 83.9251 79.5311 82.5935 51.3955 82.5935C23.26 82.5935 0.45166 83.9251 0.45166 85.5678C0.45166 87.2104 23.26 88.5421 51.3955 88.5421Z" fill="#49525E"/>
<path d="M33.1215 47.7849C32.9658 47.7747 32.8197 47.7056 32.713 47.5917C32.6063 47.4778 32.5469 47.3275 32.5469 47.1714C32.5469 47.0153 32.6063 46.865 32.713 46.7511C32.8197 46.6372 32.9658 46.5681 33.1215 46.5579C34.6244 46.5579 35.8909 44.406 35.8909 41.8574C35.9011 41.7016 35.9701 41.5555 36.0841 41.4488C36.198 41.3421 36.3483 41.2827 36.5044 41.2827C36.6605 41.2827 36.8108 41.3421 36.9247 41.4488C37.0386 41.5555 37.1077 41.7016 37.1179 41.8574C37.1179 45.1811 35.368 47.7849 33.1215 47.7849Z" fill="#9B6BF3"/>
<path d="M42.3939 47.7849C42.2381 47.7747 42.092 47.7056 41.9853 47.5917C41.8786 47.4778 41.8192 47.3275 41.8192 47.1714C41.8192 47.0153 41.8786 46.865 41.9853 46.7511C42.092 46.6372 42.2381 46.5681 42.3939 46.5579C43.8968 46.5579 45.1632 44.406 45.1632 41.8574C45.1734 41.7016 45.2425 41.5555 45.3564 41.4488C45.4704 41.3421 45.6206 41.2827 45.7767 41.2827C45.9328 41.2827 46.0831 41.3421 46.197 41.4488C46.311 41.5555 46.38 41.7016 46.3902 41.8574C46.4034 45.1811 44.6351 47.7849 42.3939 47.7849Z" fill="#9B6BF3"/>
<path d="M51.6583 47.7849C51.5025 47.7747 51.3564 47.7056 51.2497 47.5917C51.143 47.4777 51.0836 47.3275 51.0836 47.1714C51.0836 47.0153 51.143 46.865 51.2497 46.7511C51.3564 46.6371 51.5025 46.568 51.6583 46.5578C53.1586 46.5578 54.4276 44.406 54.4276 41.8573C54.4276 41.695 54.4921 41.5392 54.6069 41.4244C54.7217 41.3096 54.8775 41.2451 55.0398 41.2451C55.2022 41.2451 55.3579 41.3096 55.4727 41.4244C55.5875 41.5392 55.652 41.695 55.652 41.8573C55.6599 45.1811 53.9074 47.7849 51.6583 47.7849Z" fill="#9B6BF3"/>
<path d="M60.9385 47.7849C60.8546 47.7904 60.7704 47.7786 60.6912 47.7502C60.612 47.7219 60.5394 47.6776 60.478 47.6201C60.4166 47.5626 60.3677 47.4931 60.3342 47.4159C60.3008 47.3387 60.2835 47.2555 60.2835 47.1714C60.2835 47.0872 60.3008 47.004 60.3342 46.9268C60.3677 46.8496 60.4166 46.7801 60.478 46.7226C60.5394 46.6651 60.612 46.6208 60.6912 46.5925C60.7704 46.5641 60.8546 46.5523 60.9385 46.5578C62.4388 46.5578 63.7078 44.406 63.7078 41.8573C63.7078 41.695 63.7724 41.5392 63.8872 41.4244C64.002 41.3096 64.1577 41.2451 64.32 41.2451C64.4824 41.2451 64.6381 41.3096 64.7529 41.4244C64.8677 41.5392 64.9322 41.695 64.9322 41.8573C64.9322 45.1811 63.1771 47.7849 60.9385 47.7849Z" fill="#9B6BF3"/>
<path d="M70.2082 47.7849C70.0524 47.7747 69.9064 47.7056 69.7996 47.5917C69.6929 47.4778 69.6335 47.3275 69.6335 47.1714C69.6335 47.0153 69.6929 46.865 69.7996 46.7511C69.9064 46.6372 70.0524 46.5681 70.2082 46.5579C71.7111 46.5579 72.9775 44.406 72.9775 41.8574C72.9877 41.7016 73.0568 41.5555 73.1707 41.4488C73.2847 41.3421 73.4349 41.2827 73.5911 41.2827C73.7472 41.2827 73.8974 41.3421 74.0114 41.4488C74.1253 41.5555 74.1944 41.7016 74.2046 41.8574C74.2046 45.1811 72.4494 47.7849 70.2082 47.7849Z" fill="#9B6BF3"/>
<path d="M79.4805 47.7849C79.3247 47.7747 79.1786 47.7056 79.0719 47.5917C78.9652 47.4778 78.9058 47.3275 78.9058 47.1714C78.9058 47.0153 78.9652 46.865 79.0719 46.7511C79.1786 46.6372 79.3247 46.5681 79.4805 46.5579C80.9808 46.5579 82.2498 44.406 82.2498 41.8574C82.26 41.7016 82.3291 41.5555 82.443 41.4488C82.557 41.3421 82.7072 41.2827 82.8633 41.2827C83.0195 41.2827 83.1697 41.3421 83.2836 41.4488C83.3976 41.5555 83.4667 41.7016 83.4769 41.8574C83.4769 45.1811 81.7217 47.7849 79.4805 47.7849Z" fill="#9B6BF3"/>
<g opacity="0.3">
<path d="M33.1215 47.7849C32.9658 47.7747 32.8197 47.7056 32.713 47.5917C32.6063 47.4778 32.5469 47.3275 32.5469 47.1714C32.5469 47.0153 32.6063 46.865 32.713 46.7511C32.8197 46.6372 32.9658 46.5681 33.1215 46.5579C34.6244 46.5579 35.8909 44.406 35.8909 41.8574C35.9011 41.7016 35.9701 41.5555 36.0841 41.4488C36.198 41.3421 36.3483 41.2827 36.5044 41.2827C36.6605 41.2827 36.8108 41.3421 36.9247 41.4488C37.0386 41.5555 37.1077 41.7016 37.1179 41.8574C37.1179 45.1811 35.368 47.7849 33.1215 47.7849Z" fill="black"/>
<path d="M42.3939 47.7849C42.2381 47.7747 42.092 47.7056 41.9853 47.5917C41.8786 47.4778 41.8192 47.3275 41.8192 47.1714C41.8192 47.0153 41.8786 46.865 41.9853 46.7511C42.092 46.6372 42.2381 46.5681 42.3939 46.5579C43.8968 46.5579 45.1632 44.406 45.1632 41.8574C45.1734 41.7016 45.2425 41.5555 45.3564 41.4488C45.4704 41.3421 45.6206 41.2827 45.7767 41.2827C45.9328 41.2827 46.0831 41.3421 46.197 41.4488C46.311 41.5555 46.38 41.7016 46.3902 41.8574C46.4034 45.1811 44.6351 47.7849 42.3939 47.7849Z" fill="black"/>
<path d="M51.6583 47.7849C51.5025 47.7747 51.3564 47.7056 51.2497 47.5917C51.143 47.4777 51.0836 47.3275 51.0836 47.1714C51.0836 47.0153 51.143 46.865 51.2497 46.7511C51.3564 46.6371 51.5025 46.568 51.6583 46.5578C53.1586 46.5578 54.4276 44.406 54.4276 41.8573C54.4276 41.695 54.4921 41.5392 54.6069 41.4244C54.7217 41.3096 54.8775 41.2451 55.0398 41.2451C55.2022 41.2451 55.3579 41.3096 55.4727 41.4244C55.5875 41.5392 55.652 41.695 55.652 41.8573C55.6599 45.1811 53.9074 47.7849 51.6583 47.7849Z" fill="black"/>
<path d="M60.9385 47.7849C60.8546 47.7904 60.7704 47.7786 60.6912 47.7502C60.612 47.7219 60.5394 47.6776 60.478 47.6201C60.4166 47.5626 60.3677 47.4931 60.3342 47.4159C60.3008 47.3387 60.2835 47.2555 60.2835 47.1714C60.2835 47.0872 60.3008 47.004 60.3342 46.9268C60.3677 46.8496 60.4166 46.7801 60.478 46.7226C60.5394 46.6651 60.612 46.6208 60.6912 46.5925C60.7704 46.5641 60.8546 46.5523 60.9385 46.5578C62.4388 46.5578 63.7078 44.406 63.7078 41.8573C63.7078 41.695 63.7724 41.5392 63.8872 41.4244C64.002 41.3096 64.1577 41.2451 64.32 41.2451C64.4824 41.2451 64.6381 41.3096 64.7529 41.4244C64.8677 41.5392 64.9322 41.695 64.9322 41.8573C64.9322 45.1811 63.1771 47.7849 60.9385 47.7849Z" fill="black"/>
<path d="M70.2082 47.7849C70.0524 47.7747 69.9064 47.7056 69.7996 47.5917C69.6929 47.4778 69.6335 47.3275 69.6335 47.1714C69.6335 47.0153 69.6929 46.865 69.7996 46.7511C69.9064 46.6372 70.0524 46.5681 70.2082 46.5579C71.7111 46.5579 72.9775 44.406 72.9775 41.8574C72.9877 41.7016 73.0568 41.5555 73.1707 41.4488C73.2847 41.3421 73.4349 41.2827 73.5911 41.2827C73.7472 41.2827 73.8974 41.3421 74.0114 41.4488C74.1253 41.5555 74.1944 41.7016 74.2046 41.8574C74.2046 45.1811 72.4494 47.7849 70.2082 47.7849Z" fill="black"/>
<path d="M79.4805 47.7849C79.3247 47.7747 79.1786 47.7056 79.0719 47.5917C78.9652 47.4778 78.9058 47.3275 78.9058 47.1714C78.9058 47.0153 78.9652 46.865 79.0719 46.7511C79.1786 46.6372 79.3247 46.5681 79.4805 46.5579C80.9808 46.5579 82.2498 44.406 82.2498 41.8574C82.26 41.7016 82.3291 41.5555 82.443 41.4488C82.557 41.3421 82.7072 41.2827 82.8633 41.2827C83.0195 41.2827 83.1697 41.3421 83.2836 41.4488C83.3976 41.5555 83.4667 41.7016 83.4769 41.8574C83.4769 45.1811 81.7217 47.7849 79.4805 47.7849Z" fill="black"/>
</g>
<path d="M27.3122 42.4852H87.0029C87.8033 42.5012 88.5702 42.8087 89.1599 43.3501C89.7496 43.8914 90.1215 44.6293 90.2058 45.4253L93.5112 82.6906C93.5514 83.0645 93.5117 83.4427 93.3949 83.8002C93.278 84.1577 93.0865 84.4862 92.8332 84.7642C92.5798 85.0421 92.2704 85.2631 91.9252 85.4125C91.5801 85.5619 91.2072 85.6363 90.8312 85.6308H31.1378C30.3378 85.6136 29.5715 85.3057 28.982 84.7646C28.3926 84.2235 28.0203 83.4862 27.935 82.6906L24.6322 45.4253C24.5916 45.0513 24.6309 44.6729 24.7476 44.3153C24.8644 43.9577 25.0558 43.6289 25.3092 43.3509C25.5626 43.0729 25.8723 42.8519 26.2176 42.7026C26.563 42.5534 26.9361 42.4793 27.3122 42.4852Z" fill="#9B6BF3"/>
<path opacity="0.4" d="M27.3122 42.4852H87.0029C87.8033 42.5012 88.5702 42.8087 89.1599 43.3501C89.7496 43.8914 90.1215 44.6293 90.2058 45.4253L93.5112 82.6906C93.5514 83.0645 93.5117 83.4427 93.3949 83.8002C93.278 84.1577 93.0865 84.4862 92.8332 84.7642C92.5798 85.0421 92.2704 85.2631 91.9252 85.4125C91.5801 85.5619 91.2072 85.6363 90.8312 85.6308H31.1378C30.3378 85.6136 29.5715 85.3057 28.982 84.7646C28.3926 84.2235 28.0203 83.4862 27.935 82.6906L24.6322 45.4253C24.5916 45.0513 24.6309 44.6729 24.7476 44.3153C24.8644 43.9577 25.0558 43.6289 25.3092 43.3509C25.5626 43.0729 25.8723 42.8519 26.2176 42.7026C26.563 42.5534 26.9361 42.4793 27.3122 42.4852Z" fill="#FAFAFA"/>
<path d="M86.5063 42.4852H26.813C26.0234 42.4946 25.2669 42.8033 24.6962 43.3491C24.1256 43.8949 23.7834 44.6369 23.7389 45.4253L22.0573 82.6906C22.0373 83.0702 22.0949 83.45 22.2268 83.8065C22.3587 84.1631 22.5619 84.489 22.8241 84.7642C23.0864 85.0395 23.402 85.2583 23.7518 85.4073C24.1015 85.5563 24.478 85.6323 24.8582 85.6307H84.5567C85.3463 85.6213 86.1029 85.3125 86.6735 84.7668C87.2441 84.221 87.5863 83.479 87.6309 82.6906L89.3151 45.4253C89.3348 45.0451 89.2766 44.6649 89.1441 44.3079C89.0116 43.951 88.8076 43.6249 88.5446 43.3496C88.2816 43.0743 87.9652 42.8556 87.6147 42.707C87.2642 42.5583 86.887 42.4829 86.5063 42.4852Z" fill="#9B6BF3"/>
<path opacity="0.2" d="M86.5063 42.4852H26.813C26.0234 42.4946 25.2669 42.8033 24.6962 43.3491C24.1256 43.8949 23.7834 44.6369 23.7389 45.4253L22.0573 82.6906C22.0373 83.0702 22.0949 83.45 22.2268 83.8065C22.3587 84.1631 22.5619 84.489 22.8241 84.7642C23.0864 85.0395 23.402 85.2583 23.7518 85.4073C24.1015 85.5563 24.478 85.6323 24.8582 85.6307H84.5567C85.3463 85.6213 86.1029 85.3125 86.6735 84.7668C87.2441 84.221 87.5863 83.479 87.6309 82.6906L89.3151 45.4253C89.3348 45.0451 89.2766 44.6649 89.1441 44.3079C89.0116 43.951 88.8076 43.6249 88.5446 43.3496C88.2816 43.0743 87.9652 42.8556 87.6147 42.707C87.2642 42.5583 86.887 42.4829 86.5063 42.4852Z" fill="#FAFAFA"/>
<path d="M27.9086 75.7831L29.2985 45.0076C29.3152 44.7057 29.4461 44.4215 29.6648 44.2126C29.8834 44.0038 30.1733 43.886 30.4756 43.8831H82.7175C82.8631 43.8822 83.0074 43.911 83.1415 43.9679C83.2756 44.0247 83.3966 44.1083 83.4973 44.2136C83.5979 44.3189 83.6759 44.4437 83.7266 44.5802C83.7773 44.7167 83.7996 44.8622 83.7921 45.0076L82.3995 75.7831C82.3829 76.085 82.2519 76.3692 82.0333 76.5781C81.8147 76.7869 81.5248 76.9048 81.2224 76.9077H28.9832C28.8376 76.9086 28.6933 76.8797 28.5592 76.8229C28.4251 76.766 28.304 76.6824 28.2034 76.5771C28.1028 76.4718 28.0247 76.3471 27.974 76.2105C27.9233 76.074 27.9011 75.9285 27.9086 75.7831Z" fill="#9B6BF3"/>
<path opacity="0.1" d="M27.9086 75.7831L29.2985 45.0076C29.3152 44.7057 29.4461 44.4215 29.6648 44.2126C29.8834 44.0038 30.1733 43.886 30.4756 43.8831H82.7175C82.8631 43.8822 83.0074 43.911 83.1415 43.9679C83.2756 44.0247 83.3966 44.1083 83.4973 44.2136C83.5979 44.3189 83.6759 44.4437 83.7266 44.5802C83.7773 44.7167 83.7996 44.8622 83.7921 45.0076L82.3995 75.7831C82.3829 76.085 82.2519 76.3692 82.0333 76.5781C81.8147 76.7869 81.5248 76.9048 81.2224 76.9077H28.9832C28.8376 76.9086 28.6933 76.8797 28.5592 76.8229C28.4251 76.766 28.304 76.6824 28.2034 76.5771C28.1028 76.4718 28.0247 76.3471 27.974 76.2105C27.9233 76.074 27.9011 75.9285 27.9086 75.7831Z" fill="#FAFAFA"/>
<path opacity="0.1" d="M26.4346 78.2949L27.8929 45.9771C27.9096 45.6602 28.0467 45.3615 28.2762 45.1423C28.5058 44.923 28.8103 44.7996 29.1278 44.7974H83.9892C84.1421 44.7961 84.2936 44.8261 84.4344 44.8856C84.5752 44.9452 84.7024 45.0329 84.808 45.1434C84.9136 45.254 84.9954 45.385 85.0485 45.5284C85.1015 45.6717 85.1246 45.8245 85.1164 45.9771L83.6555 78.2949C83.6388 78.6117 83.5021 78.9102 83.2732 79.1299C83.0443 79.3495 82.7404 79.4737 82.4232 79.4773H27.5565C27.4038 79.4783 27.2524 79.4479 27.1118 79.388C26.9713 79.3282 26.8445 79.2401 26.7393 79.1293C26.6342 79.0184 26.5528 78.8872 26.5004 78.7437C26.448 78.6002 26.4256 78.4474 26.4346 78.2949Z" fill="black"/>
<path d="M25.0789 80.9014L26.6002 47.1911C26.6206 46.8614 26.7644 46.5516 27.003 46.3232C27.2416 46.0949 27.5574 45.9648 27.8876 45.9588H85.1164C85.2761 45.9575 85.4343 45.9889 85.5814 46.0511C85.7284 46.1132 85.8612 46.2049 85.9715 46.3203C86.0817 46.4358 86.1672 46.5726 86.2226 46.7224C86.278 46.8721 86.3021 47.0316 86.2935 47.1911L84.7643 80.9014C84.7439 81.231 84.6001 81.5409 84.3615 81.7692C84.1229 81.9976 83.8071 82.1277 83.4769 82.1337H26.256C26.0962 82.1354 25.9378 82.1042 25.7906 82.0422C25.6433 81.9801 25.5104 81.8885 25.4 81.773C25.2897 81.6574 25.2042 81.5204 25.149 81.3705C25.0937 81.2206 25.0699 81.0609 25.0789 80.9014Z" fill="#FAFAFA"/>
<path d="M79.4726 47.9792C79.365 47.9794 79.2585 47.9576 79.1596 47.9151C79.0607 47.8725 78.9717 47.8102 78.8978 47.7319C78.824 47.6536 78.7669 47.5611 78.7302 47.4599C78.6935 47.3587 78.6779 47.2511 78.6843 47.1437C78.6944 46.9329 78.7846 46.7339 78.9365 46.5874C79.0883 46.4409 79.2905 46.3579 79.5015 46.3555C79.6091 46.3553 79.7156 46.3771 79.8145 46.4197C79.9133 46.4622 80.0024 46.5245 80.0763 46.6028C80.1501 46.6811 80.2071 46.7737 80.2439 46.8748C80.2806 46.976 80.2962 47.0836 80.2897 47.191C80.2797 47.4018 80.1895 47.6008 80.0376 47.7473C79.8857 47.8938 79.6836 47.9768 79.4726 47.9792Z" fill="#9B6BF3"/>
<path d="M70.2003 47.9792C70.0927 47.9794 69.9862 47.9576 69.8873 47.9151C69.7885 47.8725 69.6994 47.8102 69.6255 47.7319C69.5517 47.6536 69.4946 47.5611 69.4579 47.4599C69.4212 47.3587 69.4056 47.2511 69.4121 47.1437C69.4221 46.9329 69.5123 46.7339 69.6642 46.5874C69.8161 46.4409 70.0182 46.3579 70.2292 46.3555C70.3368 46.3553 70.4433 46.3771 70.5422 46.4197C70.641 46.4622 70.7301 46.5245 70.804 46.6028C70.8778 46.6811 70.9349 46.7737 70.9716 46.8748C71.0083 46.976 71.0239 47.0836 71.0174 47.191C71.008 47.402 70.918 47.6014 70.766 47.748C70.614 47.8947 70.4115 47.9774 70.2003 47.9792Z" fill="#9B6BF3"/>
<path d="M60.928 47.9792C60.8203 47.9794 60.7138 47.9576 60.615 47.9151C60.5161 47.8725 60.427 47.8102 60.3532 47.7319C60.2793 47.6536 60.2223 47.5611 60.1856 47.4599C60.1489 47.3587 60.1333 47.2511 60.1397 47.1437C60.1504 46.9331 60.2408 46.7345 60.3925 46.5881C60.5443 46.4417 60.746 46.3585 60.9569 46.3555C61.0645 46.3553 61.171 46.3771 61.2699 46.4197C61.3687 46.4622 61.4578 46.5245 61.5316 46.6028C61.6055 46.6811 61.6625 46.7737 61.6992 46.8748C61.736 46.976 61.7516 47.0836 61.7451 47.191C61.7357 47.402 61.6457 47.6014 61.4937 47.748C61.3417 47.8947 61.1392 47.9774 60.928 47.9792Z" fill="#9B6BF3"/>
<path d="M51.6583 47.9792C51.5506 47.9794 51.4441 47.9576 51.3453 47.9151C51.2464 47.8725 51.1573 47.8102 51.0835 47.7319C51.0096 47.6536 50.9526 47.5611 50.9159 47.4599C50.8792 47.3587 50.8636 47.2511 50.87 47.1437C50.8813 46.9329 50.9722 46.7342 51.1244 46.5879C51.2766 46.4416 51.4787 46.3585 51.6898 46.3555C51.7974 46.3553 51.9039 46.3771 52.0028 46.4197C52.1016 46.4622 52.1907 46.5245 52.2646 46.6028C52.3384 46.6811 52.3954 46.7737 52.4322 46.8748C52.4689 46.976 52.4845 47.0836 52.478 47.191C52.4686 47.4025 52.3782 47.6022 52.2256 47.7489C52.0731 47.8957 51.8699 47.9781 51.6583 47.9792Z" fill="#9B6BF3"/>
<path d="M42.386 47.9792C42.2784 47.9794 42.1718 47.9576 42.073 47.9151C41.9741 47.8725 41.885 47.8102 41.8112 47.7319C41.7373 47.6536 41.6803 47.5611 41.6436 47.4599C41.6069 47.3587 41.5913 47.2511 41.5977 47.1437C41.6078 46.9329 41.698 46.7339 41.8498 46.5874C42.0017 46.4409 42.2039 46.3579 42.4149 46.3555C42.5225 46.3553 42.629 46.3771 42.7279 46.4197C42.8267 46.4622 42.9158 46.5245 42.9897 46.6028C43.0635 46.6811 43.1205 46.7737 43.1572 46.8748C43.194 46.976 43.2096 47.0836 43.2031 47.191C43.1931 47.4018 43.1029 47.6008 42.951 47.7473C42.7991 47.8938 42.597 47.9768 42.386 47.9792Z" fill="#9B6BF3"/>
<path d="M33.1136 47.9792C33.006 47.9794 32.8995 47.9576 32.8006 47.9151C32.7018 47.8725 32.6127 47.8102 32.5389 47.7319C32.465 47.6536 32.408 47.5611 32.3713 47.4599C32.3345 47.3587 32.3189 47.2511 32.3254 47.1437C32.3354 46.9329 32.4256 46.7339 32.5775 46.5874C32.7294 46.4409 32.9315 46.3579 33.1425 46.3555C33.2502 46.3553 33.3567 46.3771 33.4555 46.4197C33.5544 46.4622 33.6435 46.5245 33.7173 46.6028C33.7912 46.6811 33.8482 46.7737 33.8849 46.8748C33.9216 46.976 33.9372 47.0836 33.9308 47.191C33.9214 47.402 33.8314 47.6014 33.6794 47.748C33.5273 47.8947 33.3249 47.9774 33.1136 47.9792Z" fill="#9B6BF3"/>
<g opacity="0.1">
<path d="M79.4725 47.9792C79.3649 47.9794 79.2584 47.9576 79.1595 47.9151C79.0607 47.8725 78.9716 47.8102 78.8977 47.7319C78.8239 47.6536 78.7669 47.5611 78.7301 47.4599C78.6934 47.3587 78.6778 47.2511 78.6843 47.1437C78.6943 46.9329 78.7845 46.7339 78.9364 46.5874C79.0883 46.4409 79.2904 46.3579 79.5014 46.3555C79.609 46.3553 79.7156 46.3771 79.8144 46.4197C79.9133 46.4622 80.0024 46.5245 80.0762 46.6028C80.1501 46.6811 80.2071 46.7737 80.2438 46.8748C80.2805 46.976 80.2961 47.0836 80.2897 47.191C80.2796 47.4018 80.1894 47.6008 80.0376 47.7473C79.8857 47.8938 79.6835 47.9768 79.4725 47.9792Z" fill="#FAFAFA"/>
<path d="M70.2003 47.9792C70.0927 47.9794 69.9862 47.9576 69.8873 47.9151C69.7885 47.8725 69.6994 47.8102 69.6255 47.7319C69.5517 47.6536 69.4946 47.5611 69.4579 47.4599C69.4212 47.3587 69.4056 47.2511 69.4121 47.1437C69.4221 46.9329 69.5123 46.7339 69.6642 46.5874C69.8161 46.4409 70.0182 46.3579 70.2292 46.3555C70.3368 46.3553 70.4433 46.3771 70.5422 46.4197C70.641 46.4622 70.7301 46.5245 70.804 46.6028C70.8778 46.6811 70.9349 46.7737 70.9716 46.8748C71.0083 46.976 71.0239 47.0836 71.0174 47.191C71.008 47.402 70.918 47.6014 70.766 47.748C70.614 47.8947 70.4115 47.9774 70.2003 47.9792Z" fill="#FAFAFA"/>
<path d="M60.928 47.9792C60.8203 47.9794 60.7138 47.9576 60.615 47.9151C60.5161 47.8725 60.427 47.8102 60.3532 47.7319C60.2793 47.6536 60.2223 47.5611 60.1856 47.4599C60.1489 47.3587 60.1333 47.2511 60.1397 47.1437C60.1504 46.9331 60.2408 46.7345 60.3925 46.5881C60.5443 46.4417 60.746 46.3585 60.9569 46.3555C61.0645 46.3553 61.171 46.3771 61.2699 46.4197C61.3687 46.4622 61.4578 46.5245 61.5316 46.6028C61.6055 46.6811 61.6625 46.7737 61.6992 46.8748C61.736 46.976 61.7516 47.0836 61.7451 47.191C61.7357 47.402 61.6457 47.6014 61.4937 47.748C61.3417 47.8947 61.1392 47.9774 60.928 47.9792Z" fill="#FAFAFA"/>
<path d="M51.6583 47.9792C51.5506 47.9794 51.4441 47.9576 51.3453 47.9151C51.2464 47.8725 51.1573 47.8102 51.0835 47.7319C51.0096 47.6536 50.9526 47.5611 50.9159 47.4599C50.8792 47.3587 50.8636 47.2511 50.87 47.1437C50.8813 46.9329 50.9722 46.7342 51.1244 46.5879C51.2766 46.4416 51.4787 46.3585 51.6898 46.3555C51.7974 46.3553 51.9039 46.3771 52.0028 46.4197C52.1016 46.4622 52.1907 46.5245 52.2646 46.6028C52.3384 46.6811 52.3954 46.7737 52.4322 46.8748C52.4689 46.976 52.4845 47.0836 52.478 47.191C52.4686 47.4025 52.3782 47.6022 52.2256 47.7489C52.0731 47.8957 51.8699 47.9781 51.6583 47.9792Z" fill="#FAFAFA"/>
<path d="M42.386 47.9792C42.2784 47.9794 42.1718 47.9576 42.073 47.9151C41.9741 47.8725 41.885 47.8102 41.8112 47.7319C41.7373 47.6536 41.6803 47.5611 41.6436 47.4599C41.6069 47.3587 41.5913 47.2511 41.5977 47.1437C41.6078 46.9329 41.698 46.7339 41.8498 46.5874C42.0017 46.4409 42.2039 46.3579 42.4149 46.3555C42.5225 46.3553 42.629 46.3771 42.7279 46.4197C42.8267 46.4622 42.9158 46.5245 42.9897 46.6028C43.0635 46.6811 43.1205 46.7737 43.1572 46.8748C43.194 46.976 43.2096 47.0836 43.2031 47.191C43.1931 47.4018 43.1029 47.6008 42.951 47.7473C42.7991 47.8938 42.597 47.9768 42.386 47.9792Z" fill="#FAFAFA"/>
<path d="M33.1136 47.9792C33.006 47.9794 32.8995 47.9576 32.8006 47.9151C32.7018 47.8725 32.6127 47.8102 32.5389 47.7319C32.465 47.6536 32.408 47.5611 32.3713 47.4599C32.3345 47.3587 32.3189 47.2511 32.3254 47.1437C32.3354 46.9329 32.4256 46.7339 32.5775 46.5874C32.7294 46.4409 32.9315 46.3579 33.1425 46.3555C33.2502 46.3553 33.3567 46.3771 33.4555 46.4197C33.5544 46.4622 33.6435 46.5245 33.7173 46.6028C33.7912 46.6811 33.8482 46.7737 33.8849 46.8748C33.9216 46.976 33.9372 47.0836 33.9308 47.191C33.9214 47.402 33.8314 47.6014 33.6794 47.748C33.5273 47.8947 33.3249 47.9774 33.1136 47.9792Z" fill="#FAFAFA"/>
</g>
<path d="M35.4311 50.9167H30.7673C30.6997 50.9173 30.6327 50.9038 30.5706 50.8771C30.5084 50.8505 30.4525 50.8112 30.4063 50.7618C30.3602 50.7124 30.3247 50.654 30.3023 50.5902C30.2798 50.5264 30.2709 50.4587 30.276 50.3912C30.2812 50.2535 30.3382 50.1229 30.4357 50.0254C30.5331 49.928 30.6638 49.8709 30.8015 49.8657H35.4652C35.5328 49.8652 35.5998 49.8787 35.662 49.9053C35.7241 49.932 35.78 49.9713 35.8262 50.0207C35.8724 50.0701 35.9078 50.1285 35.9303 50.1923C35.9527 50.2561 35.9617 50.3238 35.9566 50.3912C35.9514 50.5289 35.8943 50.6596 35.7969 50.757C35.6994 50.8545 35.5688 50.9115 35.4311 50.9167Z" fill="#9B6BF3"/>
<path d="M44.7033 50.9167H40.0396C39.972 50.9173 39.905 50.9038 39.8428 50.8771C39.7807 50.8505 39.7248 50.8112 39.6786 50.7618C39.6324 50.7124 39.597 50.654 39.5746 50.5902C39.5521 50.5264 39.5432 50.4587 39.5483 50.3912C39.5536 50.2513 39.6125 50.1188 39.7127 50.021C39.813 49.9232 39.9469 49.8677 40.0869 49.8657H44.748C44.8157 49.8652 44.8828 49.8787 44.9451 49.9053C45.0074 49.932 45.0634 49.9712 45.1098 50.0205C45.1562 50.0699 45.1919 50.1283 45.2146 50.1921C45.2374 50.2559 45.2467 50.3237 45.242 50.3912C45.2366 50.5311 45.1777 50.6637 45.0775 50.7614C44.9773 50.8592 44.8433 50.9148 44.7033 50.9167Z" fill="#9B6BF3"/>
<path d="M53.9757 50.9167H49.3119C49.2442 50.9173 49.1771 50.9038 49.1148 50.8771C49.0526 50.8505 48.9965 50.8113 48.9501 50.7619C48.9037 50.7126 48.868 50.6542 48.8453 50.5904C48.8226 50.5266 48.8133 50.4588 48.818 50.3912C48.8233 50.2513 48.8822 50.1188 48.9824 50.021C49.0827 49.9232 49.2166 49.8677 49.3566 49.8657H54.023C54.0906 49.8652 54.1576 49.8787 54.2197 49.9053C54.2818 49.932 54.3378 49.9713 54.384 50.0207C54.4301 50.0701 54.4656 50.1285 54.488 50.1923C54.5104 50.2561 54.5194 50.3238 54.5143 50.3912C54.5096 50.5314 54.4509 50.6643 54.3505 50.7622C54.2502 50.8601 54.1159 50.9154 53.9757 50.9167Z" fill="#9B6BF3"/>
<path d="M63.2455 50.9167H58.5817C58.5141 50.9173 58.4471 50.9038 58.385 50.8771C58.3228 50.8505 58.2669 50.8112 58.2207 50.7618C58.1745 50.7124 58.1391 50.654 58.1167 50.5902C58.0942 50.5264 58.0853 50.4587 58.0904 50.3912C58.0956 50.2535 58.1526 50.1229 58.2501 50.0254C58.3475 49.928 58.4782 49.8709 58.6159 49.8657H63.2796C63.3472 49.8652 63.4142 49.8787 63.4764 49.9053C63.5385 49.932 63.5944 49.9713 63.6406 50.0207C63.6868 50.0701 63.7222 50.1285 63.7446 50.1923C63.7671 50.2561 63.776 50.3238 63.7709 50.3912C63.7657 50.5289 63.7087 50.6596 63.6113 50.757C63.5138 50.8545 63.3832 50.9115 63.2455 50.9167Z" fill="#9B6BF3"/>
<path d="M72.5177 50.9167H67.8539C67.7863 50.9173 67.7193 50.9038 67.6572 50.8771C67.5951 50.8505 67.5391 50.8112 67.4929 50.7618C67.4468 50.7124 67.4113 50.654 67.3889 50.5902C67.3665 50.5264 67.3575 50.4587 67.3626 50.3912C67.368 50.2513 67.4268 50.1188 67.5271 50.021C67.6273 49.9232 67.7612 49.8677 67.9012 49.8657H72.565C72.6326 49.8652 72.6996 49.8787 72.7617 49.9053C72.8239 49.932 72.8798 49.9713 72.926 50.0207C72.9721 50.0701 73.0076 50.1285 73.03 50.1923C73.0524 50.2561 73.0614 50.3238 73.0563 50.3912C73.0509 50.5311 72.9921 50.6637 72.8918 50.7614C72.7916 50.8592 72.6577 50.9148 72.5177 50.9167Z" fill="#9B6BF3"/>
<path d="M81.79 50.9167H77.1263C77.0587 50.9173 76.9917 50.9038 76.9295 50.8771C76.8674 50.8505 76.8115 50.8112 76.7653 50.7618C76.7191 50.7124 76.6837 50.654 76.6612 50.5902C76.6388 50.5264 76.6298 50.4587 76.6349 50.3912C76.6403 50.2513 76.6992 50.1188 76.7994 50.021C76.8996 49.9232 77.0336 49.8677 77.1736 49.8657H81.8347C81.9024 49.8652 81.9695 49.8787 82.0318 49.9053C82.094 49.932 82.1501 49.9712 82.1965 50.0205C82.2429 50.0699 82.2786 50.1283 82.3013 50.1921C82.324 50.2559 82.3334 50.3237 82.3286 50.3912C82.3233 50.5311 82.2644 50.6637 82.1642 50.7614C82.064 50.8592 81.93 50.9148 81.79 50.9167Z" fill="#9B6BF3"/>
<g opacity="0.3">
<path d="M35.4311 50.9167H30.7673C30.6997 50.9173 30.6327 50.9038 30.5706 50.8771C30.5084 50.8505 30.4525 50.8112 30.4063 50.7618C30.3602 50.7124 30.3247 50.654 30.3023 50.5902C30.2798 50.5264 30.2709 50.4587 30.276 50.3912C30.2812 50.2535 30.3382 50.1229 30.4357 50.0254C30.5331 49.928 30.6638 49.8709 30.8015 49.8657H35.4652C35.5328 49.8652 35.5998 49.8787 35.662 49.9053C35.7241 49.932 35.78 49.9713 35.8262 50.0207C35.8724 50.0701 35.9078 50.1285 35.9303 50.1923C35.9527 50.2561 35.9617 50.3238 35.9566 50.3912C35.9514 50.5289 35.8943 50.6596 35.7969 50.757C35.6994 50.8545 35.5688 50.9115 35.4311 50.9167Z" fill="black"/>
<path d="M44.7033 50.9167H40.0396C39.972 50.9173 39.905 50.9038 39.8428 50.8771C39.7807 50.8505 39.7248 50.8112 39.6786 50.7618C39.6324 50.7124 39.597 50.654 39.5746 50.5902C39.5521 50.5264 39.5432 50.4587 39.5483 50.3912C39.5536 50.2513 39.6125 50.1188 39.7127 50.021C39.813 49.9232 39.9469 49.8677 40.0869 49.8657H44.748C44.8157 49.8652 44.8828 49.8787 44.9451 49.9053C45.0074 49.932 45.0634 49.9712 45.1098 50.0205C45.1562 50.0699 45.1919 50.1283 45.2146 50.1921C45.2374 50.2559 45.2467 50.3237 45.242 50.3912C45.2366 50.5311 45.1777 50.6637 45.0775 50.7614C44.9773 50.8592 44.8433 50.9148 44.7033 50.9167Z" fill="black"/>
<path d="M53.9757 50.9167H49.3119C49.2442 50.9173 49.1771 50.9038 49.1148 50.8771C49.0526 50.8505 48.9965 50.8113 48.9501 50.7619C48.9037 50.7126 48.868 50.6542 48.8453 50.5904C48.8226 50.5266 48.8133 50.4588 48.818 50.3912C48.8233 50.2513 48.8822 50.1188 48.9824 50.021C49.0827 49.9232 49.2166 49.8677 49.3566 49.8657H54.023C54.0906 49.8652 54.1576 49.8787 54.2197 49.9053C54.2818 49.932 54.3378 49.9713 54.384 50.0207C54.4301 50.0701 54.4656 50.1285 54.488 50.1923C54.5104 50.2561 54.5194 50.3238 54.5143 50.3912C54.5096 50.5314 54.4509 50.6643 54.3505 50.7622C54.2502 50.8601 54.1159 50.9154 53.9757 50.9167Z" fill="black"/>
<path d="M63.2453 50.9167H58.5816C58.514 50.9173 58.447 50.9038 58.3848 50.8771C58.3227 50.8505 58.2668 50.8112 58.2206 50.7618C58.1744 50.7124 58.139 50.654 58.1166 50.5902C58.0941 50.5264 58.0852 50.4587 58.0903 50.3912C58.0955 50.2535 58.1525 50.1229 58.2499 50.0254C58.3474 49.928 58.478 49.8709 58.6157 49.8657H63.2795C63.3471 49.8652 63.4141 49.8787 63.4762 49.9053C63.5384 49.932 63.5943 49.9713 63.6405 50.0207C63.6867 50.0701 63.7221 50.1285 63.7445 50.1923C63.767 50.2561 63.7759 50.3238 63.7708 50.3912C63.7656 50.5289 63.7086 50.6596 63.6111 50.757C63.5137 50.8545 63.383 50.9115 63.2453 50.9167Z" fill="black"/>
<path d="M72.5177 50.9167H67.8539C67.7863 50.9173 67.7193 50.9038 67.6572 50.8771C67.5951 50.8505 67.5391 50.8112 67.4929 50.7618C67.4468 50.7124 67.4113 50.654 67.3889 50.5902C67.3665 50.5264 67.3575 50.4587 67.3626 50.3912C67.368 50.2513 67.4268 50.1188 67.5271 50.021C67.6273 49.9232 67.7612 49.8677 67.9012 49.8657H72.565C72.6326 49.8652 72.6996 49.8787 72.7617 49.9053C72.8239 49.932 72.8798 49.9713 72.926 50.0207C72.9721 50.0701 73.0076 50.1285 73.03 50.1923C73.0524 50.2561 73.0614 50.3238 73.0563 50.3912C73.0509 50.5311 72.9921 50.6637 72.8918 50.7614C72.7916 50.8592 72.6577 50.9148 72.5177 50.9167Z" fill="black"/>
<path d="M81.79 50.9167H77.1263C77.0587 50.9173 76.9917 50.9038 76.9295 50.8771C76.8674 50.8505 76.8115 50.8112 76.7653 50.7618C76.7191 50.7124 76.6837 50.654 76.6612 50.5902C76.6388 50.5264 76.6298 50.4587 76.6349 50.3912C76.6403 50.2513 76.6992 50.1188 76.7994 50.021C76.8996 49.9232 77.0336 49.8677 77.1736 49.8657H81.8347C81.9024 49.8652 81.9695 49.8787 82.0318 49.9053C82.094 49.932 82.1501 49.9712 82.1965 50.0205C82.2429 50.0699 82.2786 50.1283 82.3013 50.1921C82.324 50.2559 82.3334 50.3237 82.3286 50.3912C82.3233 50.5311 82.2644 50.6637 82.1642 50.7614C82.064 50.8592 81.93 50.9148 81.79 50.9167Z" fill="black"/>
</g>
<path d="M35.6886 60.8407H29.6139C29.4807 60.8412 29.3487 60.8146 29.2261 60.7624C29.1035 60.7102 28.9929 60.6336 28.9009 60.5372C28.8089 60.4408 28.7376 60.3266 28.6912 60.2017C28.6448 60.0768 28.6244 59.9438 28.6312 59.8107L28.894 53.736C28.9099 53.4599 29.0299 53.2001 29.2298 53.009C29.4297 52.8178 29.6947 52.7096 29.9712 52.7061H36.0459C36.1791 52.7055 36.3111 52.7322 36.4337 52.7844C36.5563 52.8365 36.6669 52.9132 36.7589 53.0096C36.8509 53.106 36.9222 53.2201 36.9686 53.345C37.015 53.4699 37.0354 53.603 37.0286 53.736L36.7658 59.8107C36.7493 60.0866 36.6291 60.3461 36.4293 60.5371C36.2295 60.7281 35.9649 60.8365 35.6886 60.8407Z" fill="#9B6BF3"/>
<path d="M44.9609 60.8407H38.8862C38.7529 60.8416 38.6208 60.8152 38.498 60.7632C38.3753 60.7111 38.2644 60.6345 38.1724 60.538C38.0803 60.4415 38.009 60.3272 37.9628 60.2022C37.9166 60.0771 37.8964 59.9439 37.9036 59.8107L38.1663 53.736C38.1823 53.4599 38.3023 53.2001 38.5022 53.009C38.7021 52.8178 38.967 52.7096 39.2436 52.7061H45.3262C45.4595 52.7056 45.5916 52.7322 45.7143 52.7843C45.837 52.8365 45.9478 52.9131 46.04 53.0094C46.1322 53.1058 46.2038 53.2199 46.2505 53.3448C46.2971 53.4697 46.3179 53.6028 46.3115 53.736L46.0356 59.8107C46.0203 60.0866 45.9008 60.3464 45.7013 60.5376C45.5019 60.7288 45.2372 60.8371 44.9609 60.8407Z" fill="#9B6BF3"/>
<path d="M54.2306 60.8407H48.1586C48.0252 60.8412 47.8932 60.8146 47.7704 60.7624C47.6477 60.7103 47.5369 60.6337 47.4447 60.5373C47.3525 60.441 47.2809 60.3269 47.2343 60.2019C47.1876 60.077 47.1668 59.9439 47.1733 59.8107L47.436 53.736C47.4519 53.4599 47.572 53.2001 47.7719 53.009C47.9718 52.8178 48.2367 52.7096 48.5133 52.7061H54.5853C54.7187 52.7052 54.8508 52.7315 54.9736 52.7836C55.0963 52.8357 55.2071 52.9123 55.2992 53.0088C55.3912 53.1052 55.4626 53.2195 55.5088 53.3446C55.555 53.4697 55.5752 53.6029 55.568 53.736L55.3053 59.8107C55.2894 60.0864 55.1697 60.3458 54.9704 60.5369C54.771 60.728 54.5067 60.8365 54.2306 60.8407Z" fill="#9B6BF3"/>
<path d="M63.5028 60.8407H57.4387C57.3052 60.8416 57.173 60.8152 57.0501 60.7632C56.9272 60.7111 56.8162 60.6346 56.7239 60.5381C56.6317 60.4417 56.5601 60.3274 56.5136 60.2023C56.467 60.0773 56.4466 59.944 56.4534 59.8107L56.7161 53.736C56.7314 53.4601 56.8509 53.2003 57.0503 53.0091C57.2498 52.818 57.5145 52.7096 57.7907 52.7061H63.8654C63.9987 52.7055 64.1306 52.7322 64.2532 52.7844C64.3758 52.8365 64.4864 52.9132 64.5784 53.0096C64.6704 53.106 64.7417 53.2201 64.7881 53.345C64.8345 53.4699 64.8549 53.603 64.8481 53.736L64.5854 59.8107C64.5694 60.0877 64.4486 60.3483 64.2476 60.5396C64.0466 60.7308 63.7803 60.8385 63.5028 60.8407Z" fill="#9B6BF3"/>
<path d="M72.7752 60.8407H66.7005C66.5673 60.8412 66.4353 60.8146 66.3127 60.7624C66.1901 60.7102 66.0795 60.6336 65.9875 60.5372C65.8955 60.4408 65.8242 60.3266 65.7778 60.2017C65.7314 60.0768 65.711 59.9438 65.7178 59.8107L65.9806 53.736C65.9965 53.4599 66.1165 53.2001 66.3164 53.009C66.5163 52.8178 66.7813 52.7096 67.0578 52.7061H73.1299C73.2633 52.7052 73.3956 52.7316 73.5185 52.7836C73.6414 52.8356 73.7524 52.9122 73.8446 53.0086C73.9369 53.1051 74.0084 53.2193 74.055 53.3444C74.1015 53.4695 74.122 53.6028 74.1152 53.736L73.8524 59.8107C73.8359 60.0866 73.7157 60.3461 73.5159 60.5371C73.3161 60.7281 73.0516 60.8366 72.7752 60.8407Z" fill="#9B6BF3"/>
<path d="M82.0449 60.8407H75.9728C75.8395 60.8416 75.7073 60.8152 75.5846 60.7632C75.4618 60.7111 75.351 60.6345 75.2589 60.538C75.1669 60.4415 75.0956 60.3272 75.0493 60.2022C75.0031 60.0771 74.983 59.9439 74.9901 59.8107L75.2529 53.736C75.2688 53.4599 75.3888 53.2001 75.5887 53.009C75.7886 52.8178 76.0536 52.7096 76.3301 52.7061H82.4022C82.5355 52.7056 82.6676 52.7322 82.7903 52.7843C82.913 52.8365 83.0239 52.9131 83.116 53.0094C83.2082 53.1058 83.2798 53.2199 83.3265 53.3448C83.3732 53.4697 83.3939 53.6028 83.3875 53.736L83.1116 59.8107C83.0964 60.0853 82.9781 60.3439 82.7803 60.5349C82.5825 60.7259 82.3198 60.8351 82.0449 60.8407Z" fill="#9B6BF3"/>
<g opacity="0.8">
<path d="M35.6886 60.8407H29.6139C29.4807 60.8412 29.3487 60.8146 29.2261 60.7624C29.1035 60.7102 28.9929 60.6336 28.9009 60.5372C28.8089 60.4408 28.7376 60.3266 28.6912 60.2017C28.6448 60.0768 28.6244 59.9438 28.6312 59.8107L28.894 53.736C28.9099 53.4599 29.0299 53.2001 29.2298 53.009C29.4297 52.8178 29.6947 52.7096 29.9712 52.7061H36.0459C36.1791 52.7055 36.3111 52.7322 36.4337 52.7844C36.5563 52.8365 36.6669 52.9132 36.7589 53.0096C36.8509 53.106 36.9222 53.2201 36.9686 53.345C37.015 53.4699 37.0354 53.603 37.0286 53.736L36.7658 59.8107C36.7493 60.0866 36.6291 60.3461 36.4293 60.5371C36.2295 60.7281 35.9649 60.8365 35.6886 60.8407Z" fill="#FAFAFA"/>
<path d="M44.9609 60.8407H38.8862C38.7529 60.8416 38.6208 60.8152 38.498 60.7632C38.3753 60.7111 38.2644 60.6345 38.1724 60.538C38.0803 60.4415 38.009 60.3272 37.9628 60.2022C37.9166 60.0771 37.8964 59.9439 37.9036 59.8107L38.1663 53.736C38.1823 53.4599 38.3023 53.2001 38.5022 53.009C38.7021 52.8178 38.967 52.7096 39.2436 52.7061H45.3262C45.4595 52.7056 45.5916 52.7322 45.7143 52.7843C45.837 52.8365 45.9478 52.9131 46.04 53.0094C46.1322 53.1058 46.2038 53.2199 46.2505 53.3448C46.2971 53.4697 46.3179 53.6028 46.3115 53.736L46.0356 59.8107C46.0203 60.0866 45.9008 60.3464 45.7013 60.5376C45.5019 60.7288 45.2372 60.8371 44.9609 60.8407Z" fill="#FAFAFA"/>
<path d="M54.2306 60.8407H48.1586C48.0252 60.8412 47.8932 60.8146 47.7704 60.7624C47.6477 60.7103 47.5369 60.6337 47.4447 60.5373C47.3525 60.441 47.2809 60.3269 47.2343 60.2019C47.1876 60.077 47.1668 59.9439 47.1733 59.8107L47.436 53.736C47.4519 53.4599 47.572 53.2001 47.7719 53.009C47.9718 52.8178 48.2367 52.7096 48.5133 52.7061H54.5853C54.7187 52.7052 54.8508 52.7315 54.9736 52.7836C55.0963 52.8357 55.2071 52.9123 55.2992 53.0088C55.3912 53.1052 55.4626 53.2195 55.5088 53.3446C55.555 53.4697 55.5752 53.6029 55.568 53.736L55.3053 59.8107C55.2894 60.0864 55.1697 60.3458 54.9704 60.5369C54.771 60.728 54.5067 60.8365 54.2306 60.8407Z" fill="#FAFAFA"/>
<path d="M63.5028 60.8407H57.4387C57.3052 60.8416 57.173 60.8152 57.0501 60.7632C56.9272 60.7111 56.8162 60.6346 56.7239 60.5381C56.6317 60.4417 56.5601 60.3274 56.5136 60.2023C56.467 60.0773 56.4466 59.944 56.4534 59.8107L56.7161 53.736C56.7314 53.4601 56.8509 53.2003 57.0503 53.0091C57.2498 52.818 57.5145 52.7096 57.7907 52.7061H63.8654C63.9987 52.7055 64.1306 52.7322 64.2532 52.7844C64.3758 52.8365 64.4864 52.9132 64.5784 53.0096C64.6704 53.106 64.7417 53.2201 64.7881 53.345C64.8345 53.4699 64.8549 53.603 64.8481 53.736L64.5854 59.8107C64.5694 60.0877 64.4486 60.3483 64.2476 60.5396C64.0466 60.7308 63.7803 60.8385 63.5028 60.8407Z" fill="#FAFAFA"/>
<path d="M72.7752 60.8407H66.7006C66.5673 60.8412 66.4354 60.8146 66.3128 60.7624C66.1902 60.7102 66.0795 60.6336 65.9876 60.5372C65.8956 60.4408 65.8242 60.3266 65.7779 60.2017C65.7315 60.0768 65.7111 59.9438 65.7179 59.8107L65.9806 53.736C65.9966 53.4599 66.1166 53.2001 66.3165 53.009C66.5164 52.8178 66.7813 52.7096 67.0579 52.7061H73.13C73.2634 52.7052 73.3956 52.7316 73.5185 52.7836C73.6414 52.8356 73.7524 52.9122 73.8447 53.0086C73.9369 53.1051 74.0085 53.2193 74.055 53.3444C74.1016 53.4695 74.1221 53.6028 74.1153 53.736L73.8525 59.8107C73.836 60.0866 73.7158 60.3461 73.516 60.5371C73.3162 60.7281 73.0516 60.8366 72.7752 60.8407Z" fill="#FAFAFA"/>
<path d="M82.0449 60.8407H75.9729C75.8395 60.8416 75.7074 60.8152 75.5846 60.7632C75.4619 60.7111 75.3511 60.6345 75.259 60.538C75.167 60.4415 75.0956 60.3272 75.0494 60.2022C75.0032 60.0771 74.983 59.9439 74.9902 59.8107L75.2529 53.736C75.2689 53.4599 75.3889 53.2001 75.5888 53.009C75.7887 52.8178 76.0536 52.7096 76.3302 52.7061H82.4023C82.5356 52.7056 82.6677 52.7322 82.7904 52.7843C82.9131 52.8365 83.0239 52.9131 83.1161 53.0094C83.2083 53.1058 83.2799 53.2199 83.3266 53.3448C83.3732 53.4697 83.394 53.6028 83.3876 53.736L83.1117 59.8107C83.0965 60.0853 82.9781 60.3439 82.7803 60.5349C82.5825 60.7259 82.3198 60.8351 82.0449 60.8407Z" fill="#FAFAFA"/>
</g>
<path d="M35.2629 70.2655H29.1882C29.0549 70.266 28.923 70.2394 28.8004 70.1872C28.6778 70.135 28.5672 70.0584 28.4752 69.962C28.3832 69.8656 28.3119 69.7514 28.2655 69.6265C28.2191 69.5016 28.1987 69.3686 28.2055 69.2355L28.4682 63.1608C28.4848 62.8849 28.605 62.6255 28.8048 62.4345C29.0045 62.2435 29.2691 62.135 29.5455 62.1309H35.6307C35.7639 62.1303 35.8959 62.157 36.0185 62.2092C36.1411 62.2613 36.2517 62.338 36.3437 62.4344C36.4357 62.5308 36.507 62.6449 36.5534 62.7698C36.5997 62.8947 36.6202 63.0278 36.6134 63.1608L36.3506 69.2355C36.334 69.5132 36.2123 69.7742 36.0103 69.9654C35.8083 70.1567 35.5411 70.264 35.2629 70.2655Z" fill="#9B6BF3"/>
<path d="M44.5352 70.2655H38.4605C38.3273 70.266 38.1953 70.2394 38.0727 70.1872C37.9502 70.135 37.8395 70.0584 37.7475 69.962C37.6555 69.8656 37.5842 69.7515 37.5378 69.6266C37.4915 69.5016 37.471 69.3686 37.4778 69.2355L37.7406 63.1608C37.7565 62.8847 37.8765 62.6249 38.0764 62.4338C38.2764 62.2427 38.5413 62.1344 38.8178 62.1309H44.8899C45.0244 62.1299 45.1577 62.1566 45.2814 62.2092C45.4052 62.2619 45.5169 62.3394 45.6095 62.4369C45.7021 62.5344 45.7737 62.65 45.8199 62.7763C45.866 62.9026 45.8857 63.0371 45.8778 63.1714L45.6151 69.2355C45.5997 69.5123 45.4795 69.7729 45.2789 69.9642C45.0783 70.1555 44.8124 70.2633 44.5352 70.2655Z" fill="#9B6BF3"/>
<path d="M53.8049 70.2655H47.7329C47.5995 70.2664 47.4674 70.24 47.3446 70.188C47.2219 70.1359 47.1111 70.0593 47.019 69.9628C46.927 69.8663 46.8556 69.7521 46.8094 69.627C46.7632 69.5019 46.743 69.3687 46.7502 69.2355L47.0129 63.1608C47.0289 62.8847 47.1489 62.6249 47.3488 62.4338C47.5487 62.2427 47.8136 62.1344 48.0902 62.1309H54.1623C54.2956 62.13 54.4277 62.1563 54.5505 62.2084C54.6733 62.2605 54.7841 62.3371 54.8761 62.4336C54.9682 62.53 55.0395 62.6443 55.0857 62.7694C55.132 62.8945 55.1521 63.0277 55.1449 63.1608L54.8822 69.2355C54.8663 69.5117 54.7462 69.7715 54.5463 69.9626C54.3464 70.1537 54.0815 70.262 53.8049 70.2655Z" fill="#9B6BF3"/>
<path d="M63.0772 70.2654H57.0052C56.8718 70.2659 56.7398 70.2393 56.6171 70.1871C56.4943 70.135 56.3835 70.0584 56.2913 69.962C56.1992 69.8657 56.1275 69.7516 56.0809 69.6266C56.0342 69.5017 56.0135 69.3686 56.0199 69.2354L56.2826 63.1607C56.2979 62.8848 56.4174 62.6251 56.6169 62.4339C56.8163 62.2427 57.081 62.1343 57.3573 62.1308H63.4319C63.5672 62.1283 63.7015 62.1539 63.8264 62.206C63.9513 62.258 64.0641 62.3353 64.1576 62.433C64.2512 62.5308 64.3235 62.6468 64.3699 62.7739C64.4164 62.9009 64.4361 63.0362 64.4278 63.1712L64.165 69.2459C64.1464 69.522 64.0238 69.7807 63.8219 69.9699C63.62 70.1591 63.3539 70.2647 63.0772 70.2654Z" fill="#9B6BF3"/>
<path d="M72.3495 70.2655H66.2748C66.1416 70.266 66.0097 70.2394 65.8871 70.1872C65.7645 70.135 65.6538 70.0584 65.5618 69.962C65.4699 69.8656 65.3985 69.7515 65.3522 69.6266C65.3058 69.5016 65.2854 69.3686 65.2922 69.2355L65.5549 63.1608C65.5689 62.8826 65.6884 62.6202 65.889 62.4269C66.0896 62.2336 66.3563 62.124 66.6348 62.1204H72.7095C72.8427 62.1198 72.9747 62.1465 73.0972 62.1987C73.2198 62.2509 73.3305 62.3275 73.4225 62.4239C73.5144 62.5203 73.5858 62.6344 73.6322 62.7593C73.6785 62.8842 73.6989 63.0173 73.6922 63.1503L73.4294 69.225C73.4154 69.5032 73.296 69.7657 73.0954 69.959C72.8948 70.1522 72.6281 70.2618 72.3495 70.2655Z" fill="#9B6BF3"/>
<path d="M81.6114 70.2655H75.5472C75.4139 70.2664 75.2817 70.24 75.159 70.188C75.0362 70.1359 74.9254 70.0593 74.8333 69.9628C74.7413 69.8663 74.67 69.752 74.6237 69.627C74.5775 69.5019 74.5574 69.3687 74.5645 69.2355L74.8273 63.1608C74.8432 62.8847 74.9632 62.6249 75.1631 62.4338C75.363 62.2426 75.628 62.1344 75.9045 62.1309H81.9766C82.1099 62.1304 82.242 62.157 82.3647 62.2091C82.4874 62.2613 82.5983 62.3379 82.6904 62.4342C82.7826 62.5306 82.8542 62.6447 82.9009 62.7696C82.9476 62.8945 82.9683 63.0276 82.9619 63.1608L82.686 69.2355C82.6707 69.5114 82.5513 69.7712 82.3518 69.9624C82.1523 70.1536 81.8877 70.2619 81.6114 70.2655Z" fill="#9B6BF3"/>
<g opacity="0.8">
<path d="M35.2629 70.2655H29.1882C29.0549 70.266 28.923 70.2394 28.8004 70.1872C28.6778 70.135 28.5672 70.0584 28.4752 69.962C28.3832 69.8656 28.3119 69.7514 28.2655 69.6265C28.2191 69.5016 28.1987 69.3686 28.2055 69.2355L28.4682 63.1608C28.4848 62.8849 28.605 62.6255 28.8048 62.4345C29.0045 62.2435 29.2691 62.135 29.5455 62.1309H35.6307C35.7639 62.1303 35.8959 62.157 36.0185 62.2092C36.1411 62.2613 36.2517 62.338 36.3437 62.4344C36.4357 62.5308 36.507 62.6449 36.5534 62.7698C36.5997 62.8947 36.6202 63.0278 36.6134 63.1608L36.3506 69.2355C36.334 69.5132 36.2123 69.7742 36.0103 69.9654C35.8083 70.1567 35.5411 70.264 35.2629 70.2655Z" fill="#FAFAFA"/>
<path d="M44.5352 70.2655H38.4605C38.3273 70.266 38.1953 70.2394 38.0727 70.1872C37.9502 70.135 37.8395 70.0584 37.7475 69.962C37.6555 69.8656 37.5842 69.7515 37.5378 69.6266C37.4915 69.5016 37.471 69.3686 37.4778 69.2355L37.7406 63.1608C37.7565 62.8847 37.8765 62.6249 38.0764 62.4338C38.2764 62.2427 38.5413 62.1344 38.8178 62.1309H44.8899C45.0244 62.1299 45.1577 62.1566 45.2814 62.2092C45.4052 62.2619 45.5169 62.3394 45.6095 62.4369C45.7021 62.5344 45.7737 62.65 45.8199 62.7763C45.866 62.9026 45.8857 63.0371 45.8778 63.1714L45.6151 69.2355C45.5997 69.5123 45.4795 69.7729 45.2789 69.9642C45.0783 70.1555 44.8124 70.2633 44.5352 70.2655Z" fill="#FAFAFA"/>
<path d="M53.8049 70.2655H47.7329C47.5995 70.2664 47.4674 70.24 47.3446 70.188C47.2219 70.1359 47.1111 70.0593 47.019 69.9628C46.927 69.8663 46.8556 69.7521 46.8094 69.627C46.7632 69.5019 46.743 69.3687 46.7502 69.2355L47.0129 63.1608C47.0289 62.8847 47.1489 62.6249 47.3488 62.4338C47.5487 62.2427 47.8136 62.1344 48.0902 62.1309H54.1623C54.2956 62.13 54.4277 62.1563 54.5505 62.2084C54.6733 62.2605 54.7841 62.3371 54.8761 62.4336C54.9682 62.53 55.0395 62.6443 55.0857 62.7694C55.132 62.8945 55.1521 63.0277 55.1449 63.1608L54.8822 69.2355C54.8663 69.5117 54.7462 69.7715 54.5463 69.9626C54.3464 70.1537 54.0815 70.262 53.8049 70.2655Z" fill="#FAFAFA"/>
<path d="M63.0772 70.2654H57.0052C56.8718 70.2659 56.7398 70.2393 56.6171 70.1871C56.4943 70.135 56.3835 70.0584 56.2913 69.962C56.1992 69.8657 56.1275 69.7516 56.0809 69.6266C56.0342 69.5017 56.0135 69.3686 56.0199 69.2354L56.2826 63.1607C56.2979 62.8848 56.4174 62.6251 56.6169 62.4339C56.8163 62.2427 57.081 62.1343 57.3573 62.1308H63.4319C63.5672 62.1283 63.7015 62.1539 63.8264 62.206C63.9513 62.258 64.0641 62.3353 64.1576 62.433C64.2512 62.5308 64.3235 62.6468 64.3699 62.7739C64.4164 62.9009 64.4361 63.0362 64.4278 63.1712L64.165 69.2459C64.1464 69.522 64.0238 69.7807 63.8219 69.9699C63.62 70.1591 63.3539 70.2647 63.0772 70.2654Z" fill="#FAFAFA"/>
<path d="M72.3495 70.2655H66.2748C66.1416 70.266 66.0097 70.2394 65.8871 70.1872C65.7645 70.135 65.6538 70.0584 65.5618 69.962C65.4699 69.8656 65.3985 69.7515 65.3522 69.6266C65.3058 69.5016 65.2854 69.3686 65.2922 69.2355L65.5549 63.1608C65.5689 62.8826 65.6884 62.6202 65.889 62.4269C66.0896 62.2336 66.3563 62.124 66.6348 62.1204H72.7095C72.8427 62.1198 72.9747 62.1465 73.0972 62.1987C73.2198 62.2509 73.3305 62.3275 73.4225 62.4239C73.5144 62.5203 73.5858 62.6344 73.6322 62.7593C73.6785 62.8842 73.6989 63.0173 73.6922 63.1503L73.4294 69.225C73.4154 69.5032 73.296 69.7657 73.0954 69.959C72.8948 70.1522 72.6281 70.2618 72.3495 70.2655Z" fill="#FAFAFA"/>
<path d="M81.6114 70.2655H75.5472C75.4139 70.2664 75.2817 70.24 75.159 70.188C75.0362 70.1359 74.9254 70.0593 74.8333 69.9628C74.7413 69.8663 74.67 69.752 74.6237 69.627C74.5775 69.5019 74.5574 69.3687 74.5645 69.2355L74.8273 63.1608C74.8432 62.8847 74.9632 62.6249 75.1631 62.4338C75.363 62.2426 75.628 62.1344 75.9045 62.1309H81.9766C82.1099 62.1304 82.242 62.157 82.3647 62.2091C82.4874 62.2613 82.5983 62.3379 82.6904 62.4342C82.7826 62.5306 82.8542 62.6447 82.9009 62.7696C82.9476 62.8945 82.9683 63.0276 82.9619 63.1608L82.686 69.2355C82.6707 69.5114 82.5513 69.7712 82.3518 69.9624C82.1523 70.1536 81.8877 70.2619 81.6114 70.2655Z" fill="#FAFAFA"/>
</g>
<path d="M34.8425 79.6874H28.7626C28.6292 79.6883 28.4971 79.662 28.3744 79.6099C28.2516 79.5579 28.1408 79.4812 28.0487 79.3848C27.9567 79.2883 27.8854 79.174 27.8391 79.0489C27.7929 78.9238 27.7727 78.7906 27.7799 78.6575L28.0427 72.5854C28.0586 72.3093 28.1786 72.0495 28.3785 71.8583C28.5784 71.6672 28.8434 71.559 29.1199 71.5554H35.1946C35.328 71.5545 35.4601 71.5809 35.5828 71.633C35.7056 71.685 35.8164 71.7617 35.9085 71.8581C36.0005 71.9546 36.0719 72.0689 36.1181 72.194C36.1643 72.319 36.1845 72.4523 36.1773 72.5854L35.9145 78.6575C35.8993 78.9329 35.7802 79.1923 35.5813 79.3835C35.3823 79.5746 35.1184 79.6832 34.8425 79.6874Z" fill="#9B6BF3"/>
<path d="M44.1096 79.6875H38.0349C37.9015 79.6884 37.7694 79.662 37.6466 79.6099C37.5239 79.5579 37.4131 79.4813 37.321 79.3848C37.229 79.2883 37.1576 79.174 37.1114 79.0489C37.0652 78.9239 37.045 78.7906 37.0522 78.6575L37.3149 72.5854C37.3303 72.3091 37.4501 72.0489 37.6501 71.8577C37.8502 71.6664 38.1155 71.5584 38.3922 71.5555H44.4643C44.5978 71.5542 44.7302 71.5803 44.8533 71.6322C44.9764 71.6841 45.0875 71.7607 45.1798 71.8572C45.2722 71.9537 45.3437 72.0681 45.3901 72.1934C45.4365 72.3186 45.4568 72.4521 45.4496 72.5854L45.1868 78.6575C45.1721 78.934 45.0525 79.1946 44.8523 79.386C44.6521 79.5774 44.3865 79.6852 44.1096 79.6875Z" fill="#9B6BF3"/>
<path d="M53.3793 79.6874H47.3072C47.1739 79.6883 47.0417 79.662 46.919 79.6099C46.7962 79.5579 46.6854 79.4812 46.5934 79.3848C46.5013 79.2883 46.43 79.174 46.3837 79.0489C46.3375 78.9238 46.3174 78.7906 46.3245 78.6575L46.5873 72.5854C46.6026 72.3091 46.7224 72.0489 46.9225 71.8576C47.1225 71.6664 47.3878 71.5584 47.6645 71.5554H53.7603C53.8937 71.5546 54.0259 71.5809 54.1488 71.633C54.2717 71.685 54.3827 71.7616 54.475 71.858C54.5672 71.9544 54.6388 72.0687 54.6853 72.1938C54.7319 72.3189 54.7524 72.4521 54.7456 72.5854L54.4697 78.6575C54.4542 78.9361 54.3325 79.1981 54.1297 79.3897C53.9269 79.5813 53.6583 79.6879 53.3793 79.6874Z" fill="#9B6BF3"/>
<path d="M62.6516 79.6874H56.5795C56.4461 79.6883 56.3138 79.662 56.1909 79.6099C56.068 79.5579 55.9571 79.4813 55.8648 79.3849C55.7726 79.2884 55.701 79.1742 55.6544 79.0491C55.6079 78.924 55.5874 78.7908 55.5942 78.6575L55.857 72.5854C55.8717 72.3093 55.9909 72.0491 56.1905 71.8578C56.3901 71.6665 56.6551 71.5584 56.9316 71.5554H63.0063C63.1396 71.5545 63.2718 71.5809 63.3945 71.633C63.5173 71.685 63.6281 71.7617 63.7202 71.8581C63.8122 71.9546 63.8835 72.0689 63.9298 72.194C63.976 72.319 63.9961 72.4523 63.989 72.5854L63.7262 78.6575C63.7109 78.9334 63.5915 79.1932 63.392 79.3843C63.1925 79.5755 62.9279 79.6839 62.6516 79.6874Z" fill="#9B6BF3"/>
<path d="M71.924 79.6874H65.8466C65.7133 79.6883 65.5812 79.662 65.4584 79.6099C65.3356 79.5579 65.2248 79.4812 65.1328 79.3848C65.0407 79.2883 64.9694 79.174 64.9232 79.0489C64.8769 78.9238 64.8568 78.7906 64.864 78.6575L65.1267 72.5854C65.1426 72.3093 65.2627 72.0495 65.4626 71.8583C65.6625 71.6672 65.9274 71.559 66.204 71.5554H72.2787C72.412 71.5545 72.5441 71.5809 72.6669 71.633C72.7896 71.685 72.9005 71.7617 72.9925 71.8581C73.0846 71.9546 73.1559 72.0689 73.2021 72.194C73.2484 72.319 73.2685 72.4523 73.2613 72.5854L72.9986 78.6575C72.9827 78.9331 72.863 79.1926 72.6637 79.3837C72.4643 79.5747 72.2001 79.6832 71.924 79.6874Z" fill="#9B6BF3"/>
<path d="M81.1962 79.6874H75.1215C74.9882 79.6883 74.8561 79.662 74.7333 79.6099C74.6106 79.5579 74.4997 79.4812 74.4077 79.3848C74.3156 79.2883 74.2443 79.174 74.1981 79.0489C74.1518 78.9238 74.1317 78.7906 74.1389 78.6575L74.4016 72.5854C74.4169 72.3091 74.5368 72.0489 74.7368 71.8576C74.9368 71.6664 75.2021 71.5584 75.4789 71.5554H81.5509C81.6844 71.5546 81.8166 71.5809 81.9395 71.633C82.0624 71.685 82.1734 71.7616 82.2656 71.858C82.3579 71.9544 82.4295 72.0687 82.476 72.1938C82.5225 72.3189 82.543 72.4521 82.5362 72.5854L82.2604 78.6575C82.2458 78.9318 82.128 79.1904 81.9306 79.3815C81.7332 79.5726 81.4709 79.6818 81.1962 79.6874Z" fill="#9B6BF3"/>
<g opacity="0.8">
<path d="M34.8425 79.6874H28.7626C28.6292 79.6883 28.4971 79.662 28.3744 79.6099C28.2516 79.5579 28.1408 79.4812 28.0487 79.3848C27.9567 79.2883 27.8854 79.174 27.8391 79.0489C27.7929 78.9238 27.7727 78.7906 27.7799 78.6575L28.0427 72.5854C28.0586 72.3093 28.1786 72.0495 28.3785 71.8583C28.5784 71.6672 28.8434 71.559 29.1199 71.5554H35.1946C35.328 71.5545 35.4601 71.5809 35.5828 71.633C35.7056 71.685 35.8164 71.7617 35.9085 71.8581C36.0005 71.9546 36.0719 72.0689 36.1181 72.194C36.1643 72.319 36.1845 72.4523 36.1773 72.5854L35.9145 78.6575C35.8993 78.9329 35.7802 79.1923 35.5813 79.3835C35.3823 79.5746 35.1184 79.6832 34.8425 79.6874Z" fill="#FAFAFA"/>
<path d="M44.1096 79.6875H38.0349C37.9015 79.6884 37.7694 79.662 37.6466 79.6099C37.5239 79.5579 37.4131 79.4813 37.321 79.3848C37.229 79.2883 37.1576 79.174 37.1114 79.0489C37.0652 78.9239 37.045 78.7906 37.0522 78.6575L37.3149 72.5854C37.3303 72.3091 37.4501 72.0489 37.6501 71.8577C37.8502 71.6664 38.1155 71.5584 38.3922 71.5555H44.4643C44.5978 71.5542 44.7302 71.5803 44.8533 71.6322C44.9764 71.6841 45.0875 71.7607 45.1798 71.8572C45.2722 71.9537 45.3437 72.0681 45.3901 72.1934C45.4365 72.3186 45.4568 72.4521 45.4496 72.5854L45.1868 78.6575C45.1721 78.934 45.0525 79.1946 44.8523 79.386C44.6521 79.5774 44.3865 79.6852 44.1096 79.6875Z" fill="#FAFAFA"/>
<path d="M53.3793 79.6874H47.3072C47.1739 79.6883 47.0417 79.662 46.919 79.6099C46.7962 79.5579 46.6854 79.4812 46.5934 79.3848C46.5013 79.2883 46.43 79.174 46.3837 79.0489C46.3375 78.9238 46.3174 78.7906 46.3245 78.6575L46.5873 72.5854C46.6026 72.3091 46.7224 72.0489 46.9225 71.8576C47.1225 71.6664 47.3878 71.5584 47.6645 71.5554H53.7603C53.8937 71.5546 54.0259 71.5809 54.1488 71.633C54.2717 71.685 54.3827 71.7616 54.475 71.858C54.5672 71.9544 54.6388 72.0687 54.6853 72.1938C54.7319 72.3189 54.7524 72.4521 54.7456 72.5854L54.4697 78.6575C54.4542 78.9361 54.3325 79.1981 54.1297 79.3897C53.9269 79.5813 53.6583 79.6879 53.3793 79.6874Z" fill="#FAFAFA"/>
<path d="M62.6516 79.6874H56.5795C56.4461 79.6883 56.3138 79.662 56.1909 79.6099C56.068 79.5579 55.9571 79.4813 55.8648 79.3849C55.7726 79.2884 55.701 79.1742 55.6544 79.0491C55.6079 78.924 55.5874 78.7908 55.5942 78.6575L55.857 72.5854C55.8717 72.3093 55.9909 72.0491 56.1905 71.8578C56.3901 71.6665 56.6551 71.5584 56.9316 71.5554H63.0063C63.1396 71.5545 63.2718 71.5809 63.3945 71.633C63.5173 71.685 63.6281 71.7617 63.7202 71.8581C63.8122 71.9546 63.8835 72.0689 63.9298 72.194C63.976 72.319 63.9961 72.4523 63.989 72.5854L63.7262 78.6575C63.7109 78.9334 63.5915 79.1932 63.392 79.3843C63.1925 79.5755 62.9279 79.6839 62.6516 79.6874Z" fill="#FAFAFA"/>
<path d="M71.9239 79.6874H65.8466C65.7132 79.6883 65.5811 79.662 65.4583 79.6099C65.3356 79.5579 65.2248 79.4812 65.1327 79.3848C65.0407 79.2883 64.9693 79.174 64.9231 79.0489C64.8769 78.9238 64.8567 78.7906 64.8639 78.6575L65.1266 72.5854C65.1426 72.3093 65.2626 72.0495 65.4625 71.8583C65.6624 71.6672 65.9273 71.559 66.2039 71.5554H72.2786C72.4119 71.5545 72.5441 71.5809 72.6668 71.633C72.7896 71.685 72.9004 71.7617 72.9925 71.8581C73.0845 71.9546 73.1558 72.0689 73.2021 72.194C73.2483 72.319 73.2684 72.4523 73.2613 72.5854L72.9985 78.6575C72.9826 78.9331 72.863 79.1926 72.6636 79.3837C72.4643 79.5747 72.2 79.6832 71.9239 79.6874Z" fill="#FAFAFA"/>
<path d="M81.1962 79.6874H75.1215C74.9882 79.6883 74.8561 79.662 74.7333 79.6099C74.6106 79.5579 74.4997 79.4812 74.4077 79.3848C74.3156 79.2883 74.2443 79.174 74.1981 79.0489C74.1518 78.9238 74.1317 78.7906 74.1389 78.6575L74.4016 72.5854C74.4169 72.3091 74.5368 72.0489 74.7368 71.8576C74.9368 71.6664 75.2021 71.5584 75.4789 71.5554H81.5509C81.6844 71.5546 81.8166 71.5809 81.9395 71.633C82.0624 71.685 82.1734 71.7616 82.2656 71.858C82.3579 71.9544 82.4295 72.0687 82.476 72.1938C82.5225 72.3189 82.543 72.4521 82.5362 72.5854L82.2604 78.6575C82.2458 78.9318 82.128 79.1904 81.9306 79.3815C81.7332 79.5726 81.4709 79.6818 81.1962 79.6874Z" fill="#FAFAFA"/>
</g>
<path d="M33.1215 47.7849C30.883 47.7849 29.1278 45.181 29.1278 41.8573C29.1278 38.5336 30.883 35.9324 33.1215 35.9324C35.3601 35.9324 37.1179 38.5362 37.1179 41.8573C37.1077 42.0131 37.0386 42.1591 36.9247 42.2659C36.8108 42.3726 36.6605 42.432 36.5044 42.432C36.3483 42.432 36.198 42.3726 36.0841 42.2659C35.9702 42.1591 35.9011 42.0131 35.8909 41.8573C35.8909 39.3113 34.6245 37.1568 33.1215 37.1568C31.6186 37.1568 30.3522 39.3113 30.3522 41.8573C30.3522 44.4033 31.6213 46.5578 33.1215 46.5578C33.2055 46.5523 33.2897 46.5641 33.3689 46.5925C33.4481 46.6208 33.5206 46.6651 33.582 46.7226C33.6434 46.7801 33.6924 46.8496 33.7258 46.9268C33.7593 47.004 33.7765 47.0872 33.7765 47.1713C33.7765 47.2555 33.7593 47.3387 33.7258 47.4159C33.6924 47.4931 33.6434 47.5626 33.582 47.6201C33.5206 47.6776 33.4481 47.7219 33.3689 47.7502C33.2897 47.7786 33.2055 47.7904 33.1215 47.7849Z" fill="#9B6BF3"/>
<path d="M42.3939 47.7849C40.1553 47.7849 38.4001 45.181 38.4001 41.8573C38.4001 38.5336 40.1553 35.9324 42.3939 35.9324C44.6325 35.9324 46.4034 38.5362 46.4034 41.8573C46.3932 42.0131 46.3241 42.1591 46.2102 42.2659C46.0963 42.3726 45.946 42.432 45.7899 42.432C45.6338 42.432 45.4835 42.3726 45.3696 42.2659C45.2556 42.1591 45.1866 42.0131 45.1764 41.8573C45.1764 39.3113 43.9099 37.1568 42.407 37.1568C40.9041 37.1568 39.6377 39.3113 39.6377 41.8573C39.6377 44.4033 40.9067 46.5578 42.407 46.5578C42.5628 46.568 42.7089 46.6371 42.8156 46.751C42.9223 46.865 42.9817 47.0152 42.9817 47.1713C42.9817 47.3275 42.9223 47.4777 42.8156 47.5916C42.7089 47.7056 42.5628 47.7747 42.407 47.7849H42.3939Z" fill="#9B6BF3"/>
<path d="M51.6582 47.7849C49.417 47.7849 47.6619 45.181 47.6619 41.8573C47.6619 38.5336 49.417 35.9324 51.6582 35.9324C53.8995 35.9324 55.652 38.5362 55.652 41.8573C55.652 42.0197 55.5875 42.1754 55.4727 42.2902C55.3579 42.405 55.2021 42.4695 55.0398 42.4695C54.8774 42.4695 54.7217 42.405 54.6069 42.2902C54.4921 42.1754 54.4276 42.0197 54.4276 41.8573C54.4276 39.3113 53.1585 37.1568 51.6582 37.1568C50.158 37.1568 48.8889 39.3113 48.8889 41.8573C48.8889 44.4033 50.158 46.5578 51.6582 46.5578C51.814 46.568 51.9601 46.6371 52.0668 46.751C52.1735 46.865 52.2329 47.0152 52.2329 47.1713C52.2329 47.3275 52.1735 47.4777 52.0668 47.5916C51.9601 47.7056 51.814 47.7747 51.6582 47.7849Z" fill="#9B6BF3"/>
<path d="M60.9385 47.7849C58.6973 47.7849 56.9421 45.181 56.9421 41.8573C56.9421 38.5336 58.6973 35.9324 60.9385 35.9324C63.1797 35.9324 64.9323 38.5362 64.9323 41.8573C64.9323 42.0197 64.8678 42.1754 64.7529 42.2902C64.6381 42.405 64.4824 42.4695 64.3201 42.4695C64.1577 42.4695 64.002 42.405 63.8872 42.2902C63.7724 42.1754 63.7079 42.0197 63.7079 41.8573C63.7079 39.3113 62.4388 37.1568 60.9385 37.1568C59.4382 37.1568 58.1692 39.3113 58.1692 41.8573C58.1692 44.4033 59.4356 46.5578 60.9385 46.5578C61.0943 46.568 61.2403 46.6371 61.3471 46.751C61.4538 46.865 61.5132 47.0152 61.5132 47.1713C61.5132 47.3275 61.4538 47.4777 61.3471 47.5916C61.2403 47.7056 61.0943 47.7747 60.9385 47.7849Z" fill="#9B6BF3"/>
<path d="M70.2081 47.7849C67.9695 47.7849 66.2144 45.181 66.2144 41.8573C66.2144 38.5336 67.9695 35.9324 70.2081 35.9324C72.4467 35.9324 74.2045 38.5362 74.2045 41.8573C74.1943 42.0131 74.1252 42.1591 74.0113 42.2659C73.8973 42.3726 73.7471 42.432 73.591 42.432C73.4349 42.432 73.2846 42.3726 73.1707 42.2659C73.0567 42.1591 72.9876 42.0131 72.9774 41.8573C72.9774 39.3113 71.711 37.1568 70.2081 37.1568C68.7052 37.1568 67.4388 39.3113 67.4388 41.8573C67.4388 44.4033 68.7078 46.5578 70.2081 46.5578C70.292 46.5523 70.3762 46.5641 70.4554 46.5925C70.5346 46.6208 70.6072 46.6651 70.6686 46.7226C70.73 46.7801 70.7789 46.8496 70.8124 46.9268C70.8458 47.004 70.8631 47.0872 70.8631 47.1713C70.8631 47.2555 70.8458 47.3387 70.8124 47.4159C70.7789 47.4931 70.73 47.5626 70.6686 47.6201C70.6072 47.6776 70.5346 47.7219 70.4554 47.7502C70.3762 47.7786 70.292 47.7904 70.2081 47.7849Z" fill="#9B6BF3"/>
<path d="M79.4804 47.7849C77.2418 47.7849 75.4867 45.181 75.4867 41.8573C75.4867 38.5336 77.2418 35.9324 79.4804 35.9324C81.719 35.9324 83.4768 38.5362 83.4768 41.8573C83.4666 42.0131 83.3975 42.1591 83.2836 42.2659C83.1697 42.3726 83.0194 42.432 82.8633 42.432C82.7072 42.432 82.5569 42.3726 82.443 42.2659C82.3291 42.1591 82.26 42.0131 82.2498 41.8573C82.2498 39.3113 80.9807 37.1568 79.4804 37.1568C77.9802 37.1568 76.7111 39.3113 76.7111 41.8573C76.7111 44.4033 77.9802 46.5578 79.4804 46.5578C79.6362 46.568 79.7823 46.6371 79.889 46.751C79.9957 46.865 80.0551 47.0152 80.0551 47.1713C80.0551 47.3275 79.9957 47.4777 79.889 47.5916C79.7823 47.7056 79.6362 47.7747 79.4804 47.7849Z" fill="#9B6BF3"/>
<g opacity="0.3">
<path d="M33.1215 47.7849C30.883 47.7849 29.1278 45.181 29.1278 41.8573C29.1278 38.5336 30.883 35.9324 33.1215 35.9324C35.3601 35.9324 37.1179 38.5362 37.1179 41.8573C37.1077 42.0131 37.0386 42.1591 36.9247 42.2659C36.8108 42.3726 36.6605 42.432 36.5044 42.432C36.3483 42.432 36.198 42.3726 36.0841 42.2659C35.9702 42.1591 35.9011 42.0131 35.8909 41.8573C35.8909 39.3113 34.6245 37.1568 33.1215 37.1568C31.6186 37.1568 30.3522 39.3113 30.3522 41.8573C30.3522 44.4033 31.6213 46.5578 33.1215 46.5578C33.2055 46.5523 33.2897 46.5641 33.3689 46.5925C33.4481 46.6208 33.5206 46.6651 33.582 46.7226C33.6434 46.7801 33.6924 46.8496 33.7258 46.9268C33.7593 47.004 33.7765 47.0872 33.7765 47.1713C33.7765 47.2555 33.7593 47.3387 33.7258 47.4159C33.6924 47.4931 33.6434 47.5626 33.582 47.6201C33.5206 47.6776 33.4481 47.7219 33.3689 47.7502C33.2897 47.7786 33.2055 47.7904 33.1215 47.7849Z" fill="black"/>
<path d="M42.3939 47.7849C40.1553 47.7849 38.4001 45.181 38.4001 41.8573C38.4001 38.5336 40.1553 35.9324 42.3939 35.9324C44.6325 35.9324 46.4034 38.5362 46.4034 41.8573C46.3932 42.0131 46.3241 42.1591 46.2102 42.2659C46.0963 42.3726 45.946 42.432 45.7899 42.432C45.6338 42.432 45.4835 42.3726 45.3696 42.2659C45.2556 42.1591 45.1866 42.0131 45.1764 41.8573C45.1764 39.3113 43.9099 37.1568 42.407 37.1568C40.9041 37.1568 39.6377 39.3113 39.6377 41.8573C39.6377 44.4033 40.9067 46.5578 42.407 46.5578C42.5628 46.568 42.7089 46.6371 42.8156 46.751C42.9223 46.865 42.9817 47.0152 42.9817 47.1713C42.9817 47.3275 42.9223 47.4777 42.8156 47.5916C42.7089 47.7056 42.5628 47.7747 42.407 47.7849H42.3939Z" fill="black"/>
<path d="M51.6582 47.7849C49.417 47.7849 47.6619 45.181 47.6619 41.8573C47.6619 38.5336 49.417 35.9324 51.6582 35.9324C53.8995 35.9324 55.652 38.5362 55.652 41.8573C55.652 42.0197 55.5875 42.1754 55.4727 42.2902C55.3579 42.405 55.2021 42.4695 55.0398 42.4695C54.8774 42.4695 54.7217 42.405 54.6069 42.2902C54.4921 42.1754 54.4276 42.0197 54.4276 41.8573C54.4276 39.3113 53.1585 37.1568 51.6582 37.1568C50.158 37.1568 48.8889 39.3113 48.8889 41.8573C48.8889 44.4033 50.158 46.5578 51.6582 46.5578C51.814 46.568 51.9601 46.6371 52.0668 46.751C52.1735 46.865 52.2329 47.0152 52.2329 47.1713C52.2329 47.3275 52.1735 47.4777 52.0668 47.5916C51.9601 47.7056 51.814 47.7747 51.6582 47.7849Z" fill="black"/>
<path d="M60.9385 47.7849C58.6973 47.7849 56.9421 45.181 56.9421 41.8573C56.9421 38.5336 58.6973 35.9324 60.9385 35.9324C63.1797 35.9324 64.9323 38.5362 64.9323 41.8573C64.9323 42.0197 64.8678 42.1754 64.7529 42.2902C64.6381 42.405 64.4824 42.4695 64.3201 42.4695C64.1577 42.4695 64.002 42.405 63.8872 42.2902C63.7724 42.1754 63.7079 42.0197 63.7079 41.8573C63.7079 39.3113 62.4388 37.1568 60.9385 37.1568C59.4382 37.1568 58.1692 39.3113 58.1692 41.8573C58.1692 44.4033 59.4356 46.5578 60.9385 46.5578C61.0943 46.568 61.2403 46.6371 61.3471 46.751C61.4538 46.865 61.5132 47.0152 61.5132 47.1713C61.5132 47.3275 61.4538 47.4777 61.3471 47.5916C61.2403 47.7056 61.0943 47.7747 60.9385 47.7849Z" fill="black"/>
<path d="M70.2082 47.7849C67.9696 47.7849 66.2145 45.181 66.2145 41.8573C66.2145 38.5336 67.9696 35.9324 70.2082 35.9324C72.4468 35.9324 74.2046 38.5362 74.2046 41.8573C74.1944 42.0131 74.1253 42.1591 74.0114 42.2659C73.8975 42.3726 73.7472 42.432 73.5911 42.432C73.435 42.432 73.2847 42.3726 73.1708 42.2659C73.0568 42.1591 72.9878 42.0131 72.9776 41.8573C72.9776 39.3113 71.7111 37.1568 70.2082 37.1568C68.7053 37.1568 67.4389 39.3113 67.4389 41.8573C67.4389 44.4033 68.7079 46.5578 70.2082 46.5578C70.2922 46.5523 70.3763 46.5641 70.4556 46.5925C70.5348 46.6208 70.6073 46.6651 70.6687 46.7226C70.7301 46.7801 70.779 46.8496 70.8125 46.9268C70.846 47.004 70.8632 47.0872 70.8632 47.1713C70.8632 47.2555 70.846 47.3387 70.8125 47.4159C70.779 47.4931 70.7301 47.5626 70.6687 47.6201C70.6073 47.6776 70.5348 47.7219 70.4556 47.7502C70.3763 47.7786 70.2922 47.7904 70.2082 47.7849Z" fill="black"/>
<path d="M79.4806 47.7849C77.242 47.7849 75.4868 45.181 75.4868 41.8573C75.4868 38.5336 77.242 35.9324 79.4806 35.9324C81.7192 35.9324 83.4769 38.5362 83.4769 41.8573C83.4667 42.0131 83.3977 42.1591 83.2837 42.2659C83.1698 42.3726 83.0195 42.432 82.8634 42.432C82.7073 42.432 82.557 42.3726 82.4431 42.2659C82.3292 42.1591 82.2601 42.0131 82.2499 41.8573C82.2499 39.3113 80.9808 37.1568 79.4806 37.1568C77.9803 37.1568 76.7112 39.3113 76.7112 41.8573C76.7112 44.4033 77.9803 46.5578 79.4806 46.5578C79.6363 46.568 79.7824 46.6371 79.8891 46.751C79.9958 46.865 80.0552 47.0152 80.0552 47.1713C80.0552 47.3275 79.9958 47.4777 79.8891 47.5916C79.7824 47.7056 79.6363 47.7747 79.4806 47.7849Z" fill="black"/>
</g>
<path d="M61.5585 61.1796C59.4145 60.754 57.0078 61.2506 56.1486 63.5102C55.4576 65.3284 56.343 67.299 58.2506 67.7798C59.9321 68.2028 62.8329 67.6852 63.4319 65.7461C64.1177 63.5286 61.33 62.8086 59.7666 62.6773C59.2963 62.6379 59.2989 63.3736 59.7666 63.413C60.4787 63.4734 61.2932 63.5128 61.9238 63.9043C63.2375 64.7267 62.6962 66.0457 61.5769 66.6763C60.4576 67.3069 58.7419 67.4645 57.6357 66.7656C56.4271 65.9958 56.3877 64.3037 57.1103 63.2001C58.0588 61.7419 59.7903 61.579 61.351 61.8864C61.8134 61.9784 62.0105 61.269 61.5454 61.177L61.5585 61.1796Z" fill="#9B6BF3"/>
<path opacity="0.1" d="M61.5585 61.1796C59.4145 60.754 57.0078 61.2506 56.1486 63.5102C55.4576 65.3284 56.343 67.299 58.2506 67.7798C59.9321 68.2028 62.8329 67.6852 63.4319 65.7461C64.1177 63.5286 61.33 62.8086 59.7666 62.6773C59.2963 62.6379 59.2989 63.3736 59.7666 63.413C60.4787 63.4734 61.2932 63.5128 61.9238 63.9043C63.2375 64.7267 62.6962 66.0457 61.5769 66.6763C60.4576 67.3069 58.7419 67.4645 57.6357 66.7656C56.4271 65.9958 56.3877 64.3037 57.1103 63.2001C58.0588 61.7419 59.7903 61.579 61.351 61.8864C61.8134 61.9784 62.0105 61.269 61.5454 61.177L61.5585 61.1796Z" fill="#FAFAFA"/>
<path d="M37.9035 52.7166C39.9539 55.4348 42.2399 57.9669 44.7349 60.2837C45.0817 60.6069 45.6046 60.0867 45.2604 59.7582C42.8081 57.4872 40.56 55.0052 38.542 52.3409C38.2608 51.9678 37.6224 52.3409 37.9087 52.7114L37.9035 52.7166Z" fill="#9B6BF3"/>
<path d="M38.6628 59.9762C40.213 57.22 42.9272 54.8684 45.4942 53.0686C45.8779 52.8058 45.5126 52.1595 45.1238 52.4327C42.4543 54.3087 39.6481 56.7313 38.0296 59.6031C37.9852 59.6868 37.9748 59.7843 38.0005 59.8755C38.0263 59.9667 38.0862 60.0444 38.1678 60.0925C38.2494 60.1405 38.3464 60.1553 38.4387 60.1336C38.5309 60.112 38.6112 60.0556 38.6628 59.9762Z" fill="#9B6BF3"/>
<g opacity="0.2">
<path d="M37.9035 52.7166C39.9539 55.4348 42.2399 57.9669 44.7349 60.2837C45.0817 60.6069 45.6046 60.0867 45.2604 59.7582C42.8081 57.4872 40.56 55.0052 38.542 52.3409C38.2608 51.9678 37.6224 52.3409 37.9087 52.7114L37.9035 52.7166Z" fill="black"/>
<path d="M38.6628 59.9762C40.213 57.22 42.9272 54.8684 45.4942 53.0686C45.8779 52.8058 45.5126 52.1595 45.1238 52.4327C42.4543 54.3087 39.6481 56.7313 38.0296 59.6031C37.9852 59.6868 37.9748 59.7843 38.0005 59.8755C38.0263 59.9667 38.0862 60.0444 38.1678 60.0925C38.2494 60.1405 38.3464 60.1553 38.4387 60.1336C38.5309 60.112 38.6112 60.0556 38.6628 59.9762Z" fill="black"/>
</g>
<path d="M67.1261 55.0683H71.9213C72.0131 55.0605 72.0987 55.0185 72.1611 54.9506C72.2234 54.8827 72.2581 54.7939 72.2581 54.7017C72.2581 54.6096 72.2234 54.5207 72.1611 54.4529C72.0987 54.385 72.0131 54.343 71.9213 54.3352H67.1261C67.0343 54.343 66.9487 54.385 66.8863 54.4529C66.824 54.5207 66.7894 54.6096 66.7894 54.7017C66.7894 54.7939 66.824 54.8827 66.8863 54.9506C66.9487 55.0185 67.0343 55.0605 67.1261 55.0683Z" fill="#9B6BF3"/>
<path d="M67.071 56.4317H69.8508C69.9484 56.4317 70.0419 56.393 70.1109 56.324C70.1799 56.255 70.2187 56.1615 70.2187 56.0639C70.2187 55.9663 70.1799 55.8728 70.1109 55.8038C70.0419 55.7348 69.9484 55.696 69.8508 55.696H67.071C66.9734 55.696 66.8798 55.7348 66.8109 55.8038C66.7419 55.8728 66.7031 55.9663 66.7031 56.0639C66.7031 56.1615 66.7419 56.255 66.8109 56.324C66.8798 56.393 66.9734 56.4317 67.071 56.4317Z" fill="#9B6BF3"/>
<g opacity="0.1">
<path d="M67.1261 55.0683H71.9213C72.0131 55.0605 72.0987 55.0185 72.1611 54.9506C72.2234 54.8827 72.2581 54.7939 72.2581 54.7017C72.2581 54.6096 72.2234 54.5207 72.1611 54.4529C72.0987 54.385 72.0131 54.343 71.9213 54.3352H67.1261C67.0343 54.343 66.9487 54.385 66.8863 54.4529C66.824 54.5207 66.7894 54.6096 66.7894 54.7017C66.7894 54.7939 66.824 54.8827 66.8863 54.9506C66.9487 55.0185 67.0343 55.0605 67.1261 55.0683Z" fill="#FAFAFA"/>
<path d="M67.071 56.432H69.8508C69.9484 56.432 70.0419 56.3932 70.1109 56.3242C70.1799 56.2553 70.2187 56.1617 70.2187 56.0641C70.2187 55.9666 70.1799 55.873 70.1109 55.804C70.0419 55.735 69.9484 55.6963 69.8508 55.6963H67.071C66.9734 55.6963 66.8798 55.735 66.8109 55.804C66.7419 55.873 66.7031 55.9666 66.7031 56.0641C66.7031 56.1617 66.7419 56.2553 66.8109 56.3242C66.8798 56.3932 66.9734 56.432 67.071 56.432Z" fill="#FAFAFA"/>
</g>
<path d="M38.4053 73.8912H42.5173C42.6149 73.8912 42.7084 73.8525 42.7774 73.7835C42.8464 73.7145 42.8851 73.6209 42.8851 73.5234C42.8851 73.4258 42.8464 73.3322 42.7774 73.2633C42.7084 73.1943 42.6149 73.1555 42.5173 73.1555H38.4053C38.3078 73.1555 38.2142 73.1943 38.1452 73.2633C38.0762 73.3322 38.0375 73.4258 38.0375 73.5234C38.0375 73.6209 38.0762 73.7145 38.1452 73.7835C38.2142 73.8525 38.3078 73.8912 38.4053 73.8912Z" fill="#9B6BF3"/>
<path d="M38.2582 75.4703H43.592C43.6895 75.4703 43.7831 75.4316 43.8521 75.3626C43.9211 75.2936 43.9598 75.2 43.9598 75.1025C43.9598 75.0049 43.9211 74.9113 43.8521 74.8424C43.7831 74.7734 43.6895 74.7346 43.592 74.7346H38.2582C38.1607 74.7346 38.0671 74.7734 37.9981 74.8424C37.9291 74.9113 37.8904 75.0049 37.8904 75.1025C37.8904 75.2 37.9291 75.2936 37.9981 75.3626C38.0671 75.4316 38.1607 75.4703 38.2582 75.4703Z" fill="#9B6BF3"/>
<path d="M38.2582 77.0968H40.9251C41.0227 77.0968 41.1162 77.058 41.1852 76.989C41.2542 76.92 41.2929 76.8265 41.2929 76.7289C41.2929 76.6314 41.2542 76.5378 41.1852 76.4688C41.1162 76.3998 41.0227 76.3611 40.9251 76.3611H38.2582C38.1607 76.3611 38.0671 76.3998 37.9981 76.4688C37.9291 76.5378 37.8904 76.6314 37.8904 76.7289C37.8904 76.8265 37.9291 76.92 37.9981 76.989C38.0671 77.058 38.1607 77.0968 38.2582 77.0968Z" fill="#9B6BF3"/>
<g opacity="0.1">
<path d="M38.4053 73.8912H42.5173C42.6149 73.8912 42.7084 73.8525 42.7774 73.7835C42.8464 73.7145 42.8851 73.6209 42.8851 73.5234C42.8851 73.4258 42.8464 73.3322 42.7774 73.2633C42.7084 73.1943 42.6149 73.1555 42.5173 73.1555H38.4053C38.3078 73.1555 38.2142 73.1943 38.1452 73.2633C38.0762 73.3322 38.0375 73.4258 38.0375 73.5234C38.0375 73.6209 38.0762 73.7145 38.1452 73.7835C38.2142 73.8525 38.3078 73.8912 38.4053 73.8912Z" fill="#FAFAFA"/>
<path d="M38.2582 75.4703H43.592C43.6895 75.4703 43.7831 75.4316 43.8521 75.3626C43.9211 75.2936 43.9598 75.2 43.9598 75.1025C43.9598 75.0049 43.9211 74.9113 43.8521 74.8424C43.7831 74.7734 43.6895 74.7346 43.592 74.7346H38.2582C38.1607 74.7346 38.0671 74.7734 37.9981 74.8424C37.9291 74.9113 37.8904 75.0049 37.8904 75.1025C37.8904 75.2 37.9291 75.2936 37.9981 75.3626C38.0671 75.4316 38.1607 75.4703 38.2582 75.4703Z" fill="#FAFAFA"/>
<path d="M38.2582 77.0968H40.9251C41.0227 77.0968 41.1162 77.058 41.1852 76.989C41.2542 76.92 41.2929 76.8265 41.2929 76.7289C41.2929 76.6314 41.2542 76.5378 41.1852 76.4688C41.1162 76.3998 41.0227 76.3611 40.9251 76.3611H38.2582C38.1607 76.3611 38.0671 76.3998 37.9981 76.4688C37.9291 76.5378 37.8904 76.6314 37.8904 76.7289C37.8904 76.8265 37.9291 76.92 37.9981 76.989C38.0671 77.058 38.1607 77.0968 38.2582 77.0968Z" fill="#FAFAFA"/>
</g>
<path d="M9.40607 32.6374L10.6489 32.5823L10.0866 34.947C9.64305 34.6433 9.23885 34.2859 8.8832 33.8829C8.78064 33.7623 8.72974 33.6061 8.74154 33.4482C8.75335 33.2903 8.8269 33.1435 8.94626 33.0395L9.40607 32.6374Z" fill="#E4897B"/>
<path d="M12.0914 33.8566L11.5343 35.7799L10.0866 34.9417L10.6489 32.5823L12.0914 33.8566Z" fill="#E4897B"/>
<path d="M11.8462 22.4389L9.30322 22.6743L15.1357 85.6663L17.6787 85.4308L11.8462 22.4389Z" fill="#9B6BF3"/>
<path opacity="0.3" d="M11.8462 22.4389L9.30322 22.6743L15.1357 85.6663L17.6787 85.4308L11.8462 22.4389Z" fill="black"/>
<path d="M16.9335 21.9664L14.3904 22.2019L20.2229 85.1939L22.766 84.9584L16.9335 21.9664Z" fill="#9B6BF3"/>
<path opacity="0.3" d="M16.9335 21.9664L14.3904 22.2019L20.2229 85.1939L22.766 84.9584L16.9335 21.9664Z" fill="black"/>
<path d="M14.3912 22.2025L11.8481 22.438L17.6806 85.43L20.2237 85.1945L14.3912 22.2025Z" fill="#9B6BF3"/>
<path opacity="0.1" d="M14.3912 22.2025L11.8481 22.438L17.6806 85.43L20.2237 85.1945L14.3912 22.2025Z" fill="black"/>
<path d="M13.8544 17.7976L11.5658 18.0104L9.30359 22.6742L16.9337 21.9674L13.8544 17.7976Z" fill="#9B6BF3"/>
<g opacity="0.8">
<path d="M13.8544 17.7976L11.5658 18.0104L9.30359 22.6742L16.9337 21.9674L13.8544 17.7976Z" fill="#FAFAFA"/>
</g>
<path d="M12.5354 16.011L11.5659 18.0105L13.8544 17.7977L12.5354 16.011Z" fill="#263238"/>
<path d="M31.7631 19.5713C32.0259 19.834 32.2439 20.0836 32.4699 20.3595C32.6959 20.6354 32.9113 20.885 33.1268 21.1478C33.5603 21.6733 33.9649 22.2277 34.3591 22.7926C35.1715 23.9411 35.8569 25.1745 36.4032 26.471C36.4689 26.6392 36.5293 26.8152 36.5924 26.9965L36.687 27.2592C36.7391 27.4165 36.776 27.5784 36.7973 27.7427C36.8544 28.2656 36.785 28.7945 36.595 29.285C36.3114 30.0091 35.9141 30.6832 35.4179 31.2819C34.5407 32.3555 33.5307 33.3135 32.4121 34.1327L31.4215 33.0817C32.2011 32.1071 32.9139 31.081 33.5551 30.0102C33.8359 29.5528 34.0517 29.0584 34.1961 28.5414C34.2361 28.4146 34.2406 28.2792 34.2093 28.15L34.12 27.9555C34.0595 27.8268 34.007 27.6928 33.9413 27.5667C33.3851 26.4874 32.7345 25.4596 31.997 24.4952C31.6291 23.9933 31.2403 23.5046 30.8461 23.0159C30.6491 22.7742 30.4494 22.5324 30.2444 22.296L29.6454 21.6049L31.7631 19.5713Z" fill="#E4897B"/>
<path d="M29.8319 33.883L30.9512 36.0979L32.0469 35.1547L31.1483 33.5808L29.8319 33.883Z" fill="#E4897B"/>
<path d="M21.4004 20.8691C20.7191 22.167 20.0114 23.4501 19.2775 24.7183C18.9175 25.3568 18.5391 25.9847 18.1713 26.618L17.6064 27.5638L17.4645 27.8003C17.3936 27.9133 17.3147 28.0473 17.2438 28.1366C17.1729 28.226 17.1019 28.3337 17.0336 28.4151C16.9653 28.4966 16.8917 28.5886 16.8234 28.6648C16.2926 29.2429 15.7276 29.7887 15.1313 30.299C14.5559 30.7904 13.9805 31.2686 13.3867 31.7231C12.2122 32.6401 11.0062 33.494 9.75553 34.3085L8.85431 33.1735L11.9679 30.1072C12.4776 29.5817 12.9926 29.0878 13.4786 28.5675C13.9562 28.078 14.4062 27.5622 14.8265 27.0226C14.8773 26.9595 14.922 26.8991 14.9605 26.8413C15.0052 26.7782 15.0367 26.7257 15.0683 26.6731C15.0954 26.6309 15.12 26.587 15.1418 26.5418L15.2627 26.2974L15.7488 25.3069C16.0825 24.6526 16.4083 23.9931 16.7472 23.3441C17.4181 22.0357 18.1187 20.7421 18.8492 19.4634L21.4004 20.8691Z" fill="#E4897B"/>
<path d="M28.7757 11.9935C28.7416 12.1459 28.7967 12.2905 28.894 12.3167C28.9912 12.343 29.0989 12.2379 29.1331 12.0855C29.1672 11.9331 29.1094 11.7886 29.0122 11.7623C28.915 11.7361 28.7994 11.8412 28.7757 11.9935Z" fill="#263238"/>
<path d="M28.781 12.2878C28.8633 12.8003 29.0135 13.2996 29.2277 13.7724C29.1067 13.8202 28.9768 13.841 28.847 13.8333C28.7171 13.8256 28.5906 13.7895 28.4762 13.7277L28.781 12.2878Z" fill="#DE5753"/>
<path d="M29.1777 11.0686C29.159 11.0687 29.1408 11.0632 29.1252 11.0528C29.0281 10.9935 28.9181 10.9587 28.8046 10.9514C28.691 10.9441 28.5774 10.9645 28.4736 11.0108C28.4509 11.0196 28.4256 11.0194 28.4031 11.0101C28.3806 11.0008 28.3625 10.9832 28.3527 10.9609C28.3439 10.9382 28.3441 10.913 28.3534 10.8904C28.3627 10.8679 28.3803 10.8499 28.4026 10.84C28.5354 10.783 28.6801 10.7589 28.8242 10.7699C28.9683 10.7809 29.1076 10.8266 29.2303 10.9031C29.2403 10.9097 29.2488 10.9182 29.2554 10.9282C29.2621 10.9382 29.2666 10.9494 29.2688 10.9611C29.271 10.9729 29.2708 10.985 29.2683 10.9967C29.2657 11.0084 29.2608 11.0194 29.2539 11.0292C29.2454 11.0415 29.234 11.0515 29.2207 11.0583C29.2074 11.0652 29.1927 11.0687 29.1777 11.0686Z" fill="#263238"/>
<path d="M23.4604 12.5742C23.7914 13.9878 24.1671 16.5732 23.216 17.5165C23.216 17.5165 23.6574 18.9484 26.2823 18.9484C29.1725 18.9484 27.596 17.5165 27.596 17.5165C26.0064 17.1408 26.0011 15.9715 26.2323 14.8759L23.4604 12.5742Z" fill="#E4897B"/>
<path d="M22.8587 18.0079C22.6327 17.556 22.3857 17.0357 22.8587 16.8728C23.3684 16.6942 26.1982 16.5129 27.1887 16.8466C27.4527 16.9172 27.6787 17.0878 27.819 17.3222C27.9593 17.5567 28.0028 17.8365 27.9402 18.1025L22.8587 18.0079Z" fill="#9B6BF3"/>
<path opacity="0.6" d="M22.8587 18.0079C22.6327 17.556 22.3857 17.0357 22.8587 16.8728C23.3684 16.6942 26.1982 16.5129 27.1887 16.8466C27.4527 16.9172 27.6787 17.0878 27.819 17.3222C27.9593 17.5567 28.0028 17.8365 27.9402 18.1025L22.8587 18.0079Z" fill="#FAFAFA"/>
<path d="M19.0777 83.9283C18.9081 83.9274 18.7391 83.9089 18.5733 83.8731C18.5648 83.8716 18.5569 83.8675 18.5508 83.8614C18.5447 83.8553 18.5406 83.8475 18.5391 83.8389C18.5374 83.8301 18.5382 83.821 18.5414 83.8126C18.5447 83.8042 18.5503 83.797 18.5575 83.7917C18.5785 83.7759 19.083 83.4133 19.3773 83.4764C19.4091 83.4819 19.4392 83.4945 19.4656 83.5131C19.4919 83.5317 19.5138 83.556 19.5297 83.5841C19.5533 83.6155 19.5661 83.6538 19.5661 83.6931C19.5661 83.7325 19.5533 83.7707 19.5297 83.8022C19.4666 83.9046 19.2748 83.9283 19.0777 83.9283ZM18.702 83.8074C18.991 83.8547 19.3852 83.8547 19.464 83.747C19.464 83.747 19.4955 83.7049 19.4508 83.6287C19.4412 83.612 19.428 83.5977 19.412 83.5867C19.3961 83.5758 19.378 83.5686 19.3589 83.5657C19.1203 83.5811 18.8916 83.667 18.702 83.8127V83.8074Z" fill="#FAFAFA"/>
<path d="M18.5838 83.8809H18.5602C18.5533 83.8769 18.5477 83.8711 18.544 83.8642C18.5403 83.8572 18.5386 83.8493 18.5392 83.8414C18.5392 83.8178 18.5628 83.2608 18.7809 83.0769C18.8071 83.0534 18.838 83.0358 18.8715 83.0254C18.9051 83.015 18.9405 83.0119 18.9753 83.0164C19.0108 83.0164 19.0451 83.0287 19.0724 83.0512C19.0997 83.0738 19.1184 83.1051 19.1251 83.1399C19.1671 83.3554 18.7993 83.7757 18.5996 83.8835L18.5838 83.8809ZM18.9438 83.0926C18.906 83.093 18.8697 83.107 18.8413 83.132C18.7124 83.3086 18.6409 83.5204 18.6364 83.739C18.8256 83.5892 19.0594 83.2713 19.0358 83.1452C19.0358 83.132 19.0358 83.1005 18.9648 83.0926H18.9438Z" fill="#FAFAFA"/>
<path d="M30.6701 83.9283C30.4709 83.9282 30.2721 83.9098 30.0763 83.8731C30.0671 83.8716 30.0586 83.8672 30.052 83.8606C30.0454 83.854 30.0411 83.8455 30.0395 83.8363C30.0381 83.8273 30.0393 83.818 30.043 83.8096C30.0468 83.8012 30.0528 83.794 30.0606 83.789C30.1578 83.7339 31.0143 83.2425 31.2219 83.5815C31.2427 83.6111 31.2539 83.6464 31.2539 83.6826C31.2539 83.7188 31.2427 83.7542 31.2219 83.7838C31.1641 83.8994 30.9171 83.9283 30.6701 83.9283ZM30.2208 83.8048C30.5834 83.8574 31.0721 83.8495 31.1562 83.7312C31.1562 83.7312 31.1825 83.6944 31.1431 83.6288C31.0275 83.4422 30.5072 83.6655 30.2208 83.8101V83.8048Z" fill="#FAFAFA"/>
<path d="M30.0842 83.8808C30.0756 83.8832 30.0665 83.8832 30.0579 83.8808C30.0514 83.8762 30.0462 83.8698 30.0429 83.8624C30.0397 83.855 30.0385 83.8468 30.0395 83.8388C30.0395 83.8178 30.0711 83.2975 30.3023 83.0952C30.3373 83.0631 30.3791 83.0394 30.4246 83.0257C30.4701 83.0121 30.5181 83.0089 30.565 83.0164C30.6938 83.0295 30.7306 83.0952 30.7385 83.1478C30.7752 83.3711 30.3364 83.7784 30.1052 83.8835L30.0842 83.8808ZM30.5256 83.0926C30.4673 83.0919 30.4109 83.1135 30.368 83.153C30.2299 83.3222 30.1497 83.5313 30.1394 83.7495C30.3706 83.6076 30.6649 83.2844 30.6465 83.1504C30.6465 83.1373 30.6465 83.1031 30.5519 83.0926H30.5256Z" fill="#FAFAFA"/>
<path d="M27.9612 83.8336H29.8924L29.9108 79.3643H27.9823L27.9612 83.8336Z" fill="#E4897B"/>
<path d="M16.3715 83.8336H18.3027L19.1015 79.3643H17.1703L16.3715 83.8336Z" fill="#E4897B"/>
<path d="M18.4314 83.6104H16.2637C16.2254 83.6098 16.1882 83.6231 16.1588 83.6477C16.1294 83.6722 16.1097 83.7066 16.1035 83.7444L15.7882 85.4601C15.7817 85.5027 15.7845 85.5461 15.7965 85.5875C15.8085 85.6288 15.8294 85.6671 15.8576 85.6996C15.8859 85.7321 15.9208 85.758 15.9601 85.7756C15.9994 85.7933 16.042 85.8022 16.0851 85.8017C16.8418 85.7885 17.207 85.7439 18.1608 85.7439C18.7467 85.7439 19.958 85.8069 20.7698 85.8069C21.5817 85.8069 21.6527 85.0187 21.319 84.932C19.8187 84.6062 19.2407 84.1569 18.7493 83.7312C18.6616 83.6536 18.5486 83.6106 18.4314 83.6104Z" fill="#263238"/>
<path d="M29.8714 83.6104H27.7694C27.7311 83.6098 27.6939 83.6231 27.6645 83.6477C27.6351 83.6722 27.6154 83.7066 27.6092 83.7444L27.2939 85.4601C27.2865 85.5024 27.2886 85.5457 27.2999 85.5871C27.3112 85.6285 27.3316 85.6668 27.3594 85.6994C27.3873 85.7321 27.422 85.7581 27.461 85.7758C27.5001 85.7935 27.5426 85.8023 27.5855 85.8017C28.3448 85.7885 29.4405 85.7439 30.3969 85.7439C31.5162 85.7439 32.4831 85.8069 33.7942 85.8069C34.5824 85.8069 34.7742 85.0187 34.4406 84.932C32.9166 84.6009 31.6817 84.5668 30.347 83.7628C30.2058 83.6686 30.041 83.6158 29.8714 83.6104Z" fill="#263238"/>
<path d="M19.535 17.9526C17.7404 18.3677 15.8565 23.2995 15.8565 23.2995L19.5849 25.7903C20.4409 24.4924 21.1912 23.1279 21.8287 21.7098C22.814 19.4528 21.3663 17.5295 19.535 17.9526Z" fill="#9B6BF3"/>
<path opacity="0.7" d="M19.535 17.9526C17.7404 18.3677 15.8565 23.2995 15.8565 23.2995L19.5849 25.7903C20.4409 24.4924 21.1912 23.1279 21.8287 21.7098C22.814 19.4528 21.3663 17.5295 19.535 17.9526Z" fill="black"/>
<path d="M20.9512 21.0977L19.4089 25.6721L19.5849 25.7903C19.5849 25.7903 20.2891 24.7393 21.0379 23.3389L20.9512 21.0977Z" fill="#9B6BF3"/>
<path opacity="0.8" d="M20.9512 21.0977L19.4089 25.6721L19.5849 25.7903C19.5849 25.7903 20.2891 24.7393 21.0379 23.3389L20.9512 21.0977Z" fill="black"/>
<path d="M31.5766 26.576C31.5608 28.7305 31.4321 31.4105 31.1115 34.7369H20.7856C20.6516 33.1604 21.3505 25.4199 19.5349 17.9526C20.6706 17.7325 21.8195 17.5868 22.9743 17.5165C24.4357 17.4323 25.9007 17.4323 27.3621 17.5165C28.37 17.6145 29.3688 17.7901 30.3495 18.042C30.3495 18.042 31.2324 18.9984 31.5004 23.4834C31.5529 24.3794 31.5818 25.3989 31.5766 26.576Z" fill="#9B6BF3"/>
<path opacity="0.7" d="M31.5766 26.576C31.5608 28.7305 31.4321 31.4105 31.1115 34.7369H20.7856C20.6516 33.1604 21.3505 25.4199 19.5349 17.9526C20.6706 17.7325 21.8195 17.5868 22.9743 17.5165C24.4357 17.4323 25.9007 17.4323 27.3621 17.5165C28.37 17.6145 29.3688 17.7901 30.3495 18.042C30.3495 18.042 31.2324 18.9984 31.5004 23.4834C31.5529 24.3794 31.5818 25.3989 31.5766 26.576Z" fill="black"/>
<path d="M31.5766 26.5759C30.9513 25.4355 29.8162 23.147 29.9765 21.8464L31.5004 23.4965C31.553 24.3793 31.5819 25.3988 31.5766 26.5759Z" fill="#9B6BF3"/>
<path opacity="0.8" d="M31.5766 26.5759C30.9513 25.4355 29.8162 23.147 29.9765 21.8464L31.5004 23.4965C31.553 24.3793 31.5819 25.3988 31.5766 26.5759Z" fill="black"/>
<path d="M28.3264 19.7972C28.1635 21.6365 32.3333 26.0611 32.3333 26.0611L35.6754 23.3391C34.8001 21.8619 33.7513 20.4947 32.5514 19.2665C30.5966 17.3773 28.5104 17.7373 28.3264 19.7972Z" fill="#9B6BF3"/>
<path opacity="0.7" d="M28.3264 19.7972C28.1635 21.6365 32.3333 26.0611 32.3333 26.0611L35.6754 23.3391C34.8001 21.8619 33.7513 20.4947 32.5514 19.2665C30.5966 17.3773 28.5104 17.7373 28.3264 19.7972Z" fill="black"/>
<path d="M29.9108 79.3669L29.9003 81.6686H27.9717L27.9796 79.3669H29.9108Z" fill="#CE6F64"/>
<path d="M17.1703 79.3669H19.1014L18.6889 81.6686H16.7578L17.1703 79.3669Z" fill="#CE6F64"/>
<path d="M23.8072 10.3988C23.526 12.3011 23.2659 13.3941 23.9964 14.6027C24.2286 14.9941 24.5634 15.3145 24.9647 15.5292C25.366 15.7439 25.8184 15.8446 26.2729 15.8205C26.7273 15.7964 27.1665 15.6484 27.5429 15.3925C27.9192 15.1367 28.2184 14.7827 28.4079 14.3689C29.162 12.7924 29.4983 9.94424 27.8403 8.74086C27.4905 8.47074 27.0757 8.29749 26.6377 8.23855C26.1996 8.17961 25.7538 8.23705 25.345 8.40509C24.9362 8.57314 24.5788 8.84587 24.3089 9.19585C24.0389 9.54583 23.8659 9.96072 23.8072 10.3988Z" fill="#E4897B"/>
<path d="M29.5219 9.49748C28.9533 9.80804 28.3276 10.0002 27.6827 10.0624C27.2019 12.2616 25.9223 14.7918 23.8519 14.064C23.0636 13.8013 22.2754 11.8911 22.1939 10.1964C22.0573 10.3619 21.9653 10.5774 21.8944 10.6667C21.7762 9.91355 21.8615 9.14249 22.1414 8.43336C22.7142 6.80959 23.0952 7.88685 23.7179 6.90155C24.1199 6.24994 24.8345 5.91362 26.0826 5.87158C25.7331 6.05288 25.6674 6.34453 26.1851 6.30249C26.7027 6.26045 28.9124 6.13958 30.1998 7.00927C29.3301 7.20633 29.8609 8.58575 31.0222 7.85006C30.5992 8.53583 30.0737 9.18744 29.5219 9.49748Z" fill="#263238"/>
<path d="M26.1955 11.5758C26.2029 12.0596 26.3649 12.5283 26.6579 12.9132C27.0494 13.4177 27.4987 13.176 27.6065 12.6084C27.701 12.104 27.6065 11.2317 27.1177 10.9269C26.629 10.6221 26.1929 10.9978 26.1955 11.5758Z" fill="#E4897B"/>
<path d="M23.8414 7.1066C23.5792 7.08997 23.325 7.00945 23.1011 6.87206C22.8771 6.73466 22.6902 6.54457 22.5565 6.31836C22.5565 6.31836 22.5224 7.85805 23.8414 7.1066Z" fill="#1E2A4C"/>
<path d="M27.4463 34.7368C27.4463 34.7368 25.8278 49.4874 24.8372 55.013C23.7547 61.0561 19.5823 81.2245 19.5823 81.2245H16.0352C16.0352 81.2245 18.5523 61.5527 19.0778 55.5516C19.6427 49.0486 20.7962 34.7263 20.7962 34.7263L27.4463 34.7368Z" fill="#9B6BF3"/>
<path opacity="0.6" d="M27.4463 34.7368C27.4463 34.7368 25.8278 49.4874 24.8372 55.013C23.7547 61.0561 19.5823 81.2245 19.5823 81.2245H16.0352C16.0352 81.2245 18.5523 61.5527 19.0778 55.5516C19.6427 49.0486 20.7962 34.7263 20.7962 34.7263L27.4463 34.7368Z" fill="#FAFAFA"/>
<path d="M20.0841 79.9214C20.0999 79.9214 19.7714 81.2798 19.7714 81.2798H15.7961L15.8224 80.0685L20.0841 79.9214Z" fill="#9B6BF3"/>
<path opacity="0.1" d="M20.0841 79.9214C20.0999 79.9214 19.7714 81.2798 19.7714 81.2798H15.7961L15.8224 80.0685L20.0841 79.9214Z" fill="#FAFAFA"/>
<path d="M26.2665 39.9919C23.752 40.4885 24.3853 49.9342 24.8766 54.7924C25.4757 51.3583 26.2902 44.7502 26.8393 40.0602C26.6615 39.9735 26.4597 39.9494 26.2665 39.9919Z" fill="#9B6BF3"/>
<path opacity="0.4" d="M26.2665 39.9919C23.752 40.4885 24.3853 49.9342 24.8766 54.7924C25.4757 51.3583 26.2902 44.7502 26.8393 40.0602C26.6615 39.9735 26.4597 39.9494 26.2665 39.9919Z" fill="#FAFAFA"/>
<path d="M31.1089 34.7368C31.1089 34.7368 31.9339 49.1668 31.9497 55.055C31.9681 61.177 30.6044 81.2245 30.6044 81.2245H27.3332C27.3332 81.2245 26.453 61.5343 26.0747 55.5227C25.6648 48.9672 24.3221 34.7368 24.3221 34.7368H31.1089Z" fill="#9B6BF3"/>
<path opacity="0.6" d="M31.1089 34.7368C31.1089 34.7368 31.9339 49.1668 31.9497 55.055C31.9681 61.177 30.6044 81.2245 30.6044 81.2245H27.3332C27.3332 81.2245 26.453 61.5343 26.0747 55.5227C25.6648 48.9672 24.3221 34.7368 24.3221 34.7368H31.1089Z" fill="#FAFAFA"/>
<path d="M31.8997 32.8818L30.9827 32.9554C30.908 32.9617 30.8357 32.9845 30.7709 33.0223C30.7061 33.06 30.6506 33.1117 30.6083 33.1736C30.566 33.2355 30.5381 33.3061 30.5265 33.3801C30.5149 33.4542 30.52 33.5299 30.5413 33.6018L30.9197 34.8761C30.9516 34.9796 31.0081 35.0739 31.0843 35.1509C31.1605 35.228 31.2542 35.2854 31.3574 35.3184C31.4606 35.3515 31.5703 35.3591 31.6771 35.3406C31.7838 35.3221 31.8846 35.2782 31.9707 35.2124C32.4443 34.7715 32.784 34.206 32.9507 33.5807L31.8997 32.8818Z" fill="#E4897B"/>
<path d="M29.8293 78.8757C29.8205 78.8744 29.8124 78.87 29.8066 78.8632C29.8008 78.8565 29.7977 78.8478 29.7978 78.8389C30.1604 73.2923 31.0012 59.8686 30.9854 55.0551C30.9854 50.1286 30.3863 39.109 30.1972 35.8484C30.1968 35.844 30.1973 35.8396 30.1988 35.8355C30.2002 35.8314 30.2025 35.8276 30.2054 35.8244C30.2084 35.8211 30.212 35.8186 30.216 35.8168C30.22 35.8151 30.2243 35.8142 30.2287 35.8142C30.2373 35.8142 30.2456 35.8174 30.252 35.8233C30.2583 35.8291 30.2622 35.8371 30.2629 35.8457C30.4415 39.1064 31.0274 50.126 31.0511 55.0551C31.0669 59.8713 30.2261 73.295 29.8635 78.8442C29.8635 78.8485 29.8626 78.8529 29.8609 78.8569C29.8591 78.8609 29.8565 78.8645 29.8533 78.8674C29.8501 78.8704 29.8463 78.8727 29.8422 78.8741C29.8381 78.8755 29.8337 78.8761 29.8293 78.8757Z" fill="#9B6BF3"/>
<path opacity="0.3" d="M29.8293 78.8757C29.8205 78.8744 29.8124 78.87 29.8066 78.8632C29.8008 78.8565 29.7977 78.8478 29.7978 78.8389C30.1604 73.2923 31.0012 59.8686 30.9854 55.0551C30.9854 50.1286 30.3863 39.109 30.1972 35.8484C30.1968 35.844 30.1973 35.8396 30.1988 35.8355C30.2002 35.8314 30.2025 35.8276 30.2054 35.8244C30.2084 35.8211 30.212 35.8186 30.216 35.8168C30.22 35.8151 30.2243 35.8142 30.2287 35.8142C30.2373 35.8142 30.2456 35.8174 30.252 35.8233C30.2583 35.8291 30.2622 35.8371 30.2629 35.8457C30.4415 39.1064 31.0274 50.126 31.0511 55.0551C31.0669 59.8713 30.2261 73.295 29.8635 78.8442C29.8635 78.8485 29.8626 78.8529 29.8609 78.8569C29.8591 78.8609 29.8565 78.8645 29.8533 78.8674C29.8501 78.8704 29.8463 78.8727 29.8422 78.8741C29.8381 78.8755 29.8337 78.8761 29.8293 78.8757Z" fill="#FAFAFA"/>
<path d="M31.1825 79.9214C31.1983 79.9214 31.0512 81.2798 31.0512 81.2798H27.0732L26.9182 80.0685L31.1825 79.9214Z" fill="#9B6BF3"/>
<path opacity="0.1" d="M31.1825 79.9214C31.1983 79.9214 31.0512 81.2798 31.0512 81.2798H27.0732L26.9182 80.0685L31.1825 79.9214Z" fill="#FAFAFA"/>
</svg>
