<svg width="106" height="33" viewBox="0 0 106 33" fill="none" xmlns="http://www.w3.org/2000/svg">
<path d="M20.3675 0.54686C20.7474 0.491848 21.1498 0.909297 21.2657 1.48531C21.3815 2.05809 21.1723 2.56939 20.7925 2.62764C20.4158 2.68588 20.0102 2.26843 19.8911 1.69242C19.772 1.11964 19.9877 0.608345 20.3675 0.54686ZM22.6692 0.54686C23.0522 0.608345 23.2647 1.11964 23.152 1.69242C23.0297 2.26843 22.6273 2.68588 22.2475 2.62764C21.8644 2.56939 21.6552 2.05809 21.7743 1.48531C21.8902 0.909297 22.2925 0.491847 22.6692 0.54686ZM18.6454 2.03544C19.0123 1.87687 19.5113 2.16488 19.772 2.66647C20.0167 3.17776 19.933 3.71494 19.5692 3.87351C19.2055 4.03208 18.7097 3.74731 18.4554 3.23925C18.2011 2.73119 18.2913 2.19077 18.6454 2.03544ZM24.4396 2.03544C24.7937 2.19077 24.8839 2.73119 24.6296 3.23925C24.3753 3.74731 23.8795 4.03208 23.5158 3.87351C23.152 3.71494 23.0683 3.17776 23.313 2.66647C23.5737 2.16488 24.0727 1.87687 24.4396 2.03544Z" fill="#9B6BF3"/>
<path d="M21.433 3.18403L20.1698 4.46507C19.6096 5.07414 19.6174 5.79632 19.9758 6.25647C20.0642 6.37431 20.1766 6.47148 20.3054 6.54137C20.4341 6.61127 20.5762 6.65225 20.722 6.66153C20.9866 6.66617 21.276 6.40607 21.5442 6.20447C21.7712 6.39713 22.054 6.68681 22.3501 6.6901C22.4961 6.68594 22.6396 6.64997 22.7707 6.58463C22.9018 6.5193 23.0175 6.42613 23.1099 6.31146C23.4841 5.86417 23.5377 5.12244 22.9783 4.51435L21.7176 3.20966C21.6802 3.1712 21.6294 3.14914 21.5761 3.1482C21.5229 3.14727 21.4714 3.16754 21.4327 3.20466L21.433 3.18403Z" fill="#9B6BF3"/>
<path d="M6.53946 2.07726C8.72991 2.07726 10.4844 2.40863 11.8029 3.07137C13.1214 3.73411 14.1316 4.61064 14.8334 5.70096C15.5352 6.79128 15.9924 8.03125 16.2051 9.42087C16.439 10.8105 16.556 12.2215 16.556 13.6539C16.556 15.2145 16.354 16.6896 15.9499 18.0793C15.5671 19.4689 14.961 20.6875 14.1316 21.735C13.3235 22.7612 12.2814 23.5843 11.0054 24.2043C9.72944 24.8029 8.20888 25.1022 6.44376 25.1022C5.04017 25.1022 3.91304 24.9953 3.06238 24.7815C2.23299 24.5891 1.58436 24.2898 1.11649 23.8836C0.669896 23.4774 0.372164 22.9643 0.223298 22.3443C0.0744328 21.7243 0 20.9975 0 20.1637V8.10607C0 7.18678 0.0744328 6.35301 0.223298 5.60476C0.393431 4.8565 0.712429 4.22583 1.18029 3.71274C1.64816 3.17827 2.30742 2.77207 3.15808 2.49415C4.03001 2.21622 5.15713 2.07726 6.53946 2.07726ZM6.66706 21.8954C7.98558 21.8954 9.07017 21.6602 9.92083 21.1899C10.7928 20.6982 11.4839 20.0568 11.9943 19.2658C12.5047 18.4748 12.8556 17.5769 13.047 16.5721C13.2597 15.5673 13.366 14.5411 13.366 13.4935C13.366 12.5315 13.2916 11.5694 13.1427 10.6074C12.9938 9.62396 12.6855 8.73674 12.2176 7.94573C11.7498 7.15472 11.0799 6.51335 10.2079 6.02164C9.336 5.52993 8.17698 5.28407 6.73086 5.28407C5.41233 5.28407 4.49787 5.47648 3.98747 5.8613C3.47708 6.24612 3.22188 6.83403 3.22188 7.62505V19.9071C3.22188 20.5699 3.45581 21.0723 3.92367 21.4144C4.4128 21.735 5.32726 21.8954 6.66706 21.8954Z" fill="#9B6BF3"/>
<path d="M20.0306 22.7612C19.988 21.9702 19.9455 21.0723 19.903 20.0675C19.8817 19.0413 19.8711 17.9189 19.8711 16.7003C19.8711 15.1824 19.8817 13.889 19.903 12.8201C19.9242 11.7298 19.9774 10.8426 20.0625 10.1584C20.1688 9.45293 20.3283 8.93984 20.541 8.61916C20.7536 8.2771 21.0514 8.10607 21.4342 8.10607C21.7957 8.10607 22.1147 8.23434 22.3912 8.49089C22.6676 8.74743 22.8271 9.30328 22.8697 10.1584C22.9973 12.4032 23.0611 14.5731 23.0611 16.6683C23.0611 17.7372 23.0398 18.742 22.9973 19.6827C22.9547 20.602 22.9122 21.6174 22.8697 22.7291C22.8484 23.2422 22.7952 23.6377 22.7102 23.9157C22.6464 24.1936 22.5507 24.4074 22.4231 24.557C22.2955 24.7067 22.1466 24.7922 21.9765 24.8136C21.8276 24.8563 21.6468 24.8777 21.4342 24.8777C21.0514 24.8777 20.7324 24.7494 20.4772 24.4929C20.222 24.215 20.0731 23.6377 20.0306 22.7612Z" fill="#9B6BF3"/>
<path d="M40.1073 24.8777C39.767 24.8777 39.4905 24.8243 39.2779 24.7174C39.0865 24.5891 38.9376 24.4288 38.8313 24.2363C38.7249 24.0439 38.6505 23.8195 38.608 23.5629C38.5654 23.285 38.5335 22.9964 38.5123 22.6971C37.9806 23.3598 37.2894 23.9157 36.4388 24.3646C35.6094 24.8136 34.5461 25.038 33.2488 25.038C32.4194 25.038 31.5687 24.9205 30.6968 24.6853C29.8462 24.4288 29.0699 24.0012 28.3681 23.4026C27.6663 22.7826 27.0921 21.9595 26.6455 20.9333C26.1989 19.9071 25.9756 18.6137 25.9756 17.0531C25.9756 15.8345 26.1245 14.6907 26.4222 13.6218C26.72 12.5529 27.1666 11.6229 27.762 10.8319C28.3788 10.0195 29.1444 9.37811 30.0588 8.90777C30.9733 8.43744 32.0472 8.20228 33.2807 8.20228C34.3653 8.20228 35.3329 8.40537 36.1836 8.81157C37.0342 9.19639 37.7998 9.83775 38.4804 10.7357C38.4804 10.4791 38.491 10.2226 38.5123 9.96602C38.5335 9.6881 38.5867 9.44224 38.6718 9.22846C38.7781 8.99329 38.9376 8.81157 39.1503 8.6833C39.3629 8.53365 39.65 8.45882 40.0116 8.45882C40.3305 8.45882 40.6283 8.58709 40.9047 8.84364C41.1812 9.10018 41.3407 9.65603 41.3832 10.5112C41.447 11.6443 41.4896 12.6597 41.5108 13.5577C41.5534 14.4556 41.5746 15.3855 41.5746 16.3476C41.5746 17.5234 41.564 18.603 41.5427 19.5865C41.5215 20.5699 41.4683 21.6174 41.3832 22.7291C41.3407 23.2209 41.2769 23.6164 41.1918 23.9157C41.128 24.1936 41.043 24.4074 40.9366 24.557C40.8303 24.6853 40.7027 24.7708 40.5539 24.8136C40.405 24.8563 40.2561 24.8777 40.1073 24.8777ZM38.3847 16.7324C38.3847 15.6207 38.2145 14.7121 37.8743 14.0066C37.5553 13.3011 37.1406 12.756 36.6302 12.3711C36.141 11.9649 35.6094 11.687 35.0352 11.5374C34.461 11.3877 33.9293 11.3129 33.4402 11.3129C32.6746 11.3129 32.0153 11.4518 31.4624 11.7298C30.9307 12.0077 30.4948 12.3925 30.1545 12.8842C29.8143 13.3546 29.5591 13.9211 29.3889 14.5838C29.2401 15.2252 29.1656 15.9307 29.1656 16.7003C29.1656 18.5817 29.5697 19.9713 30.3778 20.8692C31.2072 21.7671 32.3237 22.2161 33.7273 22.2161C34.5567 22.2161 35.2585 22.0771 35.8327 21.7992C36.4281 21.4999 36.9066 21.1044 37.2682 20.6126C37.651 20.1209 37.9274 19.5437 38.0976 18.881C38.289 18.1968 38.3847 17.4807 38.3847 16.7324Z" fill="#9B6BF3"/>
<path d="M48.8166 29.3672C48.8166 29.7734 48.806 30.1583 48.7847 30.5217C48.7635 30.9065 48.689 31.2486 48.5614 31.5479C48.4551 31.8472 48.285 32.0823 48.051 32.2534C47.8384 32.4458 47.53 32.542 47.126 32.542C46.6581 32.542 46.2647 32.371 45.9457 32.0289C45.6479 31.7082 45.4778 31.131 45.4353 30.2972C45.414 29.7628 45.3821 29.1107 45.3396 28.3411C45.297 27.5714 45.2545 26.759 45.212 25.9039C45.1907 25.0487 45.1588 24.1936 45.1163 23.3384C45.095 22.4833 45.0844 21.6923 45.0844 20.9654C45.0844 18.4641 45.2545 16.401 45.5948 14.7762C45.9563 13.1515 46.488 11.858 47.1898 10.896C47.8915 9.93396 48.7528 9.26052 49.7736 8.87571C50.8157 8.49089 52.0173 8.29848 53.3783 8.29848C54.4629 8.29848 55.4837 8.46951 56.4407 8.81157C57.3977 9.13225 58.2271 9.64534 58.9289 10.3508C59.6519 11.035 60.2261 11.9329 60.6515 13.0446C61.0768 14.1349 61.2895 15.4497 61.2895 16.9889C61.2895 18.2717 61.0662 19.4047 60.6196 20.3882C60.1942 21.3716 59.5988 22.2054 58.8332 22.8895C58.0676 23.5522 57.1638 24.0653 56.1217 24.4288C55.1009 24.7708 54.0057 24.9418 52.836 24.9418C51.8365 24.9418 50.9327 24.7387 50.1245 24.3325C49.3377 23.905 48.7741 23.4453 48.4338 22.9536C48.5402 24.1508 48.6252 25.2625 48.689 26.2887C48.7741 27.3149 48.8166 28.3411 48.8166 29.3672ZM53.2188 11.5053C52.4745 11.5053 51.8259 11.6336 51.2729 11.8901C50.7413 12.1467 50.3053 12.4994 49.965 12.9484C49.6248 13.3973 49.3696 13.9318 49.1994 14.5518C49.0506 15.1718 48.9761 15.8452 48.9761 16.5721C48.9761 17.2776 49.0399 17.951 49.1675 18.5924C49.3164 19.2123 49.5503 19.7575 49.8693 20.2278C50.1883 20.6982 50.6137 21.0723 51.1453 21.3502C51.677 21.6281 52.3256 21.7671 53.0912 21.7671C53.6867 21.7671 54.2609 21.6923 54.8138 21.5426C55.3667 21.3716 55.8559 21.0937 56.2812 20.7089C56.7278 20.324 57.0787 19.8109 57.3339 19.1696C57.6103 18.5282 57.7486 17.7265 57.7486 16.7645C57.7486 15.781 57.6103 14.958 57.3339 14.2952C57.0787 13.6111 56.7278 13.0659 56.2812 12.6597C55.8559 12.2322 55.3667 11.9329 54.8138 11.7618C54.2821 11.5908 53.7505 11.5053 53.2188 11.5053Z" fill="#9B6BF3"/>
<path d="M71.8296 18.8489C71.0853 18.8489 70.2984 18.7955 69.469 18.6886C68.6609 18.5603 67.7783 18.3037 66.8213 17.9189C67.0127 19.223 67.5444 20.2064 68.4163 20.8692C69.3095 21.5319 70.5855 21.8633 72.2443 21.8633C72.8398 21.8633 73.3714 21.8312 73.8393 21.7671C74.3284 21.6816 74.7537 21.5961 75.1153 21.5106C75.4768 21.4037 75.7958 21.3181 76.0723 21.254C76.3487 21.1685 76.6039 21.1257 76.8379 21.1257C77.1356 21.1257 77.4227 21.2219 77.6992 21.4144C77.9756 21.5854 78.1138 21.8847 78.1138 22.3123C78.1138 22.8467 77.8906 23.285 77.444 23.627C77.0186 23.9691 76.487 24.247 75.849 24.4608C75.2322 24.6532 74.573 24.7815 73.8712 24.8456C73.1694 24.9312 72.5527 24.9739 72.021 24.9739C70.7663 24.9739 69.6072 24.8029 68.5439 24.4608C67.5019 24.1188 66.598 23.6057 65.8324 22.9216C65.0668 22.2161 64.4714 21.3502 64.046 20.324C63.6207 19.2979 63.408 18.1006 63.408 16.7324C63.408 15.4069 63.6101 14.2311 64.0141 13.2049C64.4395 12.1787 65.0137 11.3129 65.7367 10.6074C66.4598 9.90189 67.3105 9.36742 68.2887 9.00398C69.2882 8.64054 70.3622 8.45882 71.5106 8.45882C72.4038 8.45882 73.2651 8.5764 74.0945 8.81157C74.9451 9.04674 75.6895 9.39949 76.3275 9.86982C76.9867 10.3402 77.5078 10.9388 77.8905 11.6656C78.2946 12.3711 78.4967 13.2049 78.4967 14.1669C78.4967 15.0221 78.3372 15.749 78.0182 16.3476C77.6992 16.9462 77.2419 17.4272 76.6465 17.7906C76.0723 18.1541 75.3705 18.4213 74.5411 18.5924C73.7329 18.7634 72.8291 18.8489 71.8296 18.8489ZM71.6063 11.4091C71.0321 11.4091 70.4792 11.4839 69.9475 11.6336C69.4158 11.7618 68.9267 11.9863 68.4801 12.307C68.0548 12.6063 67.6933 13.0125 67.3955 13.5256C67.0978 14.0173 66.8958 14.6373 66.7894 15.3855C67.5975 15.749 68.3844 16.0055 69.15 16.1552C69.9156 16.2834 70.7237 16.3476 71.5744 16.3476C72.8291 16.3476 73.7542 16.1979 74.3497 15.8986C74.9664 15.5779 75.2748 15.0114 75.2748 14.199C75.2748 13.4508 74.9877 12.7987 74.4135 12.2429C73.8605 11.687 72.9248 11.4091 71.6063 11.4091Z" fill="#9B6BF3"/>
<path d="M84.3004 22.665C84.2366 21.3181 84.1941 19.7254 84.1728 17.8869C84.1728 16.0269 84.1728 13.9211 84.1728 11.5694C83.9602 11.5908 83.705 11.6015 83.4072 11.6015C83.1308 11.6015 82.9075 11.6015 82.7373 11.6015C82.3545 11.6015 82.0036 11.5908 81.6846 11.5694C81.3869 11.5481 81.1211 11.4839 80.8871 11.377C80.6532 11.2701 80.4724 11.1205 80.3448 10.9281C80.2172 10.7143 80.1535 10.4257 80.1535 10.0622C80.1535 9.03605 80.919 8.52296 82.4502 8.52296C82.6842 8.52296 82.9713 8.52296 83.3115 8.52296C83.6518 8.52296 83.9389 8.54434 84.1728 8.58709C84.1728 7.45402 84.1941 6.54542 84.2366 5.8613C84.2792 5.17718 84.3536 4.6534 84.4599 4.28996C84.5875 3.90515 84.747 3.65929 84.9384 3.5524C85.1511 3.42412 85.4169 3.35999 85.7359 3.35999C86.0762 3.35999 86.3526 3.47757 86.5653 3.71274C86.778 3.9479 86.9375 4.24721 87.0438 4.61064C87.1714 4.97408 87.2458 5.38028 87.2671 5.82923C87.3096 6.27819 87.3309 6.71645 87.3309 7.14403C87.3309 7.44333 87.3203 7.72125 87.299 7.9778C87.299 8.21297 87.299 8.42675 87.299 8.61916C87.5967 8.53365 87.9051 8.49089 88.2241 8.49089C88.5431 8.46951 88.8515 8.45882 89.1492 8.45882C89.9361 8.45882 90.5421 8.58709 90.9675 8.84364C91.3928 9.0788 91.6055 9.47431 91.6055 10.0302C91.6055 10.3722 91.531 10.6501 91.3822 10.8639C91.2333 11.0563 91.0313 11.206 90.7761 11.3129C90.5422 11.4198 90.255 11.4946 89.9148 11.5374C89.5958 11.5587 89.2449 11.5694 88.8621 11.5694C88.6494 11.5694 88.4049 11.5694 88.1284 11.5694C87.8519 11.5694 87.5967 11.5481 87.3628 11.5053C87.3628 12.6384 87.3628 13.6752 87.3628 14.6159C87.3628 15.5566 87.3522 16.4652 87.3309 17.3417C87.3096 18.1968 87.2884 19.052 87.2671 19.9071C87.2458 20.7623 87.2139 21.6709 87.1714 22.6329C87.1501 23.146 87.097 23.5415 87.0119 23.8195C86.9481 24.0974 86.8524 24.3112 86.7248 24.4608C86.5972 24.6105 86.4483 24.7067 86.2782 24.7494C86.1293 24.7708 85.9486 24.7815 85.7359 24.7815C85.3531 24.7815 85.0235 24.6532 84.747 24.3967C84.4918 24.1188 84.343 23.5415 84.3004 22.665Z" fill="#9B6BF3"/>
<path d="M99.8752 8.00987C100.322 8.00987 100.885 8.05262 101.566 8.13814C102.246 8.20228 102.895 8.34124 103.512 8.55503C104.129 8.74743 104.66 9.02536 105.107 9.3888C105.553 9.75224 105.777 10.2119 105.777 10.7677C105.777 11.0884 105.681 11.3663 105.49 11.6015C105.319 11.8367 105.043 11.9542 104.66 11.9542C104.384 11.9542 104.065 11.9115 103.703 11.826C103.363 11.7405 102.98 11.6443 102.555 11.5374C102.151 11.4091 101.704 11.3022 101.215 11.2167C100.747 11.1312 100.247 11.0884 99.7157 11.0884C98.8225 11.0884 98.0889 11.2274 97.5147 11.5053C96.9617 11.7832 96.6853 12.2215 96.6853 12.8201C96.6853 13.1621 96.781 13.4508 96.9724 13.6859C97.185 13.9211 97.4615 14.1349 97.8018 14.3273C98.1633 14.4983 98.578 14.648 99.0458 14.7762C99.535 14.9045 100.045 15.0328 100.577 15.1611C101.236 15.3321 101.885 15.5245 102.523 15.7383C103.182 15.9521 103.767 16.2514 104.277 16.6362C104.788 16.9996 105.202 17.47 105.521 18.0472C105.84 18.603 106 19.2979 106 20.1316C106 21.7137 105.405 22.975 104.214 23.9157C103.023 24.8349 101.268 25.2946 98.9501 25.2946C98.4398 25.2946 97.8336 25.2518 97.1319 25.1663C96.4301 25.1022 95.7708 24.9632 95.1541 24.7494C94.5373 24.557 94.0057 24.2791 93.5591 23.9157C93.1338 23.5308 92.9211 23.0284 92.9211 22.4085C92.9211 21.9809 93.0168 21.6602 93.2082 21.4464C93.4208 21.2113 93.676 21.0937 93.9738 21.0937C94.2077 21.0937 94.4523 21.1685 94.7075 21.3181C94.9627 21.4678 95.271 21.6281 95.6326 21.7992C95.9941 21.9702 96.4301 22.1305 96.9405 22.2802C97.4509 22.4298 98.0782 22.5047 98.8225 22.5047C99.099 22.5047 99.4605 22.494 99.9071 22.4726C100.354 22.4298 100.79 22.3336 101.215 22.184C101.662 22.0343 102.034 21.8312 102.332 21.5747C102.651 21.2968 102.81 20.9119 102.81 20.4202C102.81 20.0354 102.704 19.7147 102.491 19.4582C102.278 19.1803 101.991 18.9451 101.63 18.7527C101.268 18.5603 100.843 18.3999 100.354 18.2717C99.8859 18.122 99.3861 17.9724 98.8544 17.8227C98.2377 17.6517 97.6104 17.4593 96.9724 17.2455C96.3556 17.0317 95.7921 16.7538 95.2817 16.4117C94.7713 16.0697 94.3566 15.6421 94.0376 15.129C93.7186 14.5945 93.5591 13.9425 93.5591 13.1728C93.5591 12.446 93.7079 11.7725 94.0057 11.1525C94.3034 10.5112 94.7287 9.95533 95.2817 9.485C95.8346 9.01467 96.4939 8.65123 97.2595 8.39468C98.0463 8.13814 98.9182 8.00987 99.8752 8.00987Z" fill="#9B6BF3"/>
</svg>
