<svg width="222" height="217" viewBox="0 0 222 217" fill="none" xmlns="http://www.w3.org/2000/svg">
<path d="M165.876 50.3889C146.933 33.8359 121.291 50.3889 96.3792 85.2224C71.467 120.056 59.6213 105.396 38.4439 120.749C17.2665 136.102 11.6023 198.993 86.2146 192.879C160.827 186.764 215.395 93.6024 165.876 50.3889Z" fill="#2E3641"/>
<path d="M188.879 216.823C188.879 216.896 152.959 216.958 108.665 216.958C64.3699 216.958 28.4346 216.896 28.4346 216.823C28.4346 216.751 64.3493 216.689 108.665 216.689C152.98 216.689 188.879 216.756 188.879 216.823Z" fill="#263238"/>
<path d="M153.88 153.498C145.888 147.917 144.077 137.556 144.393 128.239C144.445 126.688 144.274 125.043 145.014 123.682C145.753 122.322 147.481 121.385 148.873 122.037C150.026 122.58 150.528 123.925 151.175 125.037C152.037 126.519 153.302 127.726 154.821 128.519C155.809 129.036 157.035 129.346 158.013 128.808C159.358 128.069 159.513 126.222 159.503 124.67C159.503 121.784 159.485 118.901 159.451 116.021C159.358 114.475 159.515 112.924 159.917 111.428C160.398 109.959 161.468 108.598 162.932 108.184C164.396 107.771 166.222 108.624 166.553 110.135C166.61 110.774 166.626 111.417 166.6 112.059C166.641 112.705 166.941 113.414 167.546 113.611C168.152 113.807 168.783 113.357 169.248 112.902C170.841 111.35 171.928 109.328 172.936 107.331C173.945 105.334 174.933 103.281 176.382 101.579C177.83 99.8769 179.832 98.5268 182.072 98.3975C184.311 98.2682 186.644 99.6442 187.203 101.817C187.762 103.989 186.494 106.208 185.134 107.972C183.081 110.591 180.661 112.899 177.949 114.826C177.419 115.115 176.997 115.567 176.744 116.114C176.407 117.149 177.385 118.183 178.404 118.509C179.558 118.892 180.809 118.773 182.025 118.918C183.241 119.063 184.534 119.59 184.994 120.728C185.625 122.311 184.301 123.967 183.003 125.053C180.396 127.225 177.435 128.935 174.25 130.107C173.112 130.521 171.917 130.888 170.997 131.684C170.076 132.481 169.528 133.873 170.081 134.964C170.635 136.055 172.057 136.402 173.252 136.18C174.447 135.957 175.507 135.316 176.645 134.886C178.771 134.085 181.513 134.229 182.853 136.066C183.268 136.698 183.53 137.419 183.62 138.17C183.71 138.921 183.624 139.683 183.37 140.395C182.852 141.813 182.055 143.113 181.027 144.218C177.639 148.266 173.237 151.342 168.271 153.131C163.341 154.838 158.773 155.303 153.875 153.508" fill="#9B6BF3"/>
<path d="M184.927 99.6752C184.927 99.6752 184.88 99.7269 184.777 99.8201L184.317 100.229C183.913 100.591 183.318 101.118 182.568 101.817C180.442 103.791 178.467 105.923 176.661 108.195C175.507 109.628 174.312 111.252 173.04 113.016C171.767 114.78 170.453 116.683 169.15 118.706C167.76 120.839 166.487 123.046 165.338 125.317C164.738 126.501 164.21 127.738 163.667 129L162.063 132.853C159.949 137.708 158.109 142.676 156.549 147.736C155.293 151.875 154.427 156.123 153.963 160.424C153.662 163.327 153.613 166.25 153.818 169.161C153.901 170.196 153.978 170.987 154.051 171.525C154.082 171.784 154.102 171.991 154.123 172.141V172.353C154.101 172.286 154.085 172.216 154.076 172.146C154.051 171.996 154.019 171.794 153.978 171.536C153.885 171.018 153.787 170.201 153.694 169.166C153.444 166.25 153.461 163.317 153.745 160.404C154.181 156.084 155.028 151.816 156.275 147.658C157.821 142.584 159.657 137.603 161.774 132.74L163.418 128.901C163.962 127.644 164.494 126.398 165.1 125.208C166.258 122.93 167.541 120.718 168.943 118.582C170.267 116.513 171.602 114.64 172.859 112.892C174.116 111.143 175.331 109.509 176.48 108.081C178.304 105.816 180.305 103.698 182.465 101.75C183.23 101.062 183.841 100.544 184.254 100.198L184.736 99.8097C184.794 99.7584 184.859 99.7133 184.927 99.6752Z" fill="#263238"/>
<path d="M165.167 125.198C165.094 124.985 165.044 124.764 165.017 124.541C164.934 124.111 164.841 123.506 164.732 122.72C164.51 121.168 164.282 119.042 164.039 116.689C163.796 114.335 163.522 112.204 163.294 110.667C163.175 109.902 163.072 109.286 163 108.857C162.943 108.637 162.914 108.411 162.912 108.184C163.001 108.392 163.065 108.609 163.103 108.831C163.217 109.255 163.346 109.866 163.491 110.636C163.786 112.188 164.075 114.299 164.319 116.657C164.562 119.016 164.769 121.085 164.929 122.694C165.007 123.418 165.074 124.034 165.126 124.525C165.166 124.747 165.18 124.973 165.167 125.198Z" fill="#263238"/>
<path d="M185.072 121.484C184.82 121.539 184.564 121.57 184.306 121.577C183.789 121.623 183.054 121.685 182.144 121.789C180.323 121.985 177.819 122.348 175.073 122.865C172.326 123.382 169.859 123.967 168.084 124.417C167.2 124.644 166.486 124.851 166.015 124.991C165.764 125.08 165.504 125.143 165.239 125.177C165.478 125.057 165.728 124.958 165.984 124.882C166.47 124.712 167.174 124.474 168.053 124.22C169.817 123.703 172.285 123.087 175.042 122.56C177.377 122.113 179.734 121.785 182.103 121.577C183.018 121.499 183.758 121.468 184.275 121.458C184.541 121.44 184.808 121.448 185.072 121.484Z" fill="#263238"/>
<path d="M156.528 147.296C156.473 147.221 156.428 147.139 156.394 147.053L156.052 146.334C155.758 145.708 155.359 144.782 154.883 143.649C153.921 141.373 152.695 138.187 151.392 134.648C150.088 131.11 148.888 127.924 147.978 125.622C147.533 124.505 147.166 123.589 146.891 122.906L146.602 122.167C146.562 122.081 146.534 121.991 146.519 121.898C146.574 121.972 146.619 122.054 146.654 122.141L146.995 122.86C147.285 123.486 147.688 124.411 148.164 125.544C149.126 127.82 150.352 131.007 151.656 134.545C152.959 138.083 154.159 141.27 155.07 143.571C155.515 144.689 155.882 145.604 156.151 146.287C156.27 146.582 156.368 146.805 156.446 147.027C156.486 147.112 156.514 147.203 156.528 147.296Z" fill="#263238"/>
<path d="M182.951 138.776C182.868 138.824 182.779 138.86 182.687 138.885L181.922 139.144L179.092 140.059C176.702 140.835 173.402 141.942 169.781 143.163C166.16 144.384 162.844 145.47 160.439 146.194C159.239 146.561 158.261 146.841 157.584 147.027L156.803 147.229C156.712 147.258 156.618 147.277 156.523 147.286C156.606 147.238 156.695 147.202 156.787 147.177L157.553 146.918L160.382 146.003C162.772 145.227 166.072 144.12 169.693 142.899C173.314 141.678 176.625 140.592 179.03 139.868C180.235 139.501 181.208 139.221 181.891 139.035L182.672 138.833C182.762 138.804 182.856 138.785 182.951 138.776Z" fill="#263238"/>
<path d="M172.171 13.3L169.507 14.2518L168.364 10.7705C166.263 4.35104 159.57 0.942174 153.419 3.10957C147.269 5.27697 143.995 12.3171 146.095 18.7366L147.238 22.2179L144.564 23.1748C143.544 23.5704 142.716 24.3437 142.251 25.334C141.787 26.3243 141.722 27.4555 142.07 28.4925L149.483 51.1441C149.637 51.6574 149.892 52.1345 150.234 52.5472C150.576 52.9598 150.997 53.2995 151.473 53.5461C151.949 53.7926 152.469 53.9411 153.004 53.9825C153.538 54.024 154.075 53.9576 154.583 53.7874L182.19 43.9125C183.224 43.5177 184.063 42.7375 184.533 41.7361C185.003 40.7348 185.066 39.5902 184.71 38.5432L177.292 15.8915C177.134 15.3797 176.875 14.9048 176.529 14.4954C176.184 14.086 175.759 13.7503 175.281 13.5084C174.804 13.2665 174.282 13.1234 173.747 13.0876C173.213 13.0518 172.677 13.124 172.171 13.3ZM151.128 16.9209C150.562 15.2518 150.663 13.4282 151.411 11.8324C152.16 10.2365 153.497 8.99213 155.142 8.35996C155.954 8.08198 156.814 7.97052 157.671 8.0322C158.527 8.09388 159.363 8.32746 160.127 8.71898C160.891 9.11051 161.569 9.65196 162.119 10.311C162.669 10.9701 163.081 11.7333 163.33 12.5551L164.468 16.0364L152.266 20.4022L151.128 16.9209ZM166.646 37.0224L168.539 42.8056C168.574 42.9215 168.563 43.0464 168.508 43.1543C168.453 43.2622 168.359 43.3448 168.245 43.3849L165.591 44.3315C165.485 44.3608 165.372 44.3481 165.276 44.296C165.18 44.2439 165.107 44.1566 165.074 44.0522L163.165 38.2949C162.112 38.2375 161.103 37.86 160.271 37.2129C159.438 36.5658 158.824 35.6799 158.509 34.6739C158.059 33.344 158.142 31.8915 158.738 30.6207C159.335 29.3499 160.401 28.3593 161.711 27.8562C162.359 27.6351 163.044 27.5465 163.726 27.5958C164.408 27.6451 165.073 27.8311 165.682 28.143C166.29 28.4548 166.83 28.886 167.269 29.4108C167.707 29.9356 168.036 30.5434 168.234 31.1978C168.567 32.2197 168.595 33.3165 168.313 34.3538C168.032 35.3911 167.455 36.3239 166.651 37.0379L166.646 37.0224Z" fill="#9B6BF3"/>
<path d="M169.388 14.1897C169.388 14.2621 164.448 16.1192 158.303 18.3279C152.157 20.5367 147.145 22.311 147.119 22.2593C147.093 22.2075 152.059 20.335 158.209 18.121C164.36 15.9071 169.362 14.1225 169.388 14.1897Z" fill="#263238"/>
<path d="M175.254 15.1415C175.277 15.1864 175.296 15.2331 175.311 15.2812C175.352 15.3846 175.399 15.5191 175.461 15.6846C175.595 16.0623 175.781 16.5847 176.014 17.2365L178.001 23.0197C178.828 25.4716 179.816 28.3787 180.913 31.6065C181.43 33.2256 182.04 34.9119 182.609 36.6862C182.914 37.6005 183.046 38.5635 182.997 39.526C182.954 40.0266 182.811 40.5136 182.578 40.9589C182.33 41.4027 181.998 41.7944 181.601 42.1124C180.802 42.6958 179.915 43.1481 178.973 43.4522L176.309 44.4091L171.266 46.2144L162.725 49.256L156.958 51.2838L155.406 51.8011L154.992 51.9355C154.948 51.9552 154.901 51.9675 154.852 51.9718C154.852 51.9718 154.894 51.9718 154.982 51.9097L155.385 51.7493L156.937 51.1648L162.674 49.0543L171.198 45.9506L176.231 44.1298L178.895 43.1677C179.81 42.8759 180.672 42.4374 181.446 41.8693C181.815 41.5742 182.124 41.2107 182.356 40.7985C182.575 40.3867 182.707 39.9342 182.744 39.4691C182.792 38.5417 182.665 37.6136 182.372 36.7327C181.813 34.974 181.223 33.2721 180.69 31.653C179.614 28.4201 178.621 25.5026 177.835 23.0507C177.049 20.5988 176.387 18.628 175.931 17.2417C175.714 16.564 175.549 16.0364 175.414 15.6536L175.29 15.2398C175.274 15.2084 175.262 15.1755 175.254 15.1415Z" fill="#263238"/>
<path d="M160.687 8.00823C160.687 8.00823 160.413 7.87374 159.906 7.66682C159.183 7.38919 158.419 7.2353 157.645 7.21162C156.499 7.17229 155.357 7.38783 154.304 7.8427C153.023 8.4091 151.927 9.32525 151.143 10.486C150.354 11.6434 149.93 13.0112 149.928 14.4121C149.938 15.5604 150.113 16.7012 150.445 17.8003C150.714 18.7418 150.993 19.4918 151.179 20.0143C151.289 20.2796 151.379 20.5528 151.448 20.8316C151.302 20.5835 151.179 20.3219 151.081 20.0505C150.869 19.5332 150.564 18.7987 150.264 17.852C149.896 16.7414 149.695 15.582 149.669 14.4121C149.655 12.9583 150.089 11.5353 150.91 10.336C151.722 9.13285 152.862 8.18837 154.195 7.61509C155.282 7.15773 156.458 6.95598 157.635 7.0254C158.426 7.06568 159.202 7.24974 159.927 7.56854C160.12 7.6579 160.307 7.76165 160.485 7.87891C160.559 7.91123 160.627 7.95487 160.687 8.00823Z" fill="#263238"/>
<path d="M160.925 28.2493C161.008 28.1993 161.094 28.1561 161.184 28.12C161.443 28.0032 161.711 27.908 161.986 27.8355C162.422 27.7068 162.871 27.6304 163.325 27.6079C163.943 27.5747 164.561 27.668 165.141 27.8821C166.465 28.3476 167.681 29.6977 168.281 31.503C168.569 32.4718 168.569 33.5034 168.281 34.4722C167.962 35.5237 167.39 36.481 166.615 37.2603L166.646 37.1207C167.334 39.0087 168.084 41.0572 168.86 43.1935L168.907 43.3228L168.777 43.3694L167.593 43.7625L165.006 44.6264L164.877 44.6678L164.836 44.5384C164.127 42.3969 163.351 40.4002 162.767 38.4397L162.88 38.5277C161.869 38.4437 160.905 38.0641 160.108 37.4362C159.387 36.8807 158.795 36.1746 158.375 35.3671C157.996 34.651 157.807 33.8494 157.827 33.0393C157.851 32.2114 158.057 31.399 158.432 30.6603C158.807 29.9217 159.34 29.275 159.994 28.7666C160.263 28.5481 160.565 28.3735 160.889 28.2493C160.597 28.4227 160.314 28.6109 160.041 28.8132C159.322 29.4209 158.772 30.2028 158.442 31.084C158.159 31.7485 158.027 32.4675 158.055 33.1892C158.082 33.911 158.269 34.6176 158.603 35.2585C159.016 36.0353 159.593 36.7131 160.294 37.2448C161.054 37.8416 161.974 38.2014 162.937 38.2794H163.025L163.051 38.357C163.62 40.2812 164.401 42.2935 165.12 44.4453L164.95 44.3626L167.536 43.4987L168.715 43.1004L168.633 43.2763C167.862 41.1399 167.117 39.0863 166.434 37.1983V37.1207L166.496 37.0586C167.248 36.3116 167.809 35.3942 168.131 34.3843C168.405 33.4575 168.405 32.4711 168.131 31.5444C167.567 29.8063 166.403 28.4873 165.141 28.0217C164.582 27.8063 163.986 27.706 163.387 27.7269C162.941 27.7371 162.496 27.7979 162.063 27.9079C161.292 28.0993 160.93 28.2752 160.925 28.2493Z" fill="#263238"/>
<path d="M144.936 177.608L93.2651 177.37C90.2811 177.354 87.4257 176.154 85.3259 174.034C83.2261 171.914 82.0536 169.047 82.066 166.063L82.6143 36.531C82.6204 35.0526 82.9178 33.59 83.4895 32.2266C84.0612 30.8632 84.896 29.6259 85.9462 28.5854C86.9963 27.5448 88.2413 26.7214 89.6098 26.1623C90.9784 25.6032 92.4437 25.3192 93.922 25.3267L145.588 25.5647C148.572 25.5797 151.428 26.7785 153.529 28.8977C155.629 31.0169 156.803 33.8832 156.792 36.8672L156.244 166.394C156.238 167.873 155.94 169.336 155.369 170.7C154.797 172.064 153.963 173.302 152.913 174.343C151.863 175.384 150.618 176.209 149.249 176.769C147.881 177.329 146.415 177.615 144.936 177.608Z" fill="#455A64"/>
<path d="M145.51 30.0184H135.496C135.169 30.0245 134.847 30.0949 134.547 30.2255C134.248 30.3562 133.977 30.5446 133.75 30.78C133.523 31.0154 133.345 31.2931 133.226 31.5973C133.106 31.9016 133.048 32.2263 133.054 32.5531V34.3687C133.06 34.6953 133.002 35.0198 132.883 35.3237C132.763 35.6277 132.585 35.9051 132.358 36.14C132.131 36.375 131.86 36.5629 131.561 36.693C131.261 36.8231 130.939 36.8929 130.613 36.8982L111.091 36.8103C110.43 36.7927 109.804 36.5137 109.349 36.0346C108.894 35.5555 108.648 34.9154 108.665 34.2549V32.4393C108.681 31.7797 108.436 31.1404 107.982 30.6614C107.528 30.1825 106.903 29.9029 106.244 29.8839H102.721L93.9531 29.8426C91.8676 29.8301 89.8622 30.6446 88.376 32.1076C86.8897 33.5706 86.0437 35.5629 86.0232 37.6483L85.5059 164.082C85.5012 165.116 85.7002 166.142 86.0917 167.099C86.4833 168.057 87.0596 168.928 87.7878 169.663C88.516 170.398 89.3818 170.982 90.3358 171.382C91.2898 171.783 92.3133 171.991 93.3479 171.996L144.91 172.234C145.946 172.239 146.972 172.039 147.93 171.648C148.888 171.256 149.76 170.679 150.495 169.951C151.231 169.222 151.815 168.356 152.216 167.401C152.616 166.446 152.825 165.422 152.83 164.387L153.347 37.9535C153.359 35.8622 152.541 33.8516 151.071 32.3636C149.602 30.8756 147.602 30.0321 145.51 30.0184Z" fill="#1F2630"/>
<path d="M138.574 155.365L100.233 155.2C99.8346 155.2 99.5139 154.765 99.5191 154.238L99.5605 144.208C99.5605 143.69 99.8864 143.246 100.285 143.246L138.625 143.421C138.846 143.46 139.044 143.582 139.177 143.762C139.31 143.942 139.368 144.167 139.339 144.389L139.303 154.408C139.303 154.941 138.972 155.371 138.574 155.365Z" fill="#9B6BF3"/>
<g opacity="0.7">
<path d="M106.488 147.601C106.453 147.309 106.313 147.082 106.067 146.92C105.82 146.758 105.518 146.677 105.16 146.677C104.898 146.677 104.669 146.72 104.473 146.804C104.278 146.889 104.126 147.006 104.016 147.154C103.909 147.302 103.855 147.47 103.855 147.659C103.855 147.817 103.892 147.953 103.967 148.066C104.044 148.178 104.142 148.271 104.262 148.346C104.381 148.42 104.506 148.48 104.637 148.528C104.768 148.574 104.888 148.612 104.998 148.641L105.599 148.803C105.753 148.843 105.924 148.899 106.113 148.97C106.303 149.041 106.485 149.139 106.659 149.262C106.834 149.383 106.978 149.539 107.092 149.729C107.205 149.92 107.262 150.154 107.262 150.431C107.262 150.751 107.178 151.039 107.011 151.297C106.845 151.555 106.603 151.76 106.283 151.912C105.965 152.065 105.58 152.141 105.125 152.141C104.702 152.141 104.335 152.072 104.025 151.936C103.717 151.799 103.475 151.608 103.297 151.364C103.122 151.119 103.023 150.835 103 150.512H103.739C103.758 150.735 103.834 150.92 103.964 151.066C104.097 151.211 104.265 151.319 104.467 151.39C104.671 151.459 104.89 151.494 105.125 151.494C105.399 151.494 105.644 151.449 105.862 151.361C106.079 151.27 106.251 151.145 106.378 150.986C106.505 150.824 106.569 150.635 106.569 150.42C106.569 150.223 106.514 150.063 106.404 149.94C106.295 149.817 106.15 149.717 105.971 149.64C105.792 149.563 105.599 149.496 105.391 149.438L104.663 149.23C104.201 149.097 103.835 148.908 103.566 148.661C103.296 148.415 103.162 148.092 103.162 147.694C103.162 147.363 103.251 147.074 103.43 146.828C103.611 146.579 103.854 146.387 104.158 146.25C104.464 146.111 104.806 146.042 105.183 146.042C105.564 146.042 105.903 146.11 106.199 146.247C106.496 146.382 106.731 146.567 106.904 146.802C107.079 147.036 107.172 147.303 107.181 147.601H106.488Z" fill="#E8E8E3"/>
<path d="M109.155 146.123V152.037H108.439V146.123H109.155Z" fill="#E8E8E3"/>
<path d="M115.281 146.123V152.037H114.588L111.365 147.393H111.307V152.037H110.591V146.123H111.284L114.518 150.778H114.576V146.123H115.281Z" fill="#E8E8E3"/>
<path d="M120.756 147.971C120.693 147.777 120.609 147.602 120.505 147.448C120.403 147.292 120.281 147.16 120.138 147.05C119.998 146.94 119.838 146.856 119.659 146.799C119.48 146.741 119.284 146.712 119.07 146.712C118.719 146.712 118.401 146.802 118.114 146.983C117.827 147.164 117.599 147.431 117.43 147.783C117.26 148.136 117.176 148.568 117.176 149.08C117.176 149.592 117.261 150.024 117.433 150.376C117.604 150.729 117.836 150.995 118.128 151.176C118.421 151.357 118.75 151.448 119.116 151.448C119.455 151.448 119.753 151.375 120.011 151.231C120.271 151.085 120.473 150.879 120.618 150.613C120.764 150.345 120.837 150.031 120.837 149.669L121.056 149.715H119.278V149.08H121.53V149.715C121.53 150.202 121.426 150.626 121.218 150.986C121.012 151.346 120.727 151.625 120.363 151.823C120.002 152.019 119.586 152.117 119.116 152.117C118.592 152.117 118.132 151.994 117.736 151.748C117.341 151.501 117.033 151.151 116.812 150.697C116.592 150.243 116.483 149.704 116.483 149.08C116.483 148.612 116.545 148.191 116.67 147.818C116.797 147.443 116.976 147.123 117.207 146.859C117.438 146.596 117.712 146.393 118.027 146.253C118.343 146.112 118.691 146.042 119.07 146.042C119.382 146.042 119.672 146.089 119.942 146.184C120.213 146.276 120.455 146.408 120.667 146.579C120.88 146.749 121.058 146.952 121.201 147.188C121.343 147.423 121.441 147.684 121.495 147.971H120.756Z" fill="#E8E8E3"/>
<path d="M128.924 146.123H129.64V150.038C129.64 150.443 129.545 150.804 129.354 151.121C129.166 151.437 128.899 151.686 128.555 151.869C128.21 152.05 127.806 152.141 127.342 152.141C126.878 152.141 126.474 152.05 126.129 151.869C125.785 151.686 125.517 151.437 125.326 151.121C125.138 150.804 125.043 150.443 125.043 150.038V146.123H125.76V149.981C125.76 150.269 125.823 150.526 125.95 150.752C126.077 150.975 126.258 151.151 126.493 151.28C126.73 151.407 127.013 151.471 127.342 151.471C127.671 151.471 127.954 151.407 128.191 151.28C128.428 151.151 128.609 150.975 128.734 150.752C128.861 150.526 128.924 150.269 128.924 149.981V146.123Z" fill="#E8E8E3"/>
<path d="M131.07 152.037V146.123H133.069C133.533 146.123 133.912 146.207 134.206 146.374C134.503 146.54 134.722 146.764 134.865 147.047C135.007 147.33 135.078 147.646 135.078 147.994C135.078 148.343 135.007 148.659 134.865 148.944C134.724 149.229 134.507 149.456 134.212 149.626C133.918 149.793 133.54 149.877 133.08 149.877H131.648V149.241H133.057C133.375 149.241 133.63 149.187 133.822 149.077C134.015 148.967 134.154 148.819 134.241 148.632C134.329 148.444 134.374 148.231 134.374 147.994C134.374 147.757 134.329 147.546 134.241 147.359C134.154 147.172 134.014 147.026 133.819 146.92C133.625 146.812 133.367 146.758 133.045 146.758H131.787V152.037H131.07Z" fill="#E8E8E3"/>
</g>
<path d="M107.88 67.185L94.5762 67.1247L94.5651 69.5662L107.869 69.6266L107.88 67.185Z" fill="#9B6BF3"/>
<path opacity="0.1" d="M107.88 67.185L94.5762 67.1247L94.5651 69.5662L107.869 69.6266L107.88 67.185Z" fill="black"/>
<path d="M146.881 82.1757C146.986 82.1651 147.088 82.1408 147.186 82.1033C147.329 82.0473 147.454 81.9521 147.545 81.8285C147.637 81.705 147.692 81.5582 147.704 81.4049C147.704 80.5824 147.704 79.3824 147.704 77.8409C147.704 77.0701 147.704 76.2063 147.704 75.2545C147.704 75.0217 147.704 74.7786 147.704 74.5355C147.737 74.2995 147.686 74.0593 147.559 73.8578C147.488 73.7612 147.395 73.6824 147.288 73.6277C147.181 73.5729 147.063 73.5437 146.943 73.5423H146.136H138.662L95.3963 73.3819C95.2856 73.38 95.176 73.4049 95.077 73.4545C94.9779 73.504 94.8923 73.5767 94.8273 73.6664C94.7024 73.8688 94.6547 74.1094 94.6928 74.3441C94.6928 74.8613 94.6928 75.3786 94.6928 75.8959C94.6928 76.9305 94.6928 77.965 94.6928 78.9996C94.6928 79.5169 94.6928 80.0341 94.6928 80.5514C94.6714 80.7923 94.6714 81.0347 94.6928 81.2756C94.72 81.3789 94.7705 81.4746 94.8405 81.5553C94.9104 81.636 94.9979 81.6996 95.0963 81.7412C95.1982 81.7817 95.3074 81.8011 95.417 81.7981H98.05L109.539 81.8601L128.988 81.9791L142.101 82.0826L145.665 82.1239H146.591C146.804 82.1239 146.907 82.1239 146.907 82.1239H146.591H145.665H142.101H128.988L109.539 82.0619L98.05 82.0153H95.417C95.2721 82.0212 95.1276 81.9965 94.9928 81.9429C94.8566 81.8848 94.7355 81.7963 94.6387 81.6842C94.5419 81.5722 94.4719 81.4395 94.4342 81.2963C94.4042 81.1605 94.3938 81.0212 94.4032 80.8825V80.4997C94.4032 79.9824 94.4032 79.4651 94.4032 78.9478C94.4032 77.9133 94.4032 76.8787 94.4032 75.8442C94.4032 75.3269 94.4032 74.8096 94.4032 74.2923C94.3933 74.1546 94.3933 74.0163 94.4032 73.8785C94.4225 73.7263 94.4814 73.5819 94.5739 73.4595C94.6631 73.3347 94.7812 73.2332 94.9181 73.1639C95.055 73.0945 95.2067 73.0593 95.3601 73.0612L138.625 73.2992L146.1 73.3509H146.907C147.049 73.351 147.189 73.3854 147.315 73.4511C147.441 73.5168 147.55 73.612 147.631 73.7285C147.777 73.9534 147.836 74.2237 147.797 74.4889C147.797 74.732 147.797 74.9751 147.797 75.2079C147.797 76.1494 147.797 77.0132 147.797 77.7943C147.797 79.3462 147.76 80.5359 147.75 81.3635C147.737 81.5227 147.68 81.6749 147.583 81.8023C147.487 81.9296 147.357 82.0269 147.207 82.0826C147.109 82.1432 146.996 82.1755 146.881 82.1757Z" fill="#E0E0E0"/>
<path d="M122.905 75.9787H98.5725V78.2599H122.905V75.9787Z" fill="#9B6BF3"/>
<path opacity="0.2" d="M122.905 75.9787H98.5725V78.2599H122.905V75.9787Z" fill="#FCFCFC"/>
<path d="M107.79 89.4584L94.4854 89.398L94.4743 91.8395L107.779 91.8999L107.79 89.4584Z" fill="#9B6BF3"/>
<path opacity="0.1" d="M107.79 89.4584L94.4854 89.398L94.4743 91.8395L107.779 91.8999L107.79 89.4584Z" fill="black"/>
<path d="M146.545 104.45C146.649 104.437 146.753 104.418 146.855 104.393C147 104.347 147.133 104.27 147.245 104.169C147.357 104.067 147.447 103.942 147.507 103.803C147.588 103.594 147.62 103.369 147.6 103.146C147.6 102.898 147.6 102.629 147.6 102.329C147.6 101.729 147.6 101.046 147.6 100.26V96.975C147.625 96.7372 147.572 96.4978 147.45 96.2922C147.322 96.0814 147.122 95.9249 146.886 95.8525C146.628 95.8065 146.366 95.7926 146.105 95.8111H138.661L95.5462 95.6508C95.3143 95.6513 95.0905 95.7361 94.9164 95.8892C94.7422 96.0424 94.6297 96.2536 94.5996 96.4836C94.5996 96.975 94.5996 97.5182 94.5996 98.0354C94.5996 99.07 94.5996 100.105 94.5996 101.139C94.5996 101.656 94.5996 102.174 94.5996 102.691C94.5803 102.933 94.5907 103.176 94.6306 103.415C94.6952 103.625 94.8281 103.807 95.0082 103.932C95.1993 104.054 95.4238 104.112 95.6497 104.098H96.3687H97.8636L109.311 104.155L128.693 104.274L141.76 104.377L145.314 104.419H141.76H128.693L109.301 104.398L97.8533 104.357H95.6031C95.3233 104.373 95.0457 104.299 94.8117 104.144C94.5763 103.981 94.4045 103.742 94.3254 103.467C94.2791 103.204 94.2652 102.936 94.284 102.67C94.284 102.153 94.284 101.636 94.284 101.118C94.284 100.084 94.284 99.0493 94.284 98.0147C94.284 97.4975 94.284 96.9802 94.284 96.4629C94.3218 96.1671 94.466 95.8952 94.6898 95.6981C94.9135 95.501 95.2015 95.3923 95.4997 95.3921L138.615 95.6301L146.058 95.687C146.336 95.67 146.614 95.6891 146.886 95.7439C147.155 95.8317 147.382 96.016 147.522 96.2612C147.656 96.489 147.714 96.7535 147.688 97.0164C147.688 97.2595 147.688 97.4975 147.688 97.7354C147.688 98.6717 147.688 99.5304 147.688 100.322C147.688 101.113 147.688 101.781 147.688 102.391C147.688 102.686 147.688 102.96 147.688 103.213C147.707 103.445 147.669 103.677 147.579 103.891C147.512 104.034 147.415 104.16 147.294 104.262C147.174 104.364 147.033 104.438 146.881 104.481C146.768 104.49 146.654 104.48 146.545 104.45Z" fill="#E0E0E0"/>
<path d="M107.689 112.699L94.385 112.639L94.3739 115.08L107.678 115.141L107.689 112.699Z" fill="#9B6BF3"/>
<path opacity="0.1" d="M107.689 112.699L94.385 112.639L94.3739 115.08L107.678 115.141L107.689 112.699Z" fill="black"/>
<path d="M146.442 127.681C146.546 127.668 146.65 127.649 146.752 127.624C146.896 127.578 147.028 127.502 147.141 127.402C147.253 127.301 147.343 127.177 147.404 127.039C147.485 126.83 147.517 126.606 147.497 126.382C147.497 126.129 147.497 125.865 147.497 125.56C147.497 124.965 147.497 124.277 147.497 123.491V120.206C147.521 119.968 147.469 119.729 147.347 119.523C147.216 119.316 147.016 119.162 146.783 119.089C146.526 119.041 146.263 119.025 146.002 119.042H138.558L95.443 118.882C95.2111 118.882 94.9873 118.967 94.8132 119.12C94.639 119.273 94.5265 119.485 94.4964 119.715C94.4964 120.232 94.4964 120.749 94.4964 121.266C94.4964 122.301 94.4964 123.336 94.4964 124.37C94.4964 124.887 94.4964 125.405 94.4964 125.922C94.4771 126.162 94.4875 126.403 94.5274 126.641C94.5894 126.852 94.7229 127.035 94.905 127.158C95.0949 127.282 95.3203 127.34 95.5465 127.324H97.7966L109.244 127.386L128.626 127.505L141.693 127.608L145.247 127.65H141.693H128.626L109.244 127.593L97.7966 127.546H95.5465C95.2664 127.565 94.9881 127.49 94.755 127.334C94.5197 127.171 94.3479 126.932 94.2688 126.656C94.2224 126.394 94.2085 126.126 94.2274 125.86C94.2274 125.343 94.2274 124.825 94.2274 124.308C94.2274 123.273 94.2274 122.239 94.2274 121.204C94.2274 120.687 94.2274 120.17 94.2274 119.627C94.264 119.331 94.4072 119.059 94.6301 118.862C94.853 118.665 95.1402 118.556 95.4378 118.556L138.553 118.794L145.997 118.851C146.274 118.834 146.552 118.853 146.824 118.908C147.093 118.995 147.32 119.18 147.461 119.425C147.594 119.653 147.652 119.917 147.626 120.18C147.626 120.423 147.626 120.666 147.626 120.899C147.626 121.835 147.626 122.694 147.626 123.486C147.626 124.277 147.626 124.944 147.626 125.555C147.626 125.85 147.626 126.124 147.626 126.377C147.646 126.608 147.609 126.841 147.517 127.055C147.45 127.198 147.353 127.324 147.233 127.426C147.112 127.528 146.971 127.602 146.819 127.644C146.698 127.686 146.569 127.698 146.442 127.681Z" fill="#E0E0E0"/>
<path d="M122.386 98.8976L98.0532 98.7872L98.0429 101.068L122.375 101.179L122.386 98.8976Z" fill="#9B6BF3"/>
<path opacity="0.2" d="M122.386 98.8976L98.0532 98.7872L98.0429 101.068L122.375 101.179L122.386 98.8976Z" fill="#FCFCFC"/>
<path d="M100.254 123.46C100.238 123.668 100.162 123.867 100.035 124.032C99.9076 124.197 99.7346 124.322 99.5373 124.389C99.34 124.457 99.1271 124.466 98.9251 124.414C98.7231 124.362 98.5407 124.251 98.4007 124.097C98.2608 123.942 98.1693 123.75 98.1376 123.543C98.1059 123.337 98.1355 123.126 98.2226 122.937C98.3098 122.747 98.4506 122.587 98.6277 122.477C98.8049 122.367 99.0105 122.311 99.219 122.317C99.5072 122.333 99.7774 122.462 99.9711 122.676C100.165 122.89 100.266 123.171 100.254 123.46Z" fill="#9B6BF3"/>
<path d="M103.549 123.475C103.559 123.621 103.539 123.767 103.49 123.905C103.441 124.043 103.365 124.169 103.265 124.276C103.165 124.383 103.045 124.468 102.911 124.527C102.777 124.585 102.632 124.615 102.486 124.615C102.34 124.615 102.195 124.585 102.061 124.527C101.927 124.468 101.806 124.383 101.706 124.276C101.607 124.169 101.53 124.043 101.481 123.905C101.433 123.767 101.413 123.621 101.423 123.475C101.413 123.329 101.433 123.183 101.481 123.045C101.53 122.907 101.607 122.781 101.706 122.674C101.806 122.567 101.927 122.482 102.061 122.424C102.195 122.365 102.34 122.335 102.486 122.335C102.632 122.335 102.777 122.365 102.911 122.424C103.045 122.482 103.165 122.567 103.265 122.674C103.365 122.781 103.441 122.907 103.49 123.045C103.539 123.183 103.559 123.329 103.549 123.475Z" fill="#9B6BF3"/>
<path d="M106.849 123.491C106.834 123.699 106.758 123.898 106.63 124.063C106.503 124.228 106.33 124.353 106.133 124.42C105.935 124.488 105.723 124.497 105.521 124.445C105.319 124.393 105.136 124.282 104.996 124.128C104.856 123.973 104.765 123.781 104.733 123.574C104.701 123.368 104.731 123.157 104.818 122.968C104.905 122.778 105.046 122.618 105.223 122.508C105.4 122.398 105.606 122.342 105.814 122.348C106.102 122.365 106.372 122.494 106.565 122.708C106.758 122.922 106.86 123.203 106.849 123.491Z" fill="#9B6BF3"/>
<path d="M110.144 123.506C110.129 123.714 110.053 123.913 109.925 124.079C109.798 124.244 109.625 124.368 109.428 124.436C109.23 124.504 109.018 124.512 108.815 124.46C108.613 124.408 108.431 124.298 108.291 124.143C108.151 123.989 108.06 123.796 108.028 123.59C107.996 123.384 108.026 123.173 108.113 122.983C108.2 122.794 108.341 122.634 108.518 122.524C108.695 122.413 108.901 122.358 109.109 122.363C109.397 122.38 109.667 122.51 109.86 122.724C110.053 122.937 110.155 123.218 110.144 123.506Z" fill="#9B6BF3"/>
<path d="M113.439 123.517C113.425 123.725 113.35 123.925 113.223 124.091C113.096 124.257 112.923 124.382 112.726 124.45C112.529 124.519 112.316 124.528 112.113 124.476C111.911 124.425 111.728 124.315 111.587 124.161C111.447 124.006 111.355 123.814 111.323 123.607C111.291 123.401 111.32 123.19 111.407 123C111.494 122.81 111.635 122.65 111.813 122.539C111.99 122.429 112.196 122.373 112.404 122.379C112.691 122.396 112.96 122.525 113.153 122.737C113.346 122.95 113.449 123.229 113.439 123.517Z" fill="#9B6BF3"/>
<path d="M116.739 123.532C116.725 123.739 116.651 123.938 116.525 124.104C116.4 124.269 116.228 124.394 116.033 124.464C115.837 124.533 115.625 124.544 115.423 124.495C115.221 124.445 115.038 124.338 114.897 124.186C114.755 124.034 114.661 123.844 114.626 123.639C114.591 123.434 114.616 123.224 114.7 123.033C114.783 122.843 114.92 122.681 115.094 122.567C115.268 122.454 115.471 122.394 115.679 122.394C115.97 122.405 116.245 122.531 116.444 122.744C116.643 122.957 116.749 123.241 116.739 123.532Z" fill="#9B6BF3"/>
<path d="M120.034 123.548C120.045 123.693 120.025 123.84 119.976 123.978C119.927 124.115 119.85 124.242 119.751 124.349C119.651 124.456 119.53 124.541 119.396 124.599C119.262 124.657 119.118 124.687 118.971 124.687C118.825 124.687 118.681 124.657 118.546 124.599C118.412 124.541 118.292 124.456 118.192 124.349C118.092 124.242 118.016 124.115 117.967 123.978C117.918 123.84 117.898 123.693 117.908 123.548C117.898 123.402 117.918 123.255 117.967 123.118C118.016 122.98 118.092 122.854 118.192 122.747C118.292 122.64 118.412 122.555 118.546 122.496C118.681 122.438 118.825 122.408 118.971 122.408C119.118 122.408 119.262 122.438 119.396 122.496C119.53 122.555 119.651 122.64 119.751 122.747C119.85 122.854 119.927 122.98 119.976 123.118C120.025 123.255 120.045 123.402 120.034 123.548Z" fill="#9B6BF3"/>
<path d="M123.329 123.563C123.315 123.77 123.241 123.969 123.115 124.135C122.99 124.3 122.819 124.425 122.623 124.495C122.427 124.564 122.215 124.575 122.013 124.526C121.811 124.476 121.628 124.369 121.487 124.217C121.345 124.065 121.251 123.875 121.216 123.67C121.181 123.465 121.207 123.255 121.29 123.064C121.373 122.874 121.51 122.712 121.684 122.598C121.858 122.485 122.061 122.425 122.269 122.425C122.56 122.436 122.836 122.562 123.034 122.775C123.233 122.988 123.339 123.272 123.329 123.563Z" fill="#9B6BF3"/>
<path d="M126.624 123.579C126.61 123.787 126.535 123.987 126.408 124.153C126.281 124.319 126.109 124.444 125.911 124.512C125.714 124.581 125.501 124.59 125.298 124.539C125.096 124.487 124.913 124.377 124.773 124.223C124.632 124.068 124.54 123.876 124.508 123.669C124.476 123.463 124.506 123.252 124.593 123.062C124.68 122.872 124.821 122.712 124.998 122.601C125.175 122.491 125.381 122.435 125.59 122.441C125.877 122.458 126.145 122.587 126.338 122.799C126.532 123.012 126.634 123.292 126.624 123.579Z" fill="#9B6BF3"/>
<g opacity="0.2">
<path d="M100.254 123.46C100.238 123.668 100.162 123.867 100.035 124.032C99.9076 124.197 99.7346 124.322 99.5373 124.389C99.34 124.457 99.1271 124.466 98.9251 124.414C98.7231 124.362 98.5407 124.251 98.4007 124.097C98.2608 123.942 98.1693 123.75 98.1376 123.543C98.1059 123.337 98.1355 123.126 98.2226 122.937C98.3098 122.747 98.4506 122.587 98.6277 122.477C98.8049 122.367 99.0105 122.311 99.219 122.317C99.5072 122.333 99.7774 122.462 99.9711 122.676C100.165 122.89 100.266 123.171 100.254 123.46Z" fill="#FCFCFC"/>
<path d="M103.549 123.475C103.559 123.621 103.539 123.767 103.49 123.905C103.441 124.043 103.365 124.169 103.265 124.276C103.165 124.383 103.045 124.468 102.911 124.527C102.777 124.585 102.632 124.615 102.486 124.615C102.34 124.615 102.195 124.585 102.061 124.527C101.927 124.468 101.806 124.383 101.706 124.276C101.607 124.169 101.53 124.043 101.481 123.905C101.433 123.767 101.413 123.621 101.423 123.475C101.413 123.329 101.433 123.183 101.481 123.045C101.53 122.907 101.607 122.781 101.706 122.674C101.806 122.567 101.927 122.482 102.061 122.424C102.195 122.366 102.34 122.335 102.486 122.335C102.632 122.335 102.777 122.366 102.911 122.424C103.045 122.482 103.165 122.567 103.265 122.674C103.365 122.781 103.441 122.907 103.49 123.045C103.539 123.183 103.559 123.329 103.549 123.475Z" fill="#FCFCFC"/>
<path d="M106.849 123.491C106.834 123.699 106.758 123.898 106.63 124.063C106.503 124.228 106.33 124.353 106.133 124.42C105.935 124.488 105.722 124.497 105.52 124.445C105.318 124.393 105.136 124.282 104.996 124.128C104.856 123.973 104.764 123.781 104.733 123.574C104.701 123.368 104.731 123.157 104.818 122.968C104.905 122.778 105.046 122.618 105.223 122.508C105.4 122.398 105.606 122.342 105.814 122.348C106.102 122.365 106.371 122.494 106.565 122.708C106.758 122.922 106.86 123.203 106.849 123.491Z" fill="#FCFCFC"/>
<path d="M110.144 123.506C110.129 123.714 110.053 123.913 109.925 124.079C109.798 124.244 109.625 124.368 109.428 124.436C109.23 124.504 109.018 124.512 108.815 124.46C108.613 124.408 108.431 124.298 108.291 124.143C108.151 123.989 108.06 123.796 108.028 123.59C107.996 123.384 108.026 123.173 108.113 122.983C108.2 122.794 108.341 122.634 108.518 122.524C108.695 122.413 108.901 122.358 109.109 122.363C109.397 122.38 109.667 122.51 109.86 122.724C110.053 122.937 110.155 123.218 110.144 123.506Z" fill="#FCFCFC"/>
<path d="M113.439 123.517C113.425 123.725 113.35 123.925 113.223 124.091C113.096 124.257 112.923 124.382 112.726 124.45C112.529 124.519 112.316 124.528 112.113 124.476C111.911 124.425 111.728 124.315 111.587 124.161C111.447 124.006 111.355 123.814 111.323 123.607C111.291 123.401 111.32 123.19 111.407 123C111.494 122.81 111.635 122.65 111.813 122.539C111.99 122.429 112.196 122.373 112.404 122.379C112.691 122.396 112.96 122.525 113.153 122.737C113.346 122.95 113.449 123.229 113.439 123.517Z" fill="#FCFCFC"/>
<path d="M116.739 123.532C116.725 123.739 116.651 123.938 116.525 124.104C116.4 124.269 116.228 124.394 116.033 124.464C115.837 124.533 115.625 124.544 115.423 124.495C115.221 124.445 115.038 124.338 114.897 124.186C114.755 124.034 114.661 123.844 114.626 123.639C114.591 123.434 114.616 123.224 114.7 123.033C114.783 122.843 114.92 122.681 115.094 122.567C115.268 122.454 115.471 122.394 115.679 122.394C115.97 122.405 116.245 122.531 116.444 122.744C116.643 122.957 116.749 123.241 116.739 123.532Z" fill="#FCFCFC"/>
<path d="M120.034 123.548C120.045 123.693 120.025 123.84 119.976 123.978C119.927 124.115 119.85 124.242 119.751 124.349C119.651 124.456 119.53 124.541 119.396 124.599C119.262 124.657 119.118 124.687 118.971 124.687C118.825 124.687 118.681 124.657 118.546 124.599C118.412 124.541 118.292 124.456 118.192 124.349C118.092 124.242 118.016 124.115 117.967 123.978C117.918 123.84 117.898 123.693 117.908 123.548C117.898 123.402 117.918 123.255 117.967 123.118C118.016 122.98 118.092 122.854 118.192 122.747C118.292 122.64 118.412 122.554 118.546 122.496C118.681 122.438 118.825 122.408 118.971 122.408C119.118 122.408 119.262 122.438 119.396 122.496C119.53 122.554 119.651 122.64 119.751 122.747C119.85 122.854 119.927 122.98 119.976 123.118C120.025 123.255 120.045 123.402 120.034 123.548Z" fill="#FCFCFC"/>
<path d="M123.329 123.563C123.315 123.77 123.241 123.969 123.115 124.135C122.99 124.3 122.819 124.425 122.623 124.495C122.427 124.564 122.215 124.575 122.013 124.526C121.811 124.476 121.628 124.369 121.487 124.217C121.345 124.065 121.251 123.875 121.216 123.67C121.181 123.465 121.207 123.255 121.29 123.064C121.373 122.874 121.51 122.712 121.684 122.598C121.858 122.485 122.061 122.425 122.269 122.425C122.56 122.436 122.836 122.562 123.034 122.775C123.233 122.988 123.339 123.272 123.329 123.563Z" fill="#FCFCFC"/>
<path d="M126.624 123.579C126.61 123.787 126.535 123.987 126.408 124.153C126.281 124.319 126.109 124.444 125.911 124.512C125.714 124.581 125.501 124.59 125.298 124.539C125.096 124.487 124.913 124.377 124.773 124.223C124.632 124.068 124.54 123.876 124.508 123.669C124.476 123.463 124.506 123.252 124.593 123.062C124.68 122.872 124.821 122.712 124.998 122.601C125.175 122.491 125.381 122.435 125.59 122.441C125.877 122.458 126.145 122.587 126.338 122.799C126.532 123.012 126.634 123.292 126.624 123.579Z" fill="#FCFCFC"/>
</g>
<path d="M121.943 48.9043C122.302 48.746 122.607 48.4856 122.82 48.1554C123.032 47.8252 123.143 47.4399 123.138 47.0473C123.151 46.792 123.113 46.5368 123.024 46.297C122.936 46.0572 122.799 45.8379 122.623 45.6525C122.448 45.4671 122.236 45.3195 122.001 45.2186C121.766 45.1177 121.513 45.0657 121.258 45.0657C121.002 45.0657 120.749 45.1177 120.514 45.2186C120.279 45.3195 120.068 45.4671 119.892 45.6525C119.716 45.8379 119.58 46.0572 119.491 46.297C119.403 46.5368 119.364 46.792 119.377 47.0473C119.369 47.4438 119.479 47.8338 119.693 48.168C119.906 48.5022 120.214 48.7656 120.577 48.925C117.681 49.3595 117.81 52.5045 117.81 52.5045L124.659 52.5356C124.659 52.5356 124.819 49.3336 121.943 48.9043Z" fill="#9B6BF3"/>
<path opacity="0.1" d="M121.943 48.9043C122.302 48.746 122.607 48.4856 122.82 48.1554C123.032 47.8252 123.143 47.4399 123.138 47.0473C123.151 46.792 123.113 46.5368 123.024 46.297C122.936 46.0572 122.799 45.8379 122.623 45.6525C122.448 45.4671 122.236 45.3195 122.001 45.2186C121.766 45.1177 121.513 45.0657 121.258 45.0657C121.002 45.0657 120.749 45.1177 120.514 45.2186C120.279 45.3195 120.068 45.4671 119.892 45.6525C119.716 45.8379 119.58 46.0572 119.491 46.297C119.403 46.5368 119.364 46.792 119.377 47.0473C119.369 47.4438 119.479 47.8338 119.693 48.168C119.906 48.5022 120.214 48.7656 120.577 48.925C117.681 49.3595 117.81 52.5045 117.81 52.5045L124.659 52.5356C124.659 52.5356 124.819 49.3336 121.943 48.9043Z" fill="black"/>
<path d="M133.072 54.5641L108.662 54.4533L108.649 57.3707L133.059 57.4815L133.072 54.5641Z" fill="#9B6BF3"/>
<path opacity="0.2" d="M133.072 54.5641L108.662 54.4533L108.649 57.3707L133.059 57.4815L133.072 54.5641Z" fill="#FCFCFC"/>
<path d="M43.3322 69.6834H43.0891L42.3856 69.7351C42.0049 69.758 41.6263 69.8081 41.2527 69.8851C41.0108 69.9191 40.7708 69.9657 40.5337 70.0248L39.7319 70.2472C38.3673 70.6659 37.0797 71.3036 35.9196 72.1353C34.3868 73.2478 33.107 74.6723 32.1642 76.3149C31.61 77.2618 31.169 78.2705 30.8503 79.3203C30.5153 80.4613 30.3225 81.6392 30.2761 82.8275C30.2453 83.4516 30.2556 84.0772 30.3071 84.7C30.3071 85.0155 30.3951 85.3311 30.4364 85.6518C30.4712 85.9751 30.5318 86.2951 30.6175 86.6088C31.0826 88.6845 32.0264 90.6228 33.3736 92.269C34.7208 93.9152 36.434 95.2239 38.3767 96.0905C39.7827 96.6972 41.2897 97.0358 42.8201 97.0888C44.4008 97.1758 45.983 96.949 47.4756 96.4215L47.9308 96.2508H47.9929L48.0446 96.2819L54.5675 99.5925L54.3761 99.758C53.6778 97.5958 53.0053 95.5008 52.3536 93.4886V93.411L52.4105 93.3541C53.9928 91.7603 55.1675 89.8084 55.8348 87.664C56.4393 85.7035 56.6157 83.6361 56.3521 81.6015C56.1177 79.7934 55.5363 78.0475 54.6399 76.4597C53.8673 75.0959 52.8705 73.8718 51.6914 72.8388C50.7187 72.0212 49.642 71.3359 48.4895 70.8007C47.6174 70.4246 46.7092 70.1386 45.7789 69.9472L44.7444 69.7765L43.9943 69.7196L43.5391 69.6886H43.3839C43.4355 69.6828 43.4876 69.6828 43.5391 69.6886H43.9995L44.7496 69.7196L45.7841 69.8696C46.7259 70.047 47.6465 70.3227 48.5309 70.6921C49.7032 71.2209 50.7993 71.9046 51.7897 72.725C52.9905 73.7534 54.0084 74.9777 54.8003 76.3459C55.7221 77.9507 56.3213 79.7203 56.5642 81.5549C56.8497 83.6209 56.6856 85.7242 56.0831 87.7209C55.4114 89.91 54.2186 91.9033 52.607 93.53L52.6381 93.3955C53.2898 95.4077 53.9675 97.5027 54.671 99.6597L54.7692 99.9753L54.4744 99.8252L47.9515 96.5198H48.0653L47.5998 96.6905C46.0784 97.2259 44.4669 97.4578 42.8563 97.3733C41.2929 97.3138 39.7544 96.963 38.3198 96.3388C35.5832 95.1668 33.3064 93.1298 31.8383 90.5401C31.1627 89.344 30.6693 88.0539 30.3744 86.7122C30.2936 86.3904 30.2331 86.0639 30.1933 85.7346C30.1519 85.4087 30.0847 85.088 30.0692 84.7672C29.9292 82.9267 30.1237 81.076 30.6434 79.3048C30.97 78.2405 31.4233 77.2194 31.9935 76.2632C32.9588 74.6056 34.2653 73.1721 35.8265 72.0577C37.0057 71.2239 38.3149 70.5911 39.7009 70.1852L40.513 69.9782C40.7521 69.9228 40.9938 69.8796 41.2372 69.8489C41.6147 69.779 41.9968 69.7375 42.3804 69.7248L43.0891 69.6989C43.1697 69.6881 43.2509 69.6829 43.3322 69.6834Z" fill="#9B6BF3"/>
<path d="M46.2807 81.7464H45.3237L43.2546 78.8393V76.9305C43.2546 76.9305 41.7752 76.8374 41.951 79.3358C42.1269 81.8343 41.951 81.1981 41.951 81.1981C41.951 81.1981 38.8112 81.1981 38.5525 81.4826C38.2939 81.7671 38.2784 84.7983 38.2422 86.4898C38.2223 86.8976 38.3393 87.3003 38.5746 87.6339C38.8098 87.9676 39.1498 88.213 39.5405 88.3313C39.65 88.3617 39.7631 88.3773 39.8768 88.3779C40.663 88.3779 44.6616 87.7416 44.6616 87.7416H46.3117L46.2807 81.7464Z" fill="#9B6BF3"/>
<path d="M49.017 81.2342L48.4273 87.7726H46.7927V81.3687L49.017 81.2342Z" fill="#9B6BF3"/>
<path d="M68.5132 214.346V209.923L60.5834 209.866L60.5161 216.554L61.0075 216.591C63.1956 216.73 72.1394 216.937 73.6084 216.482C75.243 215.975 68.5132 214.346 68.5132 214.346Z" fill="#9B6BF3"/>
<path d="M73.7947 216.068C73.7947 216.141 70.8255 216.203 67.1683 216.203C63.5112 216.203 60.542 216.141 60.542 216.068C60.542 215.996 63.5112 215.934 67.1683 215.934C70.8255 215.934 73.7947 215.996 73.7947 216.068Z" fill="#263238"/>
<path d="M68.6529 215.251C68.5856 215.215 68.6529 214.982 68.8132 214.734C68.9736 214.485 69.1908 214.382 69.2426 214.434C69.2943 214.485 69.1857 214.682 69.0305 214.894C68.8753 215.106 68.7201 215.287 68.6529 215.251Z" fill="#263238"/>
<path d="M69.1599 215.541C69.0874 215.541 69.1237 215.251 69.2788 214.977C69.434 214.703 69.6409 214.537 69.6978 214.578C69.7547 214.62 69.6616 214.853 69.5168 215.096C69.3719 215.339 69.2271 215.566 69.1599 215.541Z" fill="#263238"/>
<path d="M62.9318 216.047C62.9007 216.047 62.7817 215.954 62.611 215.758C62.4027 215.505 62.1705 215.273 61.9179 215.065C61.6694 214.866 61.3734 214.736 61.0592 214.687C60.8161 214.656 60.6609 214.687 60.6454 214.656C60.6299 214.625 60.7799 214.516 61.0644 214.496C61.4398 214.488 61.8061 214.612 62.0989 214.847C62.3733 215.071 62.6047 215.343 62.7817 215.649C62.9007 215.877 62.9628 216.027 62.9318 216.047Z" fill="#263238"/>
<path d="M68.6789 214.418C68.7151 214.48 68.5806 214.635 68.353 214.718C68.1254 214.801 67.9237 214.77 67.9133 214.718C67.903 214.666 68.0633 214.558 68.2599 214.485C68.4565 214.413 68.6375 214.356 68.6789 214.418Z" fill="#263238"/>
<path d="M68.5547 213.989C68.5547 214.066 68.3478 214.128 68.0788 214.134C67.8098 214.139 67.5977 214.077 67.6029 214.004C67.608 213.932 67.8201 213.865 68.0788 213.859C68.3374 213.854 68.5443 213.916 68.5547 213.989Z" fill="#263238"/>
<path d="M88.0406 214.346V209.923L80.1107 209.866L80.0435 216.487L80.5349 216.523C82.723 216.663 91.6719 216.937 93.1358 216.482C94.7704 215.975 88.0406 214.346 88.0406 214.346Z" fill="#9B6BF3"/>
<path d="M93.322 216.079C93.322 216.151 90.358 216.213 86.6956 216.213C83.0333 216.213 80.0745 216.151 80.0745 216.079C80.0745 216.006 83.0385 215.944 86.6956 215.944C90.3528 215.944 93.322 216.006 93.322 216.079Z" fill="#263238"/>
<path d="M88.1802 215.251C88.1181 215.215 88.1802 214.982 88.3405 214.734C88.5009 214.485 88.7182 214.382 88.7699 214.434C88.8216 214.485 88.713 214.682 88.5578 214.894C88.4026 215.106 88.2474 215.287 88.1802 215.251Z" fill="#263238"/>
<path d="M88.6872 215.541C88.6199 215.541 88.651 215.251 88.8113 214.977C88.9717 214.703 89.1734 214.537 89.2303 214.578C89.2872 214.62 89.1889 214.853 89.0441 215.096C88.8992 215.339 88.7596 215.566 88.6872 215.541Z" fill="#263238"/>
<path d="M82.4591 216.047C82.4281 216.047 82.3143 215.954 82.1384 215.758C81.93 215.505 81.6979 215.273 81.4452 215.065C81.1968 214.866 80.9008 214.736 80.5865 214.687C80.3486 214.656 80.1882 214.687 80.1727 214.656C80.1572 214.625 80.3072 214.516 80.5917 214.496C80.9672 214.488 81.3335 214.612 81.6263 214.847C81.902 215.07 82.1337 215.341 82.3091 215.649C82.4281 215.877 82.4901 216.027 82.4591 216.047Z" fill="#263238"/>
<path d="M88.206 214.418C88.2422 214.48 88.1077 214.635 87.8801 214.718C87.6525 214.801 87.4508 214.77 87.4404 214.718C87.4301 214.666 87.5904 214.558 87.787 214.485C87.9836 214.413 88.1646 214.356 88.206 214.418Z" fill="#263238"/>
<path d="M88.0922 213.989C88.0922 214.066 87.8853 214.128 87.6163 214.134C87.3473 214.139 87.1404 214.077 87.1456 214.004C87.1508 213.932 87.3577 213.865 87.6163 213.859C87.875 213.854 88.0922 213.916 88.0922 213.989Z" fill="#263238"/>
<path d="M117.256 83.0085C117.05 82.7964 116.537 82.8999 116.537 82.8999C116.589 82.6021 116.589 82.2976 116.537 81.9998C116.444 81.7101 115.793 81.767 115.793 81.767C115.762 81.5231 115.762 81.2764 115.793 81.0325C115.798 80.9784 115.786 80.9241 115.759 80.8769C115.732 80.8297 115.692 80.7919 115.643 80.7687C115.334 80.643 115.003 80.5831 114.67 80.5928C114.272 80.3083 115.886 78.0478 116.486 77.3236C117.086 76.5994 116.977 76.0356 116.444 76.0356C116.077 76.0356 114.194 78.2082 113.615 78.9375C113.035 79.6669 111.499 81.6946 111.447 80.0755C111.396 78.4565 110.744 77.2357 110.335 77.0288C109.927 76.8219 109.492 77.3081 109.714 77.7581C109.91 78.2694 110.032 78.8058 110.077 79.3514C110.133 79.7859 110.114 80.2269 110.02 80.6549C109.848 81.4513 109.615 82.233 109.321 82.993H109.28C109.28 82.993 97.9929 93.8196 97.1756 94.5904C96.4463 95.2835 81.7763 93.7679 78.8329 93.4576C77.8328 93.3112 76.8228 93.242 75.812 93.2506C74.5343 93.3075 74.3067 93.4886 73.0342 93.5041C69.8206 93.5398 66.6144 93.8217 63.4439 94.3473C62.0082 94.5913 60.6672 95.225 59.5671 96.1792C58.467 97.1333 57.6501 98.3713 57.2055 99.758C54.2415 109.017 47.5272 130.934 46.3426 143.246C45.4475 144.869 44.6394 146.539 43.9218 148.248C43.089 150.513 43.2907 150.591 43.57 150.643C44.3252 150.782 45.1839 146.717 45.5046 147.699C45.8254 148.682 43.8752 152.546 44.6667 152.66C45.7012 152.805 46.5237 148.522 46.622 148.18C46.7203 147.839 47.2324 147.948 47.1392 148.268C46.9892 148.724 45.5357 153.55 46.5495 153.705C47.1082 153.788 47.1703 152.769 47.1703 152.769C47.1703 152.769 48.2048 148.149 48.6756 148.243C49.1463 148.336 48.6445 151.062 48.4066 151.972C48.1686 152.883 48.4997 153.343 48.9859 153.121C49.317 152.965 50.1084 150.198 50.3257 149.298C50.5429 148.398 51.0861 145.904 51.8154 147.348C52.5448 148.791 53.6518 149.629 54.107 149.65C54.2096 149.638 54.3063 149.595 54.3846 149.528C54.463 149.461 54.5194 149.372 54.5467 149.272C54.5739 149.173 54.5708 149.067 54.5376 148.969C54.5044 148.872 54.4427 148.786 54.3605 148.724C53.9689 148.341 53.6329 147.906 53.3621 147.43C53.1208 147.06 52.9458 146.65 52.8448 146.22C52.6364 145.362 52.5151 144.485 52.4827 143.603L52.4 143.085C53.5587 137.349 56.8951 120.511 61.711 109.757L63.687 113.823L64.5457 116.833L59.2798 129.833L81.74 129.538L78.3881 116.637L82.4591 103.188C86.8611 103.286 98.1637 103.451 100.047 102.598C102.416 101.563 114.67 86.0863 114.67 86.0863C115.469 85.4656 116.234 84.8026 116.962 84.1C116.962 84.1 117.706 83.4741 117.256 83.0085Z" fill="#FFBE9D"/>
<path d="M58.292 120.227C58.9437 118.002 62.2905 107.005 62.2905 107.005C62.2905 107.005 63.9355 115.97 63.501 117.051C63.1013 117.976 62.6291 118.869 62.0888 119.72C58.292 125.498 58.7885 128.389 58.7885 128.389L81.7299 127.691C81.7816 124.484 79.8832 117.025 79.49 115.835C79.0969 114.645 80.4056 110.75 80.4056 110.75C80.4056 110.75 82.992 108.117 82.8989 106.762C82.8498 105.545 82.6992 104.333 82.4489 103.141L96.4154 103.658L95.9757 94.1921L75.9156 92.185C75.2173 94.1559 68.9013 93.1886 68.9013 93.1886C62.0836 93.4162 61.6594 94.668 58.8247 96.8716C55.9901 99.0752 51.2983 117.987 51.2983 117.987L58.292 120.227Z" fill="#9B6BF3"/>
<path d="M71.8549 117.987C71.4574 118.058 71.0524 118.079 70.6497 118.049C69.8996 118.049 68.8702 117.997 67.7374 117.883C66.6046 117.77 65.5803 117.609 64.851 117.464C64.4488 117.413 64.0545 117.312 63.6768 117.164C64.0812 117.165 64.4847 117.203 64.882 117.278C65.6166 117.371 66.6356 117.501 67.7633 117.614C68.8909 117.728 69.9151 117.806 70.6548 117.858C71.0581 117.863 71.4599 117.906 71.8549 117.987Z" fill="#263238"/>
<path d="M73.4274 116.037C73.0297 116.232 72.6092 116.376 72.1756 116.466C70.1118 117.008 67.9826 117.261 65.8493 117.216C65.4078 117.231 64.9663 117.189 64.5354 117.092C64.9711 117.037 65.4103 117.015 65.8493 117.025C66.6614 116.999 67.7787 116.942 69.0099 116.797C70.241 116.652 71.3376 116.445 72.1135 116.28C72.5445 116.165 72.9838 116.083 73.4274 116.037Z" fill="#263238"/>
<path d="M81.1451 107.336C81.1347 107.731 81.0809 108.123 80.9848 108.505C80.8503 109.224 80.6434 110.207 80.3796 111.283C80.1157 112.359 79.8623 113.352 79.6347 114.025C79.5432 114.409 79.4078 114.783 79.2312 115.137C79.26 114.744 79.3329 114.355 79.4485 113.978C79.645 113.171 79.8675 112.24 80.1158 111.221C80.364 110.202 80.602 109.271 80.7986 108.464C80.8686 108.075 80.9849 107.697 81.1451 107.336Z" fill="#263238"/>
<path d="M58.5349 118.908C57.3382 118.723 56.1572 118.448 55.0019 118.085C53.8214 117.809 52.663 117.446 51.5361 116.999C52.7323 117.187 53.9131 117.462 55.0691 117.821C56.2499 118.096 57.4084 118.46 58.5349 118.908Z" fill="#263238"/>
<path d="M82.6971 103.027C82.502 103.061 82.3025 103.061 82.1074 103.027C81.5671 102.972 81.0365 102.845 80.5297 102.65C79.6835 102.332 78.9131 101.84 78.2682 101.207C77.6232 100.573 77.1178 99.812 76.7846 98.9717C76.4162 98.0474 76.2589 97.0524 76.3242 96.0595C76.3473 95.2405 76.5922 94.4431 77.0329 93.7524C77.3428 93.2871 77.8058 92.9449 78.3416 92.7851C78.4848 92.7456 78.6328 92.7264 78.7813 92.7282C78.8847 92.7282 78.9365 92.7282 78.9365 92.7282C78.9365 92.7282 78.7192 92.7282 78.3726 92.8678C77.8811 93.0494 77.4642 93.3898 77.1881 93.8352C76.4846 94.9421 76.288 96.9647 77.0381 98.8528C77.3871 99.743 77.9337 100.542 78.6364 101.191C79.2123 101.721 79.8756 102.148 80.5969 102.453C81.2739 102.721 81.9782 102.913 82.6971 103.027Z" fill="#263238"/>
<path d="M94.7548 103.472C94.6254 101.886 94.5839 100.294 94.6306 98.7027C94.5901 97.1132 94.6385 95.5227 94.7755 93.9386C94.905 95.5231 94.9464 97.1136 94.8996 98.7027C94.9431 100.294 94.8947 101.886 94.7548 103.472Z" fill="#263238"/>
<path d="M75.781 92.7644C75.8379 91.6109 75.9569 90.3073 75.9569 90.3073C75.9569 90.3073 78.8122 89.9918 78.9829 87.0433C79.1536 84.0948 78.9829 77.2926 78.9829 77.2926L73.8102 74.6441L68.0684 79.1599L68.9529 93.9024L74.2188 94.2386C74.6213 94.2498 75.0118 94.1008 75.3047 93.8245C75.5975 93.5481 75.7688 93.1669 75.781 92.7644Z" fill="#FFBE9D"/>
<path d="M76.2931 84.7104C76.2931 84.7104 76.2931 84.7673 76.2465 84.8345C76.208 84.8833 76.1583 84.922 76.1015 84.9472C76.0447 84.9724 75.9826 84.9835 75.9206 84.9793C75.5896 84.9793 75.2689 84.5966 75.1551 84.1517C75.101 83.9361 75.101 83.7104 75.1551 83.4948C75.1657 83.4006 75.1996 83.3106 75.2538 83.233C75.308 83.1553 75.3808 83.0924 75.4654 83.0499C75.535 83.0212 75.6131 83.0212 75.6827 83.0499C75.7343 83.0755 75.7761 83.1173 75.8017 83.1689C75.8379 83.2568 75.8017 83.3137 75.8017 83.3085C75.8017 83.3034 75.8017 83.2568 75.7499 83.2051C75.7229 83.168 75.6831 83.1423 75.6383 83.1327C75.5934 83.1232 75.5466 83.1305 75.5068 83.1534C75.4434 83.1917 75.3906 83.2455 75.3536 83.3097C75.3165 83.3739 75.2962 83.4465 75.2947 83.5206C75.2512 83.713 75.2512 83.9127 75.2947 84.1051C75.3982 84.5086 75.6775 84.8345 75.9258 84.8655C75.9744 84.8721 76.0238 84.8686 76.071 84.8553C76.1181 84.8419 76.162 84.819 76.2 84.788C76.262 84.7466 76.2827 84.7052 76.2931 84.7104Z" fill="#EB996E"/>
<path d="M80.7572 75.6994C80.3589 74.3441 78.9157 73.6716 77.6018 73.2992C75.5999 72.7302 73.4377 72.4819 71.4824 73.2009C69.527 73.9199 67.1786 75.1821 67.1786 77.3391C66.0251 77.246 65.3629 78.2547 64.9077 79.5065C64.6167 80.2692 64.4423 81.0714 64.3905 81.886C64.2456 84.7104 63.4542 88.6106 61.623 90.6798C60.5885 91.8333 59.1556 92.6299 58.5659 94.0679C58.0486 95.3146 58.3176 96.794 57.8365 98.0562C57.4072 99.1683 56.4606 99.9597 55.7674 100.927C55.0612 102.024 54.6457 103.283 54.5597 104.585C54.4737 105.887 54.7202 107.19 55.276 108.371C55.8358 109.521 56.6239 110.545 57.5924 111.381C58.5608 112.217 59.6894 112.847 60.9092 113.233C63.3254 113.968 65.902 113.993 68.3321 113.306C70.1559 112.869 71.8573 112.026 73.3084 110.838C74.7931 109.626 75.8129 107.937 76.1948 106.058C76.562 103.948 75.9723 101.801 75.5327 99.7011C74.1567 93.0644 74.5498 92.7178 76.2879 86.557C76.3293 86.4484 76.35 86.3346 76.381 86.226C76.412 86.1174 76.4275 86.0656 76.4482 85.9829C76.4976 85.7393 76.5236 85.4916 76.5258 85.2432C76.272 85.3376 75.9964 85.3575 75.7316 85.3007C75.4668 85.2439 75.2237 85.1127 75.0309 84.9224C74.8376 84.7196 74.7029 84.4683 74.641 84.195C74.5791 83.9218 74.5922 83.6369 74.6791 83.3706C74.8012 83.0793 74.983 82.8169 75.2129 82.6004C75.4428 82.3839 75.7157 82.218 76.0137 82.1136C76.5879 81.8757 77.2035 81.7515 77.7673 81.4877C78.9622 80.9187 79.7899 79.7393 80.3537 78.503C80.8173 77.6462 80.9603 76.6522 80.7572 75.6994Z" fill="#413C32"/>
<path d="M76.5 84.85C76.6093 85.0115 76.6995 85.1851 76.7689 85.3673C76.9241 85.6932 77.131 86.1536 77.3586 86.6864L77.4 86.7846H77.2914L76.7741 86.8312C76.4172 86.8312 76.1172 86.8984 75.7654 86.8933C75.7348 86.8864 75.7064 86.8719 75.6829 86.8511C75.6594 86.8303 75.6415 86.8039 75.6309 86.7743C75.6155 86.7272 75.6155 86.6765 75.6309 86.6295C75.6429 86.5597 75.6584 86.4907 75.6775 86.4225L75.7706 86.0553C75.8174 85.8103 75.8902 85.571 75.9879 85.3414C75.9782 85.5912 75.9418 85.8392 75.8792 86.0811L75.8068 86.4484C75.7809 86.5726 75.7344 86.764 75.8068 86.7484C76.0654 86.7484 76.4327 86.6915 76.7741 86.6708L77.2914 86.6243L77.2242 86.7381C77.0017 86.2208 76.8155 85.7346 76.7069 85.3983C76.6116 85.2266 76.5419 85.0419 76.5 84.85Z" fill="#9B6BF3"/>
<path d="M58.7884 128.389L81.7297 127.691L91.7132 166.663L89.8769 211.366H77.7467L79.2313 167.615L70.3599 140.483L71.7256 213.099L59.466 213.28L58.178 145.025C58.1211 143.127 57.5004 138.849 57.7332 136.966L58.7884 128.389Z" fill="#656869"/>
<path d="M73.412 141.037C73.0365 141.06 72.6595 141.038 72.2895 140.97C71.5963 140.887 70.6497 140.742 69.61 140.535C68.5703 140.328 67.6391 140.09 66.9667 139.899C66.6072 139.82 66.2595 139.695 65.9321 139.526C65.9321 139.449 67.6185 139.852 69.6876 140.271C71.7567 140.69 73.4223 140.959 73.412 141.037Z" fill="#455A64"/>
<path d="M89.7528 208.914C89.7528 208.987 87.0061 209.049 83.6179 209.049C80.2297 209.049 77.4778 208.987 77.4778 208.914C77.4778 208.842 80.2245 208.78 83.6179 208.78C87.0112 208.78 89.7528 208.837 89.7528 208.914Z" fill="#7D9099"/>
<path d="M71.617 211.211C71.617 211.288 68.9479 211.345 65.658 211.345C62.3681 211.345 59.7041 211.288 59.7041 211.211C59.7041 211.133 62.3733 211.076 65.658 211.076C68.9427 211.076 71.617 211.138 71.617 211.211Z" fill="#7D9099"/>
<path d="M70.034 211.025C69.9616 211.025 69.6409 195.16 69.315 175.591C68.9891 156.022 68.7977 140.147 68.865 140.147C68.9322 140.147 69.2633 156.007 69.584 175.586C69.9047 195.165 70.1116 211.025 70.034 211.025Z" fill="#7D9099"/>
<path d="M88.1233 208.914C88.1177 208.844 88.1177 208.773 88.1233 208.702V208.081C88.1233 207.523 88.1647 206.721 88.1958 205.702C88.2682 203.633 88.3716 200.627 88.5009 196.944C88.7803 189.537 89.1734 179.326 89.6028 168.054C89.6028 167.946 89.6028 167.842 89.6028 167.749V167.785C86.887 156.922 84.43 147.063 82.6454 139.93L80.5762 131.493C80.3383 130.505 80.1572 129.734 80.0279 129.196C79.9659 128.943 79.9245 128.746 79.8883 128.596C79.8681 128.529 79.856 128.46 79.8521 128.389C79.8789 128.455 79.8997 128.522 79.9141 128.591C79.9555 128.736 80.0072 128.933 80.0796 129.181C80.2193 129.698 80.4211 130.484 80.6797 131.467C81.197 133.464 81.9263 136.34 82.8367 139.883C84.6369 147.011 87.1198 156.845 89.8717 167.723V167.759C89.8717 167.853 89.8717 167.961 89.8717 168.065C89.4114 179.336 88.9924 189.542 88.6872 196.95C88.5268 200.638 88.3923 203.622 88.2992 205.702C88.2475 206.736 88.2061 207.523 88.1802 208.081C88.1802 208.345 88.1492 208.552 88.144 208.702C88.1448 208.773 88.1379 208.844 88.1233 208.914Z" fill="#7D9099"/>
<path d="M84.166 166.839C83.2947 167.125 82.3972 167.324 81.4865 167.434C80.3692 167.625 79.4174 167.76 78.988 167.78V167.677C79.1277 167.718 79.2001 167.744 79.2001 167.765C79.2001 167.785 79.1122 167.765 78.9674 167.765H78.657L78.9674 167.672C79.3708 167.553 80.3226 167.356 81.4399 167.154C82.3361 166.96 83.2492 166.854 84.166 166.839Z" fill="#7D9099"/>
<path d="M83.9541 168.323C83.1472 168.36 82.3387 168.324 81.5384 168.215C80.7304 168.198 79.9254 168.11 79.1331 167.951C80.7497 167.819 82.3769 167.945 83.9541 168.323Z" fill="#7D9099"/>
<path opacity="0.2" d="M58.6902 129.212C58.9619 129.561 59.3041 129.848 59.6945 130.056C60.0849 130.264 60.5147 130.387 60.9559 130.417C61.8798 130.527 62.8144 130.509 63.7337 130.365C69.6565 129.708 75.9311 129.103 81.7298 127.691C74.2241 128.11 66.2942 127.97 58.7885 128.389L58.7109 129.031" fill="black"/>
<g opacity="0.2">
<path d="M66.4236 139.79L70.6549 156.209L70.3601 140.483L66.4236 139.79Z" fill="black"/>
</g>
</svg>
