<svg width="94" height="89" viewBox="0 0 94 89" fill="none" xmlns="http://www.w3.org/2000/svg">
<path d="M82.2529 79.0661C81.8412 78.9138 81.4062 78.8341 80.9672 78.8304C80.5515 78.7961 80.4208 78.7147 80.3415 78.6161C79.9437 78.0443 79.3629 77.625 78.6948 77.4275C78.0268 77.23 77.3114 77.2661 76.6665 77.5297C76.4223 76.5354 75.2201 75.674 73.8959 75.9633C73.9408 74.6776 72.2909 73.2847 70.8102 72.9633C69.3873 72.6612 68.1487 72.7876 67.3388 73.7219C66.4709 72.0269 63.0681 71.549 61.2274 72.4469C60.1688 72.9611 59.2688 73.4904 58.8295 74.4611C58.5409 75.0617 58.404 75.7239 58.431 76.3897C57.7131 75.7576 56.2774 75.5861 55.3196 75.9611C54.2867 76.3618 54.2074 77.1397 54.156 77.9325C53.5428 77.7557 52.8938 77.7439 52.2746 77.8983C51.6317 78.0911 51.2482 78.6032 51.3382 79.0147C50.8239 78.9868 49.596 79.4025 49.7375 79.9468C49.896 80.5575 51.2974 80.4954 51.8203 80.4761C52.3141 80.4376 52.8041 80.361 53.286 80.2468C53.5293 80.3386 53.7867 80.3871 54.0467 80.3904C54.9403 80.3904 55.3174 80.0025 55.461 79.6704C55.8896 80.5875 57.4453 81.2861 58.5424 81.5668C60.6038 82.0939 63.5245 81.7811 64.7952 80.2297C64.9441 80.5202 65.153 80.7758 65.4081 80.9797C65.9548 81.4192 66.6188 81.6882 67.3173 81.7532C68.1745 81.8325 70.4394 81.9397 71.0802 80.5939C71.5323 81.4897 73.5573 81.8968 75.0958 81.6782C75.6929 81.5886 76.2739 81.4132 76.8208 81.1575C77.1615 80.9781 77.492 80.7799 77.8108 80.564C78.1151 80.3818 78.2522 80.3839 78.6551 80.5061C79.7115 80.8254 80.9394 80.9539 82.0172 80.5061C82.8808 80.1525 83.0672 79.4325 82.2529 79.0661Z" fill="#F5F5F5"/>
<path d="M70.853 65.4184C71.1207 65.3199 71.4034 65.2677 71.6887 65.2641C71.9587 65.2427 72.0444 65.1891 72.0958 65.1312C72.3552 64.7586 72.734 64.4855 73.1695 64.3569C73.605 64.2284 74.0713 64.2521 74.4915 64.4241C74.6501 63.7813 75.4344 63.2134 76.2979 63.402C76.2679 62.5598 77.3436 61.6556 78.3079 61.4498C79.2358 61.2527 80.0415 61.3363 80.5707 61.9448C81.1365 60.8413 83.3564 60.5284 84.5543 61.1134C85.2443 61.4498 85.7693 61.8248 86.1164 62.427C86.2936 62.7125 86.3802 63.0449 86.365 63.3805C87.4857 62.1463 89.6371 63.5155 90.0078 64.7734C90.192 64.6533 90.4009 64.5763 90.619 64.5482C90.8371 64.52 91.0587 64.5415 91.2674 64.6109C91.476 64.6803 91.6663 64.7959 91.8241 64.949C91.9818 65.1022 92.103 65.289 92.1785 65.4955C92.6744 65.4035 93.1855 65.4396 93.6635 65.6005C93.7293 65.6149 93.7914 65.6427 93.8459 65.6822C93.9005 65.7216 93.9463 65.7719 93.9806 65.8298C94.0049 65.9014 94.0064 65.9788 93.9849 66.0513C93.9634 66.1238 93.92 66.1879 93.8606 66.2348C93.5585 66.4855 93.0035 66.5862 92.2171 66.5455C92.0757 66.6098 91.8614 66.7148 91.7242 66.7941C91.3961 66.9625 91.0361 67.0596 90.6678 67.0791C89.6371 67.0919 88.7778 66.8991 88.3 66.3891C87.8677 66.8927 87.2705 67.2263 86.615 67.3303C85.9595 67.4343 85.2884 67.302 84.7214 66.9569C84.6484 66.8923 84.5531 66.8586 84.4557 66.8627C84.4112 66.8744 84.3691 66.894 84.3314 66.9205C83.5686 67.3962 82.1093 67.4305 81.4536 66.8605C80.8862 67.11 80.2683 67.223 79.6493 67.1905C79.0836 67.1455 78.3936 66.9762 78.1258 66.4212C77.83 67.0041 76.5122 67.2784 75.5072 67.1284C75.1189 67.0687 74.7409 66.9548 74.3844 66.7898C74.1632 66.6724 73.9485 66.5429 73.7415 66.402C73.6617 66.3466 73.5684 66.3138 73.4714 66.307C73.3745 66.3002 73.2776 66.3197 73.1908 66.3634C72.5008 66.5777 71.7015 66.6569 70.9987 66.3634C70.4437 66.1277 70.3258 65.6584 70.853 65.4184Z" fill="#F5F5F5"/>
<path d="M29.0783 48.5605C28.7694 48.4465 28.4432 48.3863 28.114 48.3827C27.8033 48.3591 27.7047 48.297 27.6447 48.2284C27.3456 47.7987 26.9091 47.4837 26.407 47.3352C25.9049 47.1868 25.3672 47.2139 24.8826 47.412C24.6983 46.6663 23.7962 46.017 22.7998 46.2355C22.834 45.2648 21.5955 44.2234 20.4812 43.9856C19.4098 43.7584 18.4819 43.8527 17.8734 44.5556C17.2305 43.2827 14.6591 42.9227 13.2813 43.5977C12.4863 43.9856 11.8113 44.382 11.4813 45.1106C11.2633 45.562 11.1602 46.0604 11.1813 46.5613C10.6413 46.0855 9.56128 45.957 8.84129 46.2355C8.06558 46.5355 8.00558 47.1205 7.96915 47.7162C7.50804 47.5845 7.02048 47.5756 6.55488 47.6905C6.06631 47.8362 5.78345 48.2198 5.84988 48.5305C5.46417 48.5091 4.54061 48.822 4.64775 49.2312C4.7656 49.6898 5.81988 49.6427 6.21202 49.6277C6.58301 49.5988 6.95124 49.5415 7.31344 49.4562C7.49665 49.5243 7.69016 49.5605 7.88558 49.5634C8.55629 49.5634 8.84129 49.272 8.957 49.0234C9.28486 49.7112 10.457 50.2362 11.2713 50.4462C12.8227 50.8448 15.017 50.6027 15.9705 49.4434C16.0808 49.661 16.2356 49.853 16.4248 50.0069C16.8354 50.3368 17.3339 50.5388 17.8584 50.5877C18.5012 50.6477 20.2026 50.7291 20.6848 49.7155C21.0255 50.3884 22.5469 50.6948 23.704 50.5319C24.149 50.4628 24.5819 50.3308 24.9897 50.1398C25.2464 50.0052 25.4954 49.8564 25.7355 49.6941C25.9626 49.557 26.0654 49.5591 26.3783 49.6512C27.1712 49.8891 28.0926 49.9877 28.9026 49.6512C29.5497 49.377 29.6847 48.8412 29.0783 48.5605Z" fill="#F5F5F5"/>
<path d="M31.6069 16.0558C31.307 15.9449 30.9902 15.8869 30.6705 15.8844C30.3662 15.8608 30.2697 15.8008 30.2119 15.7344C29.9217 15.3167 29.4976 15.0105 29.0099 14.8663C28.5221 14.7222 27.9997 14.7487 27.5291 14.9415C27.3512 14.2151 26.4748 13.5851 25.5062 13.7973C25.5405 12.8544 24.3362 11.843 23.2541 11.6116C22.2169 11.3973 21.3127 11.483 20.7212 12.1666C20.0784 10.928 17.6034 10.5787 16.2598 11.2344C15.4863 11.6116 14.8306 11.9973 14.5091 12.7066C14.2972 13.1446 14.1971 13.6283 14.2177 14.1144C13.6949 13.6515 12.6449 13.5273 11.9463 13.7973C11.192 14.0887 11.1342 14.6544 11.0892 15.2373C10.6416 15.1079 10.1677 15.099 9.71561 15.2115C9.2399 15.353 8.96561 15.7258 9.03204 16.028C8.6549 16.0065 7.75919 16.3108 7.86205 16.7072C7.97776 17.153 9.00204 17.108 9.38347 17.093C9.74434 17.0646 10.1025 17.0087 10.4549 16.9258C10.6331 16.993 10.8216 17.0286 11.012 17.0308C11.6549 17.0308 11.9377 16.748 12.0427 16.5058C12.3599 17.1744 13.4934 17.6844 14.2927 17.8901C15.7927 18.2758 17.9355 18.0401 18.857 16.9151C18.9659 17.1269 19.1186 17.3131 19.3048 17.4615C19.7045 17.782 20.1896 17.978 20.6998 18.0251C21.3169 18.0829 22.9777 18.1622 23.4448 17.168C23.7769 17.8108 25.2533 18.1194 26.3783 17.9608C26.8134 17.8945 27.237 17.7668 27.6362 17.5815C27.8847 17.4523 28.1258 17.3092 28.3583 17.153C28.5726 17.0201 28.6798 17.0222 28.9755 17.1101C29.7469 17.3437 30.6426 17.4379 31.429 17.1101C32.0676 16.8401 32.1962 16.3151 31.6069 16.0558Z" fill="#F5F5F5"/>
<path d="M74.8237 6.413C74.4804 6.2868 74.1181 6.22013 73.7523 6.21585C73.4052 6.19014 73.2959 6.12157 73.2294 6.04657C72.8984 5.56893 72.4142 5.21868 71.8569 5.05384C71.2996 4.889 70.7028 4.91945 70.1652 5.14015C69.9616 4.31087 68.9588 3.59302 67.8552 3.83516C67.8938 2.76374 66.5181 1.60017 65.2838 1.33661C64.1009 1.08589 63.0681 1.19089 62.391 1.97946C61.6667 0.565182 58.8296 0.166614 57.2953 0.908037C56.4124 1.33661 55.6624 1.78017 55.2981 2.58802C55.0566 3.08896 54.9418 3.64159 54.9639 4.1973C54.366 3.67016 53.1682 3.52659 52.3689 3.83516C51.5117 4.16944 51.4432 4.81872 51.4003 5.47872C50.8891 5.33128 50.3479 5.32167 49.8318 5.45086C49.2896 5.61157 48.9746 6.038 49.0496 6.383C48.6211 6.35942 47.5989 6.70657 47.7146 7.15871C47.8475 7.6687 49.0153 7.61727 49.4525 7.60013C49.8639 7.56786 50.2722 7.5041 50.6739 7.40942C50.8796 7.48651 51.0971 7.52712 51.3167 7.52942C52.0625 7.52942 52.3775 7.20585 52.4953 6.92728C52.8596 7.69227 54.1517 8.27513 55.0667 8.50869C56.781 8.95012 59.2217 8.68012 60.2803 7.39442C60.402 7.63564 60.5728 7.84877 60.7817 8.02013C61.2384 8.38495 61.7918 8.60839 62.3738 8.66298C63.0809 8.72941 64.9752 8.81941 65.5109 7.69656C65.8881 8.44227 67.5766 8.78298 68.8602 8.60084C69.3567 8.52713 69.8402 8.38281 70.2959 8.17227C70.581 8.02349 70.8572 7.85821 71.123 7.67727C71.3759 7.52513 71.4895 7.52727 71.828 7.63013C72.7087 7.89584 73.7309 8.00298 74.6287 7.63013C75.353 7.32156 75.4966 6.72156 74.8237 6.413Z" fill="#F5F5F5"/>
<path d="M23.4812 79.1368C23.4718 79.0977 23.4543 79.0609 23.43 79.0288C23.4057 78.9967 23.3749 78.97 23.3398 78.9504L9.41128 71.3262L23.0676 79.5354C23.1174 79.5644 23.1746 79.578 23.2321 79.5744C23.2896 79.5709 23.3448 79.5504 23.3906 79.5156C23.4365 79.4807 23.471 79.4331 23.4898 79.3786C23.5085 79.3242 23.5108 79.2654 23.4962 79.2097L23.4812 79.1368ZM33.8697 63.2905L24.7069 58.3384L33.5675 63.7941C33.6314 63.8339 33.7081 63.8477 33.7818 63.8326C33.8419 63.823 33.8973 63.7947 33.9403 63.7517C33.9834 63.7087 34.0118 63.6533 34.0215 63.5933C34.0312 63.5333 34.0218 63.4717 33.9945 63.4174C33.9673 63.363 33.9236 63.3186 33.8697 63.2905ZM29.8561 65.7398L12.692 56.1956L29.524 66.2776C29.5762 66.3082 29.6367 66.3217 29.697 66.3163C29.7573 66.311 29.8144 66.2869 29.8604 66.2476L29.9011 66.2155C29.9369 66.1851 29.9648 66.1466 29.9825 66.1031C30.0001 66.0597 30.007 66.0126 30.0026 65.9659C29.9982 65.9192 29.9826 65.8743 29.9571 65.8349C29.9316 65.7955 29.8969 65.7629 29.8561 65.7398ZM24.0383 74.2404C24.0765 74.2636 24.1195 74.2776 24.1639 74.2813C24.2084 74.2851 24.2531 74.2785 24.2946 74.2621C24.3361 74.2457 24.3733 74.22 24.4031 74.1868C24.433 74.1537 24.4548 74.1141 24.4669 74.0711L24.5569 73.7776L0.756348 60.4127L24.0383 74.2404ZM26.5862 69.2969L13.9777 62.3905L26.2583 69.854C26.3223 69.8919 26.3982 69.9038 26.4707 69.8875C26.5432 69.8712 26.6067 69.8278 26.6483 69.7662C26.6585 69.7489 26.6699 69.7324 26.6826 69.7169C26.7057 69.6836 26.7216 69.6458 26.7293 69.6059C26.737 69.5661 26.7362 69.5251 26.7272 69.4856C26.7181 69.446 26.7008 69.4088 26.6766 69.3764C26.6523 69.3439 26.6215 69.3168 26.5862 69.2969Z" fill="#F5F5F5"/>
<path d="M24.7391 70.4368C22.8619 69.9611 20.8262 70.7218 17.7941 69.0183C15.2463 67.5847 13.0584 64.304 12.5399 66.3804C12.362 67.3768 13.937 69.809 14.8563 70.559C12.7777 69.6397 12.2077 69.9761 12.9449 71.5318C13.8984 73.5375 16.1591 75.0011 16.1591 75.0011C16.1591 75.0011 14.6227 75.3482 15.9448 76.6511C17.7084 78.3653 21.1605 78.2303 21.1605 78.2303C21.1605 78.2303 18.4991 78.961 19.8748 79.6425C20.2827 79.8137 20.7184 79.9089 21.1605 79.9232C25.4698 80.2082 28.8469 75.2368 27.0233 71.8982C26.5455 70.9875 25.4848 70.6275 24.7391 70.4368Z" fill="#855DCF"/>
<path opacity="0.65" d="M24.7391 70.4368C22.8619 69.9611 20.8262 70.7218 17.7941 69.0183C15.2463 67.5847 13.0584 64.304 12.5399 66.3804C12.362 67.3768 13.937 69.809 14.8563 70.559C12.7777 69.6397 12.2077 69.9761 12.9449 71.5318C13.8984 73.5375 16.1591 75.0011 16.1591 75.0011C16.1591 75.0011 14.6227 75.3482 15.9448 76.6511C17.7084 78.3653 21.1605 78.2303 21.1605 78.2303C21.1605 78.2303 18.4991 78.961 19.8748 79.6425C20.2827 79.8137 20.7184 79.9089 21.1605 79.9232C25.4698 80.2082 28.8469 75.2368 27.0233 71.8982C26.5455 70.9875 25.4848 70.6275 24.7391 70.4368Z" fill="#FCFCFC"/>
<path opacity="0.4" d="M25.189 72.1725C24.0169 71.744 22.7719 71.5618 21.5698 71.2276C19.9691 70.7797 18.4562 70.0661 16.952 69.359L15.8805 68.6133C15.5591 69.1833 15.7563 70.0126 16.0948 70.574C16.4599 71.121 16.947 71.5758 17.5177 71.9025C17.392 72.0602 17.3166 72.2519 17.3013 72.4529C17.286 72.6539 17.3316 72.8549 17.432 73.0297C17.6412 73.3761 17.9444 73.6562 18.3062 73.8375C18.8229 74.1289 19.3863 74.3283 19.9712 74.4268C19.8985 74.4501 19.8311 74.4876 19.773 74.5372C19.7149 74.5869 19.6673 74.6476 19.633 74.7158C19.5987 74.7841 19.5783 74.8585 19.5731 74.9347C19.5679 75.0109 19.5779 75.0874 19.6027 75.1597C19.651 75.3366 19.7341 75.5022 19.847 75.6468C19.96 75.7913 20.1005 75.912 20.2605 76.0018C20.6895 76.2202 21.1597 76.3458 21.6405 76.3704C22.1343 76.4057 22.6302 76.4014 23.1233 76.3575C22.9605 76.5997 23.1233 76.9425 23.3719 77.1075C24.0641 77.5875 25.0283 77.5618 25.804 77.3218C26.0918 77.2306 26.3679 77.1062 26.6269 76.9511C27.263 75.975 27.5818 74.8261 27.5397 73.6618C26.8869 72.9841 26.0807 72.4734 25.189 72.1725Z" fill="#855DCF"/>
<path d="M23.5434 70.4134C22.3433 70.2458 21.1547 70.0046 19.9842 69.6912C18.8491 69.3463 17.7326 68.943 16.6392 68.4827C16.4905 68.4097 16.3231 68.3835 16.1592 68.4077C15.9106 68.4677 15.7928 68.7484 15.7799 69.0055C15.7799 69.4017 15.8873 69.7905 16.0906 70.1305C16.5758 70.8691 17.3118 71.4072 18.1627 71.6455C18.0093 71.7025 17.8787 71.8081 17.7909 71.9462C17.703 72.0843 17.6628 72.2474 17.6763 72.4105C17.7299 72.9291 18.0899 73.1905 18.3835 73.3791C19.1227 73.8526 20.1127 74.0455 20.987 74.1312C20.6527 74.2726 20.2799 74.4569 20.1813 74.8062C19.967 75.5948 21.0063 75.8583 21.5592 75.959C22.305 76.0647 23.0614 76.0719 23.8091 75.9805C23.582 76.1433 23.6356 76.5183 23.837 76.709C24.4648 77.2919 25.847 76.9812 26.4577 76.4948C27.2891 75.824 27.6577 74.8233 27.5291 73.5119C27.3448 72.5798 26.702 71.5491 25.8963 71.0498C25.2234 70.6212 24.3963 70.5398 23.6184 70.4305L23.5434 70.4134Z" fill="#855DCF"/>
<path opacity="0.75" d="M23.5434 70.4134C22.3433 70.2458 21.1547 70.0046 19.9842 69.6912C18.8491 69.3463 17.7326 68.943 16.6392 68.4827C16.4905 68.4097 16.3231 68.3835 16.1592 68.4077C15.9106 68.4677 15.7928 68.7484 15.7799 69.0055C15.7799 69.4017 15.8873 69.7905 16.0906 70.1305C16.5758 70.8691 17.3118 71.4072 18.1627 71.6455C18.0093 71.7025 17.8787 71.8081 17.7909 71.9462C17.703 72.0843 17.6628 72.2474 17.6763 72.4105C17.7299 72.9291 18.0899 73.1905 18.3835 73.3791C19.1227 73.8526 20.1127 74.0455 20.987 74.1312C20.6527 74.2726 20.2799 74.4569 20.1813 74.8062C19.967 75.5948 21.0063 75.8583 21.5592 75.959C22.305 76.0647 23.0614 76.0719 23.8091 75.9805C23.582 76.1433 23.6356 76.5183 23.837 76.709C24.4648 77.2919 25.847 76.9812 26.4577 76.4948C27.2891 75.824 27.6577 74.8233 27.5291 73.5119C27.3448 72.5798 26.702 71.5491 25.8963 71.0498C25.2234 70.6212 24.3963 70.5398 23.6184 70.4305L23.5434 70.4134Z" fill="#FCFCFC"/>
<path opacity="0.4" d="M27.0426 71.8984C26.5454 70.9877 25.4847 70.6277 24.739 70.4369C22.8619 69.9612 20.8262 70.7219 17.7941 69.0184C15.9448 67.9791 14.2884 65.967 13.3198 65.7334L13.3498 66.0784C14.267 66.4148 14.9527 67.5784 16.3755 68.7934C17.7984 70.0084 19.6026 70.7948 22.1719 71.0176C24.7412 71.2405 26.029 71.0176 27.0104 72.5176C27.1669 72.7555 27.2869 72.8026 27.3769 72.7148C27.2955 72.4313 27.1834 72.1575 27.0426 71.8984Z" fill="#855DCF"/>
<path d="M27.5291 73.5076C27.4691 71.9819 26.5562 70.079 23.972 70.0555C20.507 70.0276 18.0149 69.0848 15.2977 66.5605C13.9777 65.3326 12.5249 65.2212 12.5292 66.6205C12.6213 65.8019 13.6006 65.8234 14.7106 66.9805C15.9963 68.3176 17.4341 69.719 20.3827 70.409C23.3312 71.099 24.4177 70.6769 25.5255 71.1505C26.3548 71.5062 27.0984 72.4276 27.5291 73.5076Z" fill="#855DCF"/>
<path opacity="0.9" d="M27.5291 73.5076C27.4691 71.9819 26.5562 70.079 23.972 70.0555C20.507 70.0276 18.0149 69.0848 15.2977 66.5605C13.9777 65.3326 12.5249 65.2212 12.5292 66.6205C12.6213 65.8019 13.6006 65.8234 14.7106 66.9805C15.9963 68.3176 17.4341 69.719 20.3827 70.409C23.3312 71.099 24.4177 70.6769 25.5255 71.1505C26.3548 71.5062 27.0984 72.4276 27.5291 73.5076Z" fill="#FCFCFC"/>
<path d="M38.1082 64.0792C38.9203 62.4335 40.7139 61.4371 41.3525 58.1992C41.8903 55.4778 40.8789 51.8736 42.6875 52.7843C43.5103 53.2728 44.2817 55.9064 44.2624 57.0378C44.8774 54.9721 45.4689 54.7685 46.131 56.2621C46.9881 58.1907 46.6474 60.7235 46.6474 60.7235C46.6474 60.7235 47.7189 59.9906 47.7446 61.7606C47.7703 63.8735 45.4753 66.8563 45.4753 66.8563C46.1182 66.2949 47.6181 65.6135 47.0824 67.0706C46.8681 67.6534 45.7303 68.967 43.4246 69.9763C40.6625 71.187 37.8039 69.0634 37.7418 66.6506C37.7182 65.6563 37.7868 64.7306 38.1082 64.0792Z" fill="#855DCF"/>
<path opacity="0.65" d="M38.1082 64.0792C38.9203 62.4335 40.7139 61.4371 41.3525 58.1992C41.8903 55.4778 40.8789 51.8736 42.6875 52.7843C43.5103 53.2728 44.2817 55.9064 44.2624 57.0378C44.8774 54.9721 45.4689 54.7685 46.131 56.2621C46.9881 58.1907 46.6474 60.7235 46.6474 60.7235C46.6474 60.7235 47.7189 59.9906 47.7446 61.7606C47.7703 63.8735 45.4753 66.8563 45.4753 66.8563C46.1182 66.2949 47.6181 65.6135 47.0824 67.0706C46.8681 67.6534 45.7303 68.967 43.4246 69.9763C40.6625 71.187 37.8039 69.0634 37.7418 66.6506C37.7182 65.6563 37.7868 64.7306 38.1082 64.0792Z" fill="#FCFCFC"/>
<path opacity="0.4" d="M39.0769 65.4763C39.4926 64.3684 40.1226 63.357 40.6197 62.2834C41.2818 60.8542 41.6911 59.3242 42.1197 57.8027L42.2397 56.5728C42.8483 56.6949 43.3111 57.3485 43.5254 57.9377C43.6934 58.5399 43.7206 59.1727 43.6047 59.787C43.7958 59.7948 43.9801 59.8604 44.1332 59.9752C44.2862 60.09 44.4008 60.2485 44.4618 60.4299C44.5814 60.795 44.5956 61.1864 44.5025 61.5591C44.3951 62.1105 44.1928 62.6391 43.9047 63.1213C43.9664 63.0838 44.035 63.059 44.1064 63.0484C44.1779 63.0377 44.2507 63.0413 44.3207 63.0591C44.3907 63.0768 44.4565 63.1083 44.5142 63.1518C44.5719 63.1952 44.6204 63.2496 44.6568 63.312C44.7539 63.456 44.8214 63.6179 44.8557 63.7881C44.8899 63.9584 44.89 64.1338 44.8561 64.3041C44.7511 64.7482 44.5523 65.1646 44.2732 65.5255C43.9957 65.9032 43.6883 66.2579 43.354 66.5863C43.6282 66.6184 43.7697 66.9527 43.7397 67.2291C43.6582 68.0241 43.0475 68.7012 42.3983 69.1105C42.156 69.2608 41.8972 69.3823 41.6268 69.4727C40.1483 69.8005 38.6269 69.1662 38.7083 68.0948C38.6196 67.205 38.746 66.307 39.0769 65.4763Z" fill="#855DCF"/>
<path d="M38.8261 63.1984C39.4418 62.2329 39.9985 61.2311 40.4933 60.1984C40.9441 59.1642 41.3425 58.1078 41.6868 57.0334C41.7248 56.8817 41.8077 56.745 41.9247 56.6413C42.0309 56.5848 42.1524 56.5638 42.2715 56.5811C42.3906 56.5984 42.501 56.6533 42.5868 56.7377C42.8717 56.9837 43.0849 57.302 43.2039 57.6591C43.4354 58.4645 43.3692 59.3263 43.0175 60.087C43.1539 60.0094 43.3122 59.9795 43.4674 60.002C43.6227 60.0245 43.766 60.0981 43.8747 60.2113C44.0036 60.3612 44.0944 60.5399 44.1395 60.7324C44.1847 60.9249 44.1828 61.1254 44.1339 61.317C44.0204 62.1441 43.5511 62.9755 43.0754 63.6591C43.3839 63.5048 43.7439 63.3505 44.0547 63.4941C44.7575 63.8198 44.3011 64.7412 44.0354 65.2084C43.6536 65.8099 43.1947 66.3588 42.6704 66.8412C42.9254 66.7791 43.1632 67.0555 43.1739 67.3126C43.2082 68.1248 42.1368 68.9283 41.4104 69.0633C40.4183 69.2476 39.2375 69.4148 38.3697 68.5169C37.8147 67.8076 37.7076 66.1876 37.8426 65.3026C37.9561 64.5569 38.3954 63.9119 38.7961 63.2777L38.8261 63.1984Z" fill="#855DCF"/>
<path opacity="0.75" d="M38.8261 63.1984C39.4418 62.2329 39.9985 61.2311 40.4933 60.1984C40.9441 59.1642 41.3425 58.1078 41.6868 57.0334C41.7248 56.8817 41.8077 56.745 41.9247 56.6413C42.0309 56.5848 42.1524 56.5638 42.2715 56.5811C42.3906 56.5984 42.501 56.6533 42.5868 56.7377C42.8717 56.9837 43.0849 57.302 43.2039 57.6591C43.4354 58.4645 43.3692 59.3263 43.0175 60.087C43.1539 60.0094 43.3122 59.9795 43.4674 60.002C43.6227 60.0245 43.766 60.0981 43.8747 60.2113C44.0036 60.3612 44.0944 60.5399 44.1395 60.7324C44.1847 60.9249 44.1828 61.1254 44.1339 61.317C44.0204 62.1441 43.5511 62.9755 43.0754 63.6591C43.3839 63.5048 43.7439 63.3505 44.0547 63.4941C44.7575 63.8198 44.3011 64.7412 44.0354 65.2084C43.6536 65.8099 43.1947 66.3588 42.6704 66.8412C42.9254 66.7791 43.1632 67.0555 43.1739 67.3126C43.2082 68.1248 42.1368 68.9283 41.4104 69.0633C40.4183 69.2476 39.2375 69.4148 38.3697 68.5169C37.8147 67.8076 37.7076 66.1876 37.8426 65.3026C37.9561 64.5569 38.3954 63.9119 38.7961 63.2777L38.8261 63.1984Z" fill="#FCFCFC"/>
<path opacity="0.4" d="M37.6068 66.779C37.4246 65.8083 37.7868 64.7304 38.1082 64.079C38.9203 62.4333 40.7139 61.4369 41.3525 58.1991C41.7425 56.2255 41.3182 53.787 41.7446 52.9448L41.9739 53.1805C41.6503 54.0484 42.0617 55.2591 42.0639 57.0377C42.1123 59.0687 41.4936 61.0597 40.3025 62.7055C38.8839 64.694 38.3203 65.3005 38.2003 66.9912C38.1682 67.4347 38.1618 67.874 38.0439 67.8847C37.8248 67.5495 37.6761 67.1734 37.6068 66.779Z" fill="#855DCF"/>
<path d="M38.3611 68.5062C37.3047 67.5205 36.7347 65.1633 38.3054 63.2884C40.4118 60.7769 41.0911 58.3791 41.1233 54.8798C41.1447 52.9513 41.8647 52.0556 42.8654 52.9234C42.2225 52.4841 41.6804 53.277 41.7125 54.8948C41.7468 56.7591 41.6975 58.8591 40.7611 60.9227C39.5761 63.5348 38.4769 63.9933 38.1383 65.0798C37.8833 65.9026 37.8533 67.529 38.3611 68.5062Z" fill="#855DCF"/>
<path opacity="0.9" d="M38.3611 68.5062C37.3047 67.5205 36.7347 65.1633 38.3054 63.2884C40.4118 60.7769 41.0911 58.3791 41.1233 54.8798C41.1447 52.9513 41.8647 52.0556 42.8654 52.9234C42.2225 52.4841 41.6804 53.277 41.7125 54.8948C41.7468 56.7591 41.6975 58.8591 40.7611 60.9227C39.5761 63.5348 38.4769 63.9933 38.1383 65.0798C37.8833 65.9026 37.8533 67.529 38.3611 68.5062Z" fill="#FCFCFC"/>
<path d="M41.7104 66.5605L38.2411 64.5591C36.8525 63.7727 34.9411 63.8948 32.8326 65.1119C28.5854 67.5633 25.144 73.5247 25.144 78.4276C25.144 80.864 26.0012 82.5782 27.3705 83.3882L30.8376 85.3896L31.3261 84.1039C32.073 83.9131 32.7888 83.6165 33.4518 83.2232C37.699 80.7718 41.1404 74.8104 41.1404 69.9076C41.1508 69.1436 41.0541 68.3819 40.8532 67.6448L41.7104 66.5605Z" fill="#855DCF"/>
<path opacity="0.1" d="M25.2104 77.2275C25.1665 77.6261 25.1436 78.0266 25.1418 78.4275C25.1418 80.8639 25.999 82.5782 27.3683 83.3882L30.8354 85.3896L31.3239 84.1039C31.4847 84.0653 31.6475 84.0182 31.8104 83.9646L32.5368 81.4575L25.2104 77.2275Z" fill="black"/>
<path d="M41.7382 79.128C44.7401 73.9287 44.74 68.3087 41.738 66.5756C38.7361 64.8424 33.869 67.6523 30.8672 72.8516C27.8654 78.051 27.8654 83.6709 30.8674 85.4041C33.8693 87.1372 38.7364 84.3273 41.7382 79.128Z" fill="#855DCF"/>
<path opacity="0.3" d="M41.7382 79.128C44.7401 73.9287 44.74 68.3087 41.738 66.5756C38.7361 64.8424 33.869 67.6523 30.8672 72.8516C27.8654 78.051 27.8654 83.6709 30.8674 85.4041C33.8693 87.1372 38.7364 84.3273 41.7382 79.128Z" fill="#FCFCFC"/>
<path d="M42.1389 68.6584C41.1853 67.0084 39.231 66.8219 36.9103 68.1612C33.0725 70.3769 29.8282 75.9954 29.8282 80.429C29.8282 81.5904 30.0425 82.5911 30.4711 83.3218C31.4247 84.9739 33.3789 85.1604 35.6996 83.819C39.5375 81.6033 42.7817 75.9847 42.7817 71.5555C42.7817 70.3941 42.5674 69.3933 42.1389 68.6626V68.6584Z" fill="#855DCF"/>
<path d="M42.2417 68.7205C41.1703 67.0062 39.0703 66.7298 36.6467 68.0112C32.6375 70.1284 29.3932 75.7469 29.5625 80.279C29.6075 81.4661 29.8839 82.4969 30.3639 83.2618C31.4353 84.9761 33.5353 85.2504 35.9567 83.9711C39.9681 81.8519 43.2102 76.2355 43.041 71.7034C42.996 70.5141 42.7195 69.4834 42.2417 68.7205Z" fill="#855DCF"/>
<path d="M35.1767 83.5319C33.6339 84.3462 32.226 84.5326 31.1289 84.1169C30.8255 83.8784 30.5665 83.5882 30.3639 83.2598C29.8839 82.4948 29.6075 81.4641 29.5625 80.2769C29.3932 75.7448 32.6375 70.1263 36.6467 68.0092C38.1896 67.1928 39.5953 67.0085 40.6945 67.4242C40.9979 67.6627 41.2569 67.9529 41.4595 68.2813C41.9374 69.0442 42.2138 70.077 42.2588 71.2642C42.4303 75.7963 39.186 81.4126 35.1767 83.5319Z" fill="#FAFAFA"/>
<path d="M35.8303 69.1277C35.782 69.1608 35.7424 69.2048 35.7144 69.2562C35.6865 69.3076 35.6711 69.3649 35.6696 69.4234V70.2548C35.6696 70.3662 35.7424 70.4155 35.8324 70.3619C35.8806 70.3288 35.9203 70.2848 35.9483 70.2334C35.9762 70.182 35.9916 70.1247 35.9931 70.0662V69.2348C35.9931 69.1234 35.9246 69.0741 35.8303 69.1277Z" fill="#855DCF"/>
<path d="M41.3546 72.3163C41.35 72.3746 41.3317 72.4311 41.3012 72.481C41.2706 72.5309 41.2287 72.5728 41.1788 72.6034L40.4588 73.0213C40.3624 73.077 40.2853 73.0384 40.2853 72.9356C40.2897 72.8769 40.3079 72.8201 40.3384 72.7698C40.369 72.7196 40.411 72.6772 40.461 72.6463L41.181 72.2284C41.2817 72.1749 41.3546 72.2134 41.3546 72.3163Z" fill="#855DCF"/>
<path d="M30.1046 79.0555C30.1093 78.9969 30.1277 78.9402 30.1582 78.89C30.1887 78.8398 30.2305 78.7974 30.2803 78.7662L31.0003 78.3505C31.0968 78.2948 31.1739 78.3333 31.1739 78.4362C31.1695 78.4949 31.1513 78.5516 31.1208 78.6019C31.0902 78.6522 31.0482 78.6945 30.9982 78.7255L30.2782 79.1412C30.1818 79.1862 30.1046 79.1476 30.1046 79.0555Z" fill="#855DCF"/>
<path d="M35.6289 82.2333C35.6771 82.2002 35.7168 82.1561 35.7448 82.1048C35.7727 82.0534 35.7881 81.9961 35.7896 81.9376V81.104C35.7896 80.9948 35.7168 80.9455 35.6268 80.999C35.5786 81.0322 35.5389 81.0762 35.5109 81.1276C35.483 81.179 35.4676 81.2363 35.4661 81.2948V82.1262C35.4661 82.2376 35.5389 82.2847 35.6289 82.2333Z" fill="#855DCF"/>
<path d="M36.1582 76.2913L32.0825 75.7063H36.4775L36.1582 76.2913Z" fill="#855DCF"/>
<path d="M36.3146 71.2298C36.3146 71.2298 36.6918 74.7312 36.8096 75.5433C36.8212 75.5903 36.827 75.6385 36.8268 75.6869C36.8167 75.8689 36.7639 76.046 36.6727 76.2038C36.5815 76.3617 36.4544 76.4958 36.3018 76.5954C36.2491 76.6344 36.1869 76.6586 36.1217 76.6654C36.0565 76.6721 35.9906 76.6613 35.9311 76.634L35.6503 76.4711C35.5958 76.4339 35.5525 76.3825 35.5249 76.3225C35.4974 76.2624 35.4867 76.1961 35.4939 76.1304C35.4446 75.2904 35.7575 71.2619 35.7575 71.2619L36.0296 71.0669L36.3146 71.2298Z" fill="#2D3B42"/>
<path d="M36.8267 75.6868C36.8166 75.8689 36.7639 76.046 36.6727 76.2038C36.5815 76.3616 36.4544 76.4958 36.3017 76.5954C36.0124 76.7647 35.7767 76.6275 35.7767 76.2933C35.7296 75.4554 36.0403 71.4269 36.0403 71.4269L36.3146 71.2297C36.3146 71.2297 36.8246 75.3504 36.8267 75.6868Z" fill="#647781"/>
<path d="M36.5396 75.8539C36.5346 75.9363 36.5105 76.0163 36.4692 76.0877C36.4279 76.1591 36.3706 76.22 36.3017 76.2654C36.171 76.3404 36.0638 76.2782 36.0638 76.1282C36.0683 76.0458 36.0922 75.9656 36.1336 75.8941C36.1749 75.8226 36.2325 75.7618 36.3017 75.7168C36.4324 75.6418 36.5396 75.7018 36.5396 75.8539Z" fill="#263238"/>
<path d="M40.5402 75.5369L39.6956 75.6387L39.704 75.7089L40.5486 75.6071L40.5402 75.5369Z" fill="#2D3B42"/>
<path d="M37.7417 79.1116L37.6766 79.1394L38.0109 79.9217L38.076 79.8939L37.7417 79.1116Z" fill="#2D3B42"/>
<path d="M33.4876 71.4544L33.4226 71.4822L33.7569 72.2644L33.8219 72.2367L33.4876 71.4544Z" fill="#2D3B42"/>
<path d="M31.7793 75.6839L30.9347 75.7856L30.9432 75.8559L31.7878 75.7541L31.7793 75.6839Z" fill="#2D3B42"/>
<path d="M41.1095 69.7802L40.3524 70.6296L40.4052 70.6767L41.1623 69.8273L41.1095 69.7802Z" fill="#2D3B42"/>
<path d="M38.0802 68.0492L37.7228 69.1294L37.7899 69.1516L38.1474 68.0714L38.0802 68.0492Z" fill="#2D3B42"/>
<path d="M33.664 82.2125L33.3065 83.2927L33.3736 83.3149L33.7311 82.2347L33.664 82.2125Z" fill="#2D3B42"/>
<path d="M31.0461 80.6956L30.2886 81.5447L30.3413 81.5918L31.0989 80.7427L31.0461 80.6956Z" fill="#2D3B42"/>
<path d="M35.6589 64.4627C35.655 64.4166 35.6388 64.3725 35.612 64.3348C35.5853 64.2971 35.5489 64.2673 35.5068 64.2484C35.3922 64.1902 35.2656 64.1599 35.1371 64.1599C35.0087 64.1599 34.882 64.1902 34.7675 64.2484C34.7253 64.2673 34.689 64.2971 34.6623 64.3348C34.6355 64.3725 34.6193 64.4166 34.6154 64.4627V66.4662C34.6193 66.5123 34.6355 66.5564 34.6623 66.5941C34.689 66.6317 34.7253 66.6616 34.7675 66.6805C34.882 66.7387 35.0087 66.769 35.1371 66.769C35.2656 66.769 35.3922 66.7387 35.5068 66.6805C35.5489 66.6616 35.5853 66.6317 35.612 66.5941C35.6388 66.5564 35.655 66.5123 35.6589 66.4662V64.4627Z" fill="#647781"/>
<path d="M34.7675 64.677C34.7256 64.6577 34.6895 64.6277 34.6628 64.5901C34.6361 64.5525 34.6198 64.5086 34.6154 64.4627C34.6193 64.4166 34.6355 64.3725 34.6623 64.3348C34.689 64.2971 34.7253 64.2673 34.7675 64.2484C34.882 64.1902 35.0087 64.1599 35.1371 64.1599C35.2656 64.1599 35.3922 64.1902 35.5068 64.2484C35.5489 64.2673 35.5853 64.2971 35.612 64.3348C35.6388 64.3725 35.655 64.4166 35.6589 64.4627C35.6545 64.5086 35.6382 64.5525 35.6115 64.5901C35.5848 64.6277 35.5487 64.6577 35.5068 64.677C35.3922 64.7351 35.2656 64.7654 35.1371 64.7654C35.0087 64.7654 34.882 64.7351 34.7675 64.677Z" fill="#2D3B42"/>
<path d="M36.6296 63.239C36.6184 63.1087 36.5728 62.9837 36.4975 62.8768C36.4222 62.7699 36.3199 62.6849 36.2011 62.6304C35.8744 62.4646 35.5132 62.3782 35.1468 62.3782C34.7804 62.3782 34.4192 62.4646 34.0925 62.6304C33.9736 62.6849 33.8713 62.7699 33.7961 62.8768C33.7208 62.9837 33.6752 63.1087 33.6639 63.239V65.0647C33.6752 65.195 33.7208 65.3199 33.7961 65.4268C33.8713 65.5338 33.9736 65.6188 34.0925 65.6733C34.4192 65.8391 34.7804 65.9255 35.1468 65.9255C35.5132 65.9255 35.8744 65.8391 36.2011 65.6733C36.3199 65.6188 36.4222 65.5338 36.4975 65.4268C36.5728 65.3199 36.6184 65.195 36.6296 65.0647V63.239Z" fill="#855DCF"/>
<path opacity="0.3" d="M34.0839 63.8412C33.9568 63.798 33.8465 63.716 33.7684 63.6069C33.6902 63.4977 33.6482 63.3669 33.6482 63.2327C33.6482 63.0984 33.6902 62.9676 33.7684 62.8584C33.8465 62.7493 33.9568 62.6673 34.0839 62.6241C34.4106 62.4583 34.7718 62.3718 35.1382 62.3718C35.5046 62.3718 35.8658 62.4583 36.1925 62.6241C36.3195 62.6673 36.4299 62.7493 36.508 62.8584C36.5862 62.9676 36.6282 63.0984 36.6282 63.2327C36.6282 63.3669 36.5862 63.4977 36.508 63.6069C36.4299 63.716 36.3195 63.798 36.1925 63.8412C35.8658 64.007 35.5046 64.0935 35.1382 64.0935C34.7718 64.0935 34.4106 64.007 34.0839 63.8412Z" fill="#FCFCFC"/>
<path opacity="0.2" d="M34.1482 63.8798V65.7055C34.1889 65.7248 34.2339 65.7462 34.2789 65.7633V63.9398C34.2342 63.9224 34.1905 63.9023 34.1482 63.8798ZM34.6046 64.0405V65.8683L34.7353 65.8898V64.0555C34.6914 64.0538 34.6477 64.0488 34.6046 64.0405ZM33.7817 63.5969V65.4226C33.8209 65.4704 33.8647 65.5142 33.9125 65.5533V63.7298C33.8636 63.691 33.8197 63.6464 33.7817 63.5969ZM35.9782 63.9462V65.7698C36.0229 65.7524 36.0665 65.7323 36.1089 65.7098V63.8862C36.0675 63.9092 36.0245 63.9292 35.9803 63.9462H35.9782ZM36.3424 63.7426V65.5662C36.3894 65.5285 36.4325 65.4861 36.471 65.4398V63.6269C36.4359 63.6696 36.3964 63.7084 36.3531 63.7426H36.3424ZM35.5217 64.0662V65.8919L35.6524 65.8705V64.0426C35.6102 64.0535 35.5672 64.0614 35.5239 64.0662H35.5217ZM35.0696 64.0962V65.9219H35.2003V64.0962C35.1561 64.1006 35.1116 64.1006 35.0674 64.0962H35.0696Z" fill="black"/>
<path d="M30.6425 71.7268C29.8497 73.096 28.3582 73.7153 27.2354 73.0682C26.9037 72.8827 26.6122 72.6331 26.3779 72.3339C26.1435 72.0347 25.971 71.692 25.8703 71.3255C25.7696 70.9591 25.7428 70.5763 25.7913 70.1993C25.8399 69.8224 25.9629 69.4589 26.1533 69.13C26.3436 68.8011 26.5974 68.5132 26.9 68.2833C27.2025 68.0533 27.5478 67.8858 27.9156 67.7904C28.2835 67.6951 28.6667 67.6738 29.0428 67.7279C29.419 67.782 29.7807 67.9103 30.1068 68.1054C31.2232 68.7696 31.4247 70.3553 30.6425 71.7268Z" fill="#647781"/>
<path d="M27.2353 73.0682C28.3582 73.7111 29.8496 73.0961 30.6425 71.7268C30.8196 71.4197 30.951 71.0883 31.0325 70.7433C30.9853 70.8033 29.6675 72.4854 28.0325 72.0118C26.3975 71.5382 26.0503 70.244 26.1939 69.1511C26.005 69.4767 25.882 69.8363 25.8321 70.2093C25.7821 70.5824 25.8062 70.9617 25.9029 71.3255C25.9997 71.6893 26.1671 72.0304 26.3957 72.3294C26.6244 72.6285 26.9097 72.8795 27.2353 73.0682Z" fill="#2D3B42"/>
<path d="M26.7747 68.8727L26.359 68.6306C26.2421 68.5646 26.1041 68.547 25.9744 68.5814C25.8447 68.6159 25.7336 68.6996 25.6648 68.8148C25.596 68.9301 25.5749 69.0676 25.6062 69.1981C25.6374 69.3287 25.7184 69.4418 25.8319 69.5134L26.2604 69.762C26.372 69.8034 26.4953 69.8003 26.6047 69.7532C26.714 69.7061 26.801 69.6187 26.8476 69.5091C26.989 69.2627 26.9569 68.9841 26.7747 68.8727Z" fill="#855DCF"/>
<path d="M42.7067 64.2227L43.1995 63.3655C43.2694 63.2482 43.2899 63.1079 43.2563 62.9754C43.2228 62.843 43.138 62.7294 43.0206 62.6595C42.9033 62.5896 42.7629 62.5691 42.6305 62.6027C42.4981 62.6363 42.3845 62.721 42.3146 62.8384L41.8174 63.6955C41.776 63.8071 41.7791 63.9304 41.8262 64.0398C41.8733 64.1491 41.9607 64.2361 42.0703 64.2827C42.3167 64.437 42.6017 64.4048 42.7067 64.2227Z" fill="#855DCF"/>
<path d="M38.7725 64.2699C39.1626 63.6312 39.787 63.1704 40.5123 62.986C41.2376 62.8015 42.0063 62.9079 42.6542 63.2825C43.3021 63.657 43.7778 64.2701 43.9798 64.9907C44.1818 65.7113 44.0941 66.4823 43.7353 67.1391L38.7725 64.2699Z" fill="#647781"/>
<path d="M43.1139 63.5156C43.2767 63.8542 43.716 65.2856 43.1139 65.6413C42.5117 65.997 39.7346 64.8163 39.7346 64.8163L43.7374 67.1306C44.0728 66.5503 44.194 65.8707 44.0801 65.2102C43.9662 64.5497 43.6243 63.9501 43.1139 63.5156Z" fill="#2D3B42"/>
<path d="M52.2853 47.5706C52.2694 47.5051 52.2403 47.4436 52.1998 47.3898C52.1593 47.336 52.1081 47.291 52.0495 47.2578L8.33557 22.7158L51.5995 48.2435C51.6832 48.2936 51.78 48.3175 51.8774 48.3122C51.9748 48.3068 52.0684 48.2724 52.1461 48.2134C52.2238 48.1544 52.282 48.0734 52.3133 47.981C52.3446 47.8886 52.3475 47.789 52.3217 47.6949L52.2853 47.5706ZM69.8051 20.8537L56.9481 13.9966L69.3058 21.7108C69.3591 21.7446 69.4185 21.7674 69.4807 21.7781C69.5429 21.7887 69.6065 21.787 69.668 21.7729H69.6873C69.7887 21.7543 69.8817 21.704 69.9526 21.6291C70.0236 21.5542 70.0689 21.4587 70.082 21.3564C70.0951 21.254 70.0754 21.1502 70.0256 21.0598C69.9758 20.9695 69.8986 20.8973 69.8051 20.8537ZM63.0359 24.9829L27.5526 5.1145L62.4809 25.8872C62.5689 25.9391 62.6709 25.9623 62.7727 25.9535C62.8745 25.9446 62.971 25.9042 63.0487 25.8379L63.1152 25.7822C63.1758 25.7313 63.2231 25.6664 63.2529 25.5931C63.2828 25.5199 63.2943 25.4404 63.2865 25.3616C63.2787 25.2829 63.2517 25.2072 63.2081 25.1413C63.1644 25.0753 63.1053 25.0209 63.0359 24.9829ZM53.226 39.3143C53.2901 39.3526 53.3621 39.3758 53.4366 39.3819C53.511 39.3881 53.5859 39.3771 53.6555 39.3497C53.725 39.3224 53.7873 39.2795 53.8377 39.2243C53.8881 39.1691 53.9251 39.1031 53.946 39.0314C53.9931 38.8664 54.0445 38.6993 54.096 38.5343L23.4533 21.4901L53.226 39.3143ZM57.5116 30.9807L36.2525 19.3323L56.9695 31.9129C57.0771 31.9763 57.2048 31.9963 57.3266 31.9688C57.4485 31.9414 57.5553 31.8685 57.6252 31.765L57.6831 31.6793C57.7208 31.6235 57.7467 31.5606 57.7589 31.4943C57.7712 31.4281 57.7696 31.36 57.7543 31.2944C57.7391 31.2288 57.7104 31.1671 57.6701 31.1131C57.6298 31.0591 57.5788 31.0141 57.5202 30.9807H57.5116Z" fill="#F5F5F5"/>
<path d="M54.8374 33.4299C51.7989 32.6585 48.5032 33.8906 43.5939 31.1307C39.469 28.81 35.9311 23.5 35.0911 26.8621C34.8018 28.4842 37.3518 32.3992 38.839 33.6271C35.4768 32.1271 34.5533 32.6842 35.7468 35.2021C37.2875 38.4506 40.9475 40.8184 40.9475 40.8184C40.9475 40.8184 38.4597 41.382 40.6197 43.4906C43.4718 46.2763 49.0625 46.0448 49.0625 46.0448C49.0625 46.0448 44.7532 47.2277 46.9925 48.3312C47.653 48.6091 48.3591 48.7631 49.0753 48.7855C56.0503 49.2484 61.5167 41.1999 58.566 35.7978C57.7603 34.3192 56.0417 33.7363 54.8374 33.4299Z" fill="#855DCF"/>
<path opacity="0.65" d="M54.8374 33.4299C51.7989 32.6585 48.5032 33.8906 43.5939 31.1307C39.469 28.81 35.9311 23.5 35.0911 26.8621C34.8018 28.4842 37.3518 32.3992 38.839 33.6271C35.4768 32.1271 34.5533 32.6842 35.7468 35.2021C37.2875 38.4506 40.9475 40.8184 40.9475 40.8184C40.9475 40.8184 38.4597 41.382 40.6197 43.4906C43.4718 46.2763 49.0625 46.0448 49.0625 46.0448C49.0625 46.0448 44.7532 47.2277 46.9925 48.3312C47.653 48.6091 48.3591 48.7631 49.0753 48.7855C56.0503 49.2484 61.5167 41.1999 58.566 35.7978C57.7603 34.3192 56.0417 33.7363 54.8374 33.4299Z" fill="#FCFCFC"/>
<path opacity="0.4" d="M55.5638 36.237C53.6653 35.547 51.651 35.2491 49.7074 34.707C47.1146 33.9827 44.6653 32.8298 42.2311 31.6813L40.5018 30.4749C39.9811 31.4006 40.3004 32.7398 40.8447 33.6505C41.3889 34.5613 42.2546 35.232 43.1482 35.7934C42.7046 36.2691 42.7046 37.0427 43.0089 37.6169C43.3132 38.1912 43.8661 38.6005 44.4253 38.9219C45.2608 39.3946 46.1723 39.718 47.1189 39.8776C46.3946 40.1326 46.4568 40.7734 46.5232 41.0648C46.6028 41.3515 46.7385 41.6196 46.9224 41.8535C47.1063 42.0875 47.3348 42.2826 47.5946 42.4276C48.2632 42.8219 49.0582 42.9376 49.8317 43.0212C50.6302 43.08 51.4321 43.0736 52.2296 43.0019C51.966 43.3962 52.2424 43.949 52.6324 44.2169C53.7531 44.9926 55.3131 44.9497 56.5667 44.5576C57.0329 44.4095 57.4802 44.2075 57.8995 43.9555C58.9302 42.3141 59.4852 40.4369 59.3781 38.6327C58.3667 37.5334 56.9845 36.7555 55.5638 36.237Z" fill="#855DCF"/>
<path d="M52.9003 33.3913C50.9588 33.1197 49.0359 32.7289 47.1425 32.2213C45.2589 31.7113 43.5189 30.9613 41.7082 30.2649C41.4678 30.1472 41.1977 30.104 40.9325 30.1406C40.5296 30.2392 40.3389 30.6956 40.3175 31.1092C40.3179 31.7513 40.4919 32.3814 40.8211 32.9327C41.6062 34.1281 42.7974 34.9988 44.1746 35.3841C43.9263 35.4764 43.7149 35.6474 43.5729 35.871C43.4309 36.0947 43.366 36.3587 43.3882 36.6227C43.4718 37.4627 44.0546 37.8848 44.5303 38.1891C45.7282 38.9563 47.331 39.2605 48.7453 39.4084C48.2053 39.6377 47.601 39.9334 47.4403 40.4991C47.076 41.7848 48.7774 42.2005 49.6732 42.3677C50.871 42.5819 52.1053 42.4962 53.316 42.3998C52.9517 42.6634 53.0353 43.2719 53.3653 43.5784C54.3788 44.5234 56.6181 44.0198 57.6038 43.2269C58.9495 42.1405 59.5495 40.5227 59.3567 38.397C59.0567 36.897 58.0174 35.2234 56.7124 34.4113C55.6238 33.7341 54.2974 33.5884 53.0267 33.4084L52.9003 33.3913Z" fill="#855DCF"/>
<path opacity="0.75" d="M52.9003 33.3913C50.9588 33.1197 49.0359 32.7289 47.1425 32.2213C45.2589 31.7113 43.5189 30.9613 41.7082 30.2649C41.4678 30.1472 41.1977 30.104 40.9325 30.1406C40.5296 30.2392 40.3389 30.6956 40.3175 31.1092C40.3179 31.7513 40.4919 32.3814 40.8211 32.9327C41.6062 34.1281 42.7974 34.9988 44.1746 35.3841C43.9263 35.4764 43.7149 35.6474 43.5729 35.871C43.4309 36.0947 43.366 36.3587 43.3882 36.6227C43.4718 37.4627 44.0546 37.8848 44.5303 38.1891C45.7282 38.9563 47.331 39.2605 48.7453 39.4084C48.2053 39.6377 47.601 39.9334 47.4403 40.4991C47.076 41.7848 48.7774 42.2005 49.6732 42.3677C50.871 42.5819 52.1053 42.4962 53.316 42.3998C52.9517 42.6634 53.0353 43.2719 53.3653 43.5784C54.3788 44.5234 56.6181 44.0198 57.6038 43.2269C58.9495 42.1405 59.5495 40.5227 59.3567 38.397C59.0567 36.897 58.0174 35.2234 56.7124 34.4113C55.6238 33.7341 54.2974 33.5884 53.0267 33.4084L52.9003 33.3913Z" fill="#FCFCFC"/>
<path opacity="0.4" d="M58.5659 35.7955C57.7602 34.3191 56.0416 33.7363 54.8374 33.4384C51.7988 32.667 48.5031 33.8991 43.5939 31.1391C40.5939 29.457 37.9196 26.2106 36.3511 25.8228L36.4025 26.382C37.8875 26.9242 38.9953 28.8013 41.2968 30.7749C43.5982 32.7484 46.5231 34.0148 50.6824 34.3748C54.8417 34.7348 56.9245 34.3748 58.5145 36.7898C58.7673 37.1734 58.9602 37.2505 59.1059 37.107C58.9736 36.6517 58.7926 36.212 58.5659 35.7955Z" fill="#855DCF"/>
<path d="M59.3524 38.3972C59.256 35.9308 57.7774 32.8429 53.5946 32.8108C47.9868 32.7658 43.9518 31.2379 39.5547 27.1537C37.4119 25.1673 35.0676 24.9851 35.0719 27.248C35.2219 25.9258 36.8162 25.9623 38.6054 27.833C40.6754 29.9994 43.0133 32.2686 47.7854 33.3808C52.5575 34.4929 54.3146 33.8093 56.1017 34.5786C57.4517 35.1593 58.656 36.6507 59.3524 38.3972Z" fill="#855DCF"/>
<path opacity="0.9" d="M59.3524 38.3972C59.256 35.9308 57.7774 32.8429 53.5946 32.8108C47.9868 32.7658 43.9518 31.2379 39.5547 27.1537C37.4119 25.1673 35.0676 24.9851 35.0719 27.248C35.2219 25.9258 36.8162 25.9623 38.6054 27.833C40.6754 29.9994 43.0133 32.2686 47.7854 33.3808C52.5575 34.4929 54.3146 33.8093 56.1017 34.5786C57.4517 35.1593 58.656 36.6507 59.3524 38.3972Z" fill="#FCFCFC"/>
<path d="M76.478 23.1271C77.7894 20.4636 80.6951 18.8522 81.7301 13.6108C82.5979 9.20511 80.9608 3.37015 83.8879 4.84657C85.2207 5.63513 86.47 9.89939 86.4357 11.7294C87.4322 8.38654 88.39 8.05869 89.4636 10.478C90.8478 13.5958 90.2993 17.6972 90.2993 17.6972C90.2993 17.6972 92.0414 16.5101 92.0736 19.375C92.1143 22.8036 88.3986 27.625 88.3986 27.625C89.425 26.7143 91.8571 25.6107 91.0021 27.9571C90.6593 28.9021 88.8121 31.0257 85.0815 32.6607C80.6115 34.6192 75.9851 31.1842 75.8844 27.2757C75.8437 25.6986 75.9572 24.1986 76.478 23.1271Z" fill="#855DCF"/>
<path opacity="0.65" d="M76.478 23.1271C77.7894 20.4636 80.6951 18.8522 81.7301 13.6108C82.5979 9.20511 80.9608 3.37015 83.8879 4.84657C85.2207 5.63513 86.47 9.89939 86.4357 11.7294C87.4322 8.38654 88.39 8.05869 89.4636 10.478C90.8478 13.5958 90.2993 17.6972 90.2993 17.6972C90.2993 17.6972 92.0414 16.5101 92.0736 19.375C92.1143 22.8036 88.3986 27.625 88.3986 27.625C89.425 26.7143 91.8571 25.6107 91.0021 27.9571C90.6593 28.9021 88.8121 31.0257 85.0815 32.6607C80.6115 34.6192 75.9851 31.1842 75.8844 27.2757C75.8437 25.6986 75.9572 24.1986 76.478 23.1271Z" fill="#FCFCFC"/>
<path opacity="0.4" d="M78.0466 25.3964C78.7151 23.6029 79.7373 21.9679 80.5408 20.2322C81.6122 17.9179 82.2894 15.4408 82.9601 12.9787L83.1572 10.9858C84.1408 11.1851 84.9058 12.2437 85.2251 13.1973C85.5444 14.1508 85.4929 15.1922 85.3536 16.1972C85.9665 16.1715 86.5194 16.6494 86.7465 17.2237C86.941 17.8144 86.964 18.4482 86.8129 19.0515C86.6412 19.9414 86.3164 20.7948 85.8529 21.5736C86.4808 21.2115 86.9008 21.6508 87.0701 21.88C87.2277 22.1132 87.3375 22.3753 87.393 22.6512C87.4486 22.927 87.4488 23.2112 87.3936 23.4872C87.2672 24.2136 86.8622 24.8565 86.4486 25.465C86.0008 26.0763 85.5034 26.6496 84.9615 27.1793C85.4072 27.2307 85.6322 27.7729 85.5872 28.2207C85.4544 29.5064 84.4665 30.6036 83.4144 31.2635C83.022 31.5074 82.6028 31.7052 82.1651 31.8528C79.7737 32.38 77.2923 31.3535 77.4508 29.6221C77.2537 28.2164 77.5451 26.74 78.0466 25.3964Z" fill="#855DCF"/>
<path d="M77.6394 21.7172C78.6357 20.1504 79.536 18.5246 80.3351 16.8486C81.1237 15.1772 81.6551 13.4587 82.2637 11.7251C82.3261 11.477 82.4611 11.2532 82.6515 11.0823C82.9708 10.853 83.4122 10.9987 83.7229 11.2387C84.1852 11.6397 84.5309 12.1578 84.7236 12.7387C85.0963 14.0433 84.9891 15.4384 84.4215 16.6708C84.6401 16.5484 84.8931 16.5015 85.141 16.5376C85.389 16.5736 85.6182 16.6905 85.7929 16.8701C86.3436 17.4508 86.2879 18.1322 86.2215 18.6636C86.0351 19.9986 85.2765 21.3465 84.5072 22.4522C85.0044 22.2036 85.5786 21.9529 86.0908 22.1865C87.2308 22.7136 86.4915 24.2029 86.0608 24.9507C85.4843 25.9514 84.6594 26.7807 83.8515 27.5907C84.2629 27.49 84.6486 27.9271 84.6658 28.3536C84.7215 29.6693 82.9858 30.97 81.8115 31.1885C80.2065 31.4864 78.2951 31.7585 76.883 30.3036C75.9851 29.1571 75.8116 26.5343 76.0258 25.0943C76.2101 23.89 76.9194 22.8465 77.5687 21.82L77.6394 21.7172Z" fill="#855DCF"/>
<path opacity="0.75" d="M77.6394 21.7172C78.6357 20.1504 79.536 18.5246 80.3351 16.8486C81.1237 15.1772 81.6551 13.4587 82.2637 11.7251C82.3261 11.477 82.4611 11.2532 82.6515 11.0823C82.9708 10.853 83.4122 10.9987 83.7229 11.2387C84.1852 11.6397 84.5309 12.1578 84.7236 12.7387C85.0963 14.0433 84.9891 15.4384 84.4215 16.6708C84.6401 16.5484 84.8931 16.5015 85.141 16.5376C85.389 16.5736 85.6182 16.6905 85.7929 16.8701C86.3436 17.4508 86.2879 18.1322 86.2215 18.6636C86.0351 19.9986 85.2765 21.3465 84.5072 22.4522C85.0044 22.2036 85.5786 21.9529 86.0908 22.1865C87.2308 22.7136 86.4915 24.2029 86.0608 24.9507C85.4843 25.9514 84.6594 26.7807 83.8515 27.5907C84.2629 27.49 84.6486 27.9271 84.6658 28.3536C84.7215 29.6693 82.9858 30.97 81.8115 31.1885C80.2065 31.4864 78.2951 31.7585 76.883 30.3036C75.9851 29.1571 75.8116 26.5343 76.0258 25.0943C76.2101 23.89 76.9194 22.8465 77.5687 21.82L77.6394 21.7172Z" fill="#FCFCFC"/>
<path opacity="0.4" d="M75.6637 27.5072C75.3701 25.9365 75.9573 24.1922 76.478 23.1358C77.7894 20.4722 80.6951 18.8608 81.7301 13.6194C82.3601 10.4245 81.6722 6.47735 82.3622 5.1145L82.7329 5.49593C82.2101 6.90163 82.8765 8.86233 82.8787 11.7402C82.8808 14.618 82.3215 17.6973 80.0265 20.9137C77.7315 24.1301 76.8123 25.1136 76.6237 27.8586C76.5723 28.5743 76.5637 29.2858 76.3708 29.3029C76.0175 28.7576 75.777 28.147 75.6637 27.5072Z" fill="#855DCF"/>
<path d="M76.8851 30.3014C75.1709 28.705 74.2516 24.8907 76.7951 21.8586C80.2044 17.7872 81.2951 13.9108 81.3573 8.24942C81.3915 5.11445 82.5572 3.6766 84.1772 5.08016C83.1358 4.36874 82.2487 5.6523 82.3087 8.27085C82.3665 11.288 82.2851 14.6994 80.7701 18.0294C78.8523 22.2572 77.0716 22.9965 76.5251 24.7579C76.1116 26.0907 76.058 28.72 76.8851 30.3014Z" fill="#855DCF"/>
<path opacity="0.9" d="M76.8851 30.3014C75.1709 28.705 74.2516 24.8907 76.7951 21.8586C80.2044 17.7872 81.2951 13.9108 81.3573 8.24942C81.3915 5.11445 82.5572 3.6766 84.1772 5.08016C83.1358 4.36874 82.2487 5.6523 82.3087 8.27085C82.3665 11.288 82.2851 14.6994 80.7701 18.0294C78.8523 22.2572 77.0716 22.9965 76.5251 24.7579C76.1116 26.0907 76.058 28.72 76.8851 30.3014Z" fill="#FCFCFC"/>
<path d="M82.3087 27.1535L76.6944 23.9157C74.4466 22.63 71.3545 22.8443 67.9388 24.8093C61.0667 28.7757 55.4974 38.4249 55.4974 46.3598C55.4974 50.3048 56.8731 53.0798 59.0996 54.3912L64.7117 57.6269L65.5024 55.5462C66.711 55.235 67.8696 54.7545 68.9438 54.119C75.8159 50.1526 81.3872 40.5034 81.3872 32.5685C81.3986 31.3336 81.2378 30.1032 80.9094 28.9128L82.3087 27.1535Z" fill="#855DCF"/>
<path opacity="0.1" d="M55.6046 44.4207C55.5352 45.0648 55.4995 45.7121 55.4974 46.3599C55.4974 50.3049 56.8731 53.0799 59.0996 54.3913L64.7117 57.627L65.5024 55.5463C65.7616 55.482 66.0231 55.4049 66.2888 55.3191L67.4652 51.2627L55.6046 44.4207Z" fill="black"/>
<path d="M82.3502 47.4952C87.2095 39.0787 87.2097 29.9815 82.3506 27.1761C77.4915 24.3707 69.6132 28.9195 64.754 37.336C59.8947 45.7525 59.8945 54.8497 64.7536 57.655C69.6127 60.4604 77.4909 55.9117 82.3502 47.4952Z" fill="#855DCF"/>
<path opacity="0.3" d="M82.3502 47.4952C87.2095 39.0787 87.2097 29.9815 82.3506 27.1761C77.4915 24.3707 69.6132 28.9195 64.754 37.336C59.8947 45.7525 59.8945 54.8497 64.7536 57.655C69.6127 60.4604 77.4909 55.9117 82.3502 47.4952Z" fill="#FCFCFC"/>
<path d="M82.9944 30.55C81.4515 27.8778 78.2801 27.5757 74.5323 29.7443C68.3181 33.3335 63.066 42.4256 63.0681 49.602C63.0681 51.4812 63.4281 53.1012 64.1117 54.2841C65.6545 56.9583 68.8259 57.2583 72.5738 55.0898C78.788 51.5027 84.038 42.4085 84.038 35.2321C84.038 33.3528 83.678 31.7328 82.9944 30.55Z" fill="#855DCF"/>
<path d="M83.1658 30.6486C81.4172 27.8629 78.023 27.4343 74.1101 29.5C67.6195 32.9286 62.3695 42.0228 62.6459 49.3577C62.7188 51.2863 63.1645 52.9491 63.9316 54.1855C65.6802 56.9712 69.0637 57.3998 72.9873 55.3341C79.478 51.9056 84.7279 42.8113 84.4515 35.4764C84.3786 33.5478 83.9308 31.885 83.1658 30.6486Z" fill="#855DCF"/>
<path d="M71.7316 54.6269C69.233 55.9469 66.9552 56.2469 65.1787 55.574C64.6877 55.189 64.2685 54.7204 63.9402 54.1897C63.1645 52.9533 62.7188 51.284 62.6545 49.3619C62.3781 42.027 67.628 32.9349 74.1187 29.5042C76.6151 28.1863 78.8929 27.8842 80.6715 28.5571C81.1625 28.9429 81.5818 29.4122 81.9101 29.9435C82.6836 31.1777 83.1315 32.8492 83.1958 34.7691C83.47 42.102 78.2222 51.1983 71.7316 54.6269Z" fill="#FAFAFA"/>
<path d="M72.7816 31.3086C72.7034 31.362 72.6389 31.4331 72.5935 31.5162C72.5481 31.5992 72.5229 31.6918 72.5201 31.7865V33.1343C72.5201 33.3143 72.638 33.3914 72.7816 33.3079C72.8598 33.2539 72.9244 33.1824 72.9702 33.0991C73.0159 33.0157 73.0416 32.9229 73.0451 32.8279V31.4843C73.0516 31.3 72.9337 31.2229 72.7816 31.3086Z" fill="#855DCF"/>
<path d="M81.7301 36.4707C81.723 36.565 81.6936 36.6563 81.6445 36.7371C81.5953 36.8179 81.5277 36.886 81.4473 36.9357L80.2816 37.6107C80.1273 37.7007 80.0009 37.6385 80.0009 37.4714C80.0086 37.3767 80.0384 37.2851 80.0879 37.204C80.1374 37.1229 80.2052 37.0545 80.2858 37.0043L81.4516 36.3293C81.6058 36.2393 81.7301 36.3014 81.7301 36.4707Z" fill="#855DCF"/>
<path d="M63.5223 47.3606C63.5295 47.266 63.5588 47.1744 63.608 47.0933C63.6571 47.0121 63.7247 46.9437 63.8052 46.8935L64.973 46.2185C65.1273 46.1285 65.2538 46.1928 65.2538 46.3599C65.2457 46.4545 65.2157 46.546 65.1663 46.6271C65.1168 46.7081 65.0492 46.7766 64.9688 46.8271L63.8031 47.502C63.6466 47.592 63.5223 47.5278 63.5223 47.3606Z" fill="#855DCF"/>
<path d="M72.4623 52.5226C72.5403 52.4685 72.6045 52.3969 72.6499 52.3136C72.6953 52.2302 72.7206 52.1374 72.7237 52.0426V50.6947C72.7237 50.5147 72.6059 50.4376 72.4623 50.5233C72.3838 50.5766 72.3191 50.6476 72.2733 50.7307C72.2275 50.8137 72.2019 50.9064 72.1987 51.0011V52.349C72.2009 52.529 72.3187 52.6061 72.4623 52.5226Z" fill="#855DCF"/>
<path d="M73.3195 42.9034L66.7217 41.9563H73.8359L73.3195 42.9034Z" fill="#855DCF"/>
<path d="M73.5723 34.7113C73.5723 34.7113 74.183 40.3791 74.3737 41.6926C74.3923 41.7691 74.4017 41.8475 74.4016 41.9262C74.3848 42.2218 74.2984 42.5092 74.1494 42.765C74.0005 43.0208 73.7932 43.2378 73.5445 43.3983C73.4587 43.4607 73.3579 43.4989 73.2523 43.5091C73.1468 43.5193 73.0405 43.501 72.9445 43.4562L72.4902 43.1948C72.4014 43.1346 72.3307 43.0513 72.2857 42.9538C72.2408 42.8564 72.2233 42.7486 72.2352 42.6419C72.158 41.2855 72.6637 34.7648 72.6637 34.7648L73.1073 34.4456L73.5723 34.7113Z" fill="#2D3B42"/>
<path d="M74.4016 41.9264C74.3848 42.2219 74.2984 42.5093 74.1494 42.7651C74.0005 43.021 73.7932 43.238 73.5445 43.3985C73.0752 43.6685 72.6873 43.4499 72.6873 42.9078C72.6102 41.5514 73.1159 35.0307 73.1159 35.0307L73.5595 34.7114C73.5595 34.7114 74.3995 41.3821 74.4016 41.9264Z" fill="#647781"/>
<path d="M73.9366 42.1984C73.9286 42.3313 73.8898 42.4605 73.8232 42.5758C73.7567 42.6911 73.6641 42.7893 73.553 42.8627C73.3387 42.9848 73.1694 42.8862 73.1694 42.6484C73.1774 42.5155 73.2162 42.3862 73.2828 42.2709C73.3493 42.1556 73.4419 42.0574 73.553 41.9841C73.7651 41.8512 73.9366 41.9498 73.9366 42.1984Z" fill="#263238"/>
<path d="M80.4148 41.6765L79.049 41.8411L79.0625 41.9538L80.4284 41.7893L80.4148 41.6765Z" fill="#2D3B42"/>
<path d="M75.8757 47.4749L75.7712 47.5195L76.3119 48.7846L76.4163 48.7399L75.8757 47.4749Z" fill="#2D3B42"/>
<path d="M68.892 35.3156L68.7875 35.3599L69.324 36.6255L69.4285 36.5812L68.892 35.3156Z" fill="#2D3B42"/>
<path d="M66.2374 41.9158L64.8716 42.0803L64.8852 42.1931L66.251 42.0285L66.2374 41.9158Z" fill="#2D3B42"/>
<path d="M81.3384 32.3771L80.1118 33.7524L80.1966 33.828L81.4232 32.4527L81.3384 32.3771Z" fill="#2D3B42"/>
<path d="M76.4283 29.5632L75.8494 31.3127L75.9572 31.3484L76.5361 29.5989L76.4283 29.5632Z" fill="#2D3B42"/>
<path d="M69.281 52.4909L68.702 54.2405L68.8098 54.2762L69.3888 52.5266L69.281 52.4909Z" fill="#2D3B42"/>
<path d="M65.5791 50.0224L64.3444 51.4045L64.4295 51.4806L65.6642 50.0985L65.5791 50.0224Z" fill="#2D3B42"/>
<path d="M72.5116 23.7699C72.504 23.6959 72.4773 23.6253 72.4341 23.5648C72.3909 23.5043 72.3327 23.4561 72.2652 23.4249C72.08 23.3308 71.8751 23.2817 71.6673 23.2817C71.4596 23.2817 71.2547 23.3308 71.0695 23.4249C71.0016 23.4558 70.943 23.5039 70.8994 23.5644C70.8558 23.6249 70.8288 23.6957 70.8209 23.7699V27.0099C70.8288 27.084 70.8558 27.1549 70.8994 27.2154C70.943 27.2759 71.0016 27.324 71.0695 27.3549C71.2547 27.449 71.4596 27.498 71.6673 27.498C71.8751 27.498 72.08 27.449 72.2652 27.3549C72.3334 27.3248 72.3923 27.2768 72.4357 27.2161C72.4791 27.1554 72.5053 27.0842 72.5116 27.0099V23.7699Z" fill="#647781"/>
<path d="M71.0673 24.1041C70.9952 24.0797 70.9325 24.0333 70.8882 23.9714C70.8438 23.9095 70.8199 23.8353 70.8199 23.7591C70.8199 23.683 70.8438 23.6088 70.8882 23.5469C70.9325 23.485 70.9952 23.4386 71.0673 23.4141C71.2525 23.32 71.4574 23.271 71.6651 23.271C71.8729 23.271 72.0777 23.32 72.263 23.4141C72.3351 23.4386 72.3977 23.485 72.4421 23.5469C72.4864 23.6088 72.5103 23.683 72.5103 23.7591C72.5103 23.8353 72.4864 23.9095 72.4421 23.9714C72.3977 24.0333 72.3351 24.0797 72.263 24.1041C72.0777 24.1982 71.8729 24.2473 71.6651 24.2473C71.4574 24.2473 71.2525 24.1982 71.0673 24.1041Z" fill="#2D3B42"/>
<path d="M74.0823 21.7749C74.0823 21.4192 73.8466 21.0635 73.3752 20.7914C72.8463 20.5229 72.2615 20.3831 71.6684 20.3831C71.0753 20.3831 70.4906 20.5229 69.9617 20.7914C69.4902 21.0635 69.2545 21.4192 69.2545 21.7749V24.7321C69.2545 25.0899 69.4902 25.4456 69.9617 25.7178C70.4906 25.9862 71.0753 26.1261 71.6684 26.1261C72.2615 26.1261 72.8463 25.9862 73.3752 25.7178C73.8466 25.4456 74.0823 25.0899 74.0823 24.7321V21.7749Z" fill="#855DCF"/>
<path opacity="0.3" d="M69.9617 22.7606C69.4902 22.4885 69.2545 22.1328 69.2545 21.7771C69.2545 21.4214 69.4902 21.0635 69.9617 20.7914C70.4906 20.5229 71.0753 20.3831 71.6684 20.3831C72.2615 20.3831 72.8463 20.5229 73.3752 20.7914C73.8466 21.0635 74.0823 21.4192 74.0823 21.7749C74.0823 22.1306 73.8466 22.4885 73.3752 22.7606C72.8463 23.0291 72.2615 23.1689 71.6684 23.1689C71.0753 23.1689 70.4906 23.0291 69.9617 22.7606Z" fill="#FCFCFC"/>
<path opacity="0.2" d="M70.0666 22.8143V25.7671C70.133 25.8014 70.2059 25.8357 70.2809 25.8657V22.9129C70.2074 22.8846 70.1358 22.8516 70.0666 22.8143ZM70.8059 23.0757V26.0328C70.8723 26.0457 70.9451 26.0585 71.0201 26.0671V23.1121C70.9451 23.1036 70.8723 23.0907 70.8059 23.0757ZM69.4773 22.3557V25.3107C69.542 25.3886 69.6137 25.4603 69.6916 25.525V22.57C69.6106 22.5088 69.5385 22.4367 69.4773 22.3557ZM73.0323 22.9236V25.8764C73.1058 25.8492 73.1774 25.8169 73.2466 25.78V22.8271C73.1774 22.8642 73.1058 22.8964 73.0323 22.9236ZM73.6216 22.5914V25.5443C73.6996 25.4798 73.7714 25.408 73.8358 25.33V22.3943C73.7725 22.4683 73.7005 22.5344 73.6216 22.5914ZM72.293 23.1164V26.0714C72.3637 26.0714 72.4366 26.05 72.5073 26.0371V23.08C72.4323 23.095 72.3637 23.1079 72.293 23.1271V23.1164ZM71.5623 23.1636V26.1271H71.7766V23.17C71.7052 23.1768 71.6332 23.1747 71.5623 23.1636Z" fill="black"/>
<path d="M64.3903 35.5149C63.1046 37.7327 60.6939 38.7291 58.8789 37.6877C57.8399 37.0587 57.0889 36.0474 56.787 34.871C56.4851 33.6946 56.6564 32.4467 57.2641 31.3951C57.8718 30.3435 58.8675 29.572 60.0375 29.2461C61.2075 28.9202 62.4586 29.066 63.5224 29.6521C65.3331 30.7128 65.6738 33.2949 64.3903 35.5149Z" fill="#647781"/>
<path d="M58.8789 37.6983C60.6938 38.7462 63.1088 37.7433 64.3902 35.5255C64.682 35.0302 64.8987 34.4944 65.0331 33.9355C64.9581 34.0319 62.8238 36.7533 60.171 35.9883C57.471 35.2084 56.9567 33.1277 57.1946 31.3577C56.5772 32.4219 56.4078 33.6877 56.7236 34.8768C57.0395 36.0659 57.8147 37.0808 58.8789 37.6983Z" fill="#2D3B42"/>
<path d="M58.131 30.8949L57.4582 30.5049C57.2686 30.3912 57.0417 30.3575 56.8273 30.4112C56.6129 30.4648 56.4286 30.6014 56.3149 30.791C56.2013 30.9805 56.1676 31.2074 56.2212 31.4218C56.2749 31.6362 56.4115 31.8205 56.601 31.9342L57.291 32.3349C57.5846 32.5063 58.011 32.322 58.2424 31.9256C58.4739 31.5292 58.4246 31.0663 58.131 30.8949Z" fill="#855DCF"/>
<path d="M83.9244 23.3693L84.7194 21.9936C84.7756 21.8997 84.8129 21.7957 84.829 21.6874C84.8451 21.5792 84.8397 21.4689 84.8131 21.3627C84.7865 21.2565 84.7393 21.1567 84.6742 21.0687C84.609 20.9808 84.5271 20.9066 84.4333 20.8503C84.3395 20.7941 84.2354 20.7568 84.1272 20.7407C84.019 20.7247 83.9086 20.7301 83.8024 20.7566C83.6963 20.7832 83.5964 20.8304 83.5085 20.8956C83.4206 20.9607 83.3464 21.0426 83.2901 21.1364L82.4844 22.5293C82.313 22.8228 82.4972 23.2493 82.8958 23.4807C83.2944 23.7121 83.7487 23.6628 83.9244 23.3693Z" fill="#855DCF"/>
<path d="M77.5515 23.4312C78.1676 22.3659 79.1816 21.589 80.3705 21.2713C81.5594 20.9536 82.8258 21.1212 83.8911 21.7373C84.9564 22.3534 85.7334 23.3674 86.051 24.5563C86.3687 25.7452 86.2011 27.0116 85.585 28.0769L77.5515 23.4312Z" fill="#647781"/>
<path d="M84.5779 22.2249C84.8414 22.7734 85.5507 25.0898 84.5779 25.6663C83.605 26.2427 79.1072 24.3291 79.1072 24.3291L85.5871 28.077C86.1298 27.1374 86.3259 26.0374 86.1415 24.9683C85.9571 23.8991 85.4038 22.9283 84.5779 22.2249Z" fill="#2D3B42"/>
</svg>
