<svg width="25" height="25" viewBox="0 0 25 25" fill="none" xmlns="http://www.w3.org/2000/svg">
<g clip-path="url(#clip0_77_8781)">
<path fill-rule="evenodd" clip-rule="evenodd" d="M17.803 3.70299L21.339 7.23899C21.5212 7.4276 21.622 7.6802 21.6197 7.94239C21.6174 8.20459 21.5122 8.4554 21.3268 8.64081C21.1414 8.82622 20.8906 8.93139 20.6284 8.93367C20.3662 8.93595 20.1136 8.83515 19.925 8.65299L18.51 10.067L20.277 11.835C20.3725 11.9272 20.4487 12.0376 20.5011 12.1596C20.5535 12.2816 20.5811 12.4128 20.5822 12.5456C20.5834 12.6784 20.5581 12.8101 20.5078 12.9329C20.4575 13.0558 20.3833 13.1675 20.2894 13.2614C20.1955 13.3553 20.0838 13.4295 19.961 13.4798C19.8381 13.5301 19.7064 13.5554 19.5736 13.5542C19.4408 13.5531 19.3096 13.5255 19.1876 13.4731C19.0656 13.4207 18.9552 13.3445 18.863 13.249L18.157 12.542L12.5 18.199C11.9374 18.7614 11.1745 19.0774 10.379 19.0774C9.5835 19.0774 8.82058 18.7614 8.258 18.199L5.136 21.32C4.94739 21.5022 4.69479 21.6029 4.43259 21.6007C4.1704 21.5984 3.91959 21.4932 3.73418 21.3078C3.54877 21.1224 3.4436 20.8716 3.44132 20.6094C3.43904 20.3472 3.53984 20.0946 3.722 19.906L6.843 16.785C6.56437 16.5064 6.34334 16.1757 6.19255 15.8117C6.04175 15.4477 5.96414 15.0575 5.96414 14.6635C5.96414 14.2695 6.04175 13.8793 6.19255 13.5153C6.34334 13.1513 6.56437 12.8206 6.843 12.542L12.5 6.88499L11.793 6.17799C11.6975 6.08575 11.6213 5.9754 11.5689 5.8534C11.5165 5.73139 11.4889 5.60017 11.4877 5.46739C11.4866 5.33461 11.5119 5.20294 11.5622 5.08004C11.6125 4.95714 11.6867 4.84549 11.7806 4.7516C11.8745 4.65771 11.9861 4.58345 12.109 4.53317C12.2319 4.48289 12.3636 4.45759 12.4964 4.45874C12.6292 4.4599 12.7604 4.48748 12.8824 4.53989C13.0044 4.5923 13.1147 4.66848 13.207 4.76399L14.975 6.53099L16.389 5.11699C16.2935 5.02475 16.2173 4.9144 16.1649 4.7924C16.1125 4.67039 16.0849 4.53917 16.0837 4.40639C16.0826 4.27362 16.1079 4.14194 16.1582 4.01904C16.2085 3.89614 16.2827 3.78449 16.3766 3.6906C16.4705 3.59671 16.5821 3.52245 16.705 3.47217C16.8279 3.42189 16.9596 3.39659 17.0924 3.39774C17.2252 3.3989 17.3564 3.42648 17.4784 3.47889C17.6004 3.5313 17.7107 3.60748 17.803 3.70299ZM13.914 8.29899L12.5 9.71399L13.207 10.42C13.2999 10.5128 13.3736 10.6231 13.4239 10.7444C13.4742 10.8657 13.5002 10.9958 13.5002 11.1271C13.5002 11.2585 13.4744 11.3886 13.4242 11.5099C13.374 11.6313 13.3003 11.7416 13.2075 11.8345C13.1147 11.9274 13.0044 12.0011 12.8831 12.0514C12.7618 12.1017 12.6317 12.1276 12.5003 12.1277C12.369 12.1277 12.2389 12.1019 12.1176 12.0517C11.9962 12.0015 11.8859 11.9278 11.793 11.835L11.086 11.128L10.379 11.835L11.086 12.542C11.1815 12.6342 11.2577 12.7446 11.3101 12.8666C11.3625 12.9886 11.3901 13.1198 11.3912 13.2526C11.3924 13.3854 11.3671 13.5171 11.3168 13.6399C11.2665 13.7628 11.1923 13.8745 11.0984 13.9684C11.0045 14.0623 10.8928 14.1365 10.7699 14.1868C10.6471 14.2371 10.5154 14.2624 10.3826 14.2612C10.2498 14.2601 10.1186 14.2325 9.99659 14.1801C9.87459 14.1277 9.76424 14.0515 9.672 13.956L8.965 13.249L8.258 13.956C8.16502 14.0489 8.09126 14.1592 8.04094 14.2806C7.99061 14.402 7.96471 14.5321 7.96471 14.6635C7.96471 14.7949 7.99061 14.925 8.04094 15.0464C8.09126 15.1678 8.16502 15.2781 8.258 15.371L9.672 16.785C9.85952 16.9725 10.1138 17.0778 10.379 17.0778C10.6442 17.0778 10.8985 16.9725 11.086 16.785L16.743 11.128L13.914 8.29899ZM17.804 6.53099L16.389 7.94599L17.096 8.65299L18.511 7.23899L17.804 6.53099Z" fill="#FCFCFC"/>
</g>
<defs>
<clipPath id="clip0_77_8781">
<rect width="24" height="24" fill="white" transform="translate(0.5 0.541992)"/>
</clipPath>
</defs>
</svg>
